STARTFONT 2.1
FONT -Adobe-Times-Medium-I-Normal--24-240-75-75-P-125-ISO10646-1
SIZE 24 75 75
FONTBOUNDINGBOX 31 40 -5 -11
COMMENT $Xorg: $
COMMENT ISO10646-1 extension by Markus Kuhn <mkuhn@acm.org>, 2001-03-20
COMMENT 
COMMENT +
COMMENT  Copyright 1984-1989, 1994 Adobe Systems Incorporated.
COMMENT  Copyright 1988, 1994 Digital Equipment Corporation.
COMMENT
COMMENT  Adobe is a trademark of Adobe Systems Incorporated which may be
COMMENT  registered in certain jurisdictions.
COMMENT  Permission to use these trademarks is hereby granted only in
COMMENT  association with the images described in this file.
COMMENT
COMMENT  Permission to use, copy, modify, distribute and sell this software
COMMENT  and its documentation for any purpose and without fee is hereby
COMMENT  granted, provided that the above copyright notices appear in all
COMMENT  copies and that both those copyright notices and this permission
COMMENT  notice appear in supporting documentation, and that the names of
COMMENT  Adobe Systems and Digital Equipment Corporation not be used in
COMMENT  advertising or publicity pertaining to distribution of the software
COMMENT  without specific, written prior permission.  Adobe Systems and
COMMENT  Digital Equipment Corporation make no representations about the
COMMENT  suitability of this software for any purpose.  It is provided "as
COMMENT  is" without express or implied warranty.
COMMENT -
STARTPROPERTIES 26
FOUNDRY "Adobe"
FAMILY_NAME "Times"
WEIGHT_NAME "Medium"
SLANT "I"
SETWIDTH_NAME "Normal"
ADD_STYLE_NAME ""
PIXEL_SIZE 24
POINT_SIZE 240
RESOLUTION_X 75
RESOLUTION_Y 75
SPACING "P"
AVERAGE_WIDTH 125
CHARSET_REGISTRY "ISO10646"
CHARSET_ENCODING "1"
CAP_HEIGHT 17
X_HEIGHT 11
FONT_ASCENT 20
FONT_DESCENT 5
FACE_NAME "Times Italic"
COPYRIGHT "Copyright (c) 1984, 1987 Adobe Systems Incorporated. All Rights Reserved. Copyright (c) 1988, 1991 Digital Equipment Corporation. All Rights Reserved."

STARTCHAR char0
ENCODING 0
SWIDTH 722 0
DWIDTH 18 0
BBX 19 17 -1 0
BITMAP
AAAAA0
000000
800020
000000
800020
000000
800020
000000
800020
000000
800020
000000
800020
000000
800020
000000
AAAAA0
ENDCHAR
STARTCHAR space
ENCODING 32
SWIDTH 250 0
DWIDTH 6 0
BBX 1 1 0 0
BITMAP
00
ENDCHAR
STARTCHAR exclam
ENCODING 33
SWIDTH 333 0
DWIDTH 8 0
BBX 7 17 1 0
BITMAP
06
06
0E
0C
0C
18
18
18
10
30
20
20
00
00
C0
C0
C0
ENDCHAR
STARTCHAR quotedbl
ENCODING 34
SWIDTH 420 0
DWIDTH 11 0
BBX 6 5 4 12
BITMAP
CC
CC
CC
88
88
ENDCHAR
STARTCHAR numbersign
ENCODING 35
SWIDTH 500 0
DWIDTH 13 0
BBX 13 17 0 0
BITMAP
0420
0420
0C60
0C60
0840
7FF8
18C0
18C0
1080
3180
3180
FFE0
2100
6300
6300
4200
C600
ENDCHAR
STARTCHAR dollar
ENCODING 36
SWIDTH 500 0
DWIDTH 12 0
BBX 11 20 0 -2
BITMAP
0080
0F80
19E0
3160
3320
3220
1A00
1E00
0F00
0780
0580
04C0
0CC0
88C0
88C0
C980
EB80
3E00
1000
1000
ENDCHAR
STARTCHAR percent
ENCODING 37
SWIDTH 833 0
DWIDTH 20 0
BBX 17 17 1 0
BITMAP
0E1800
33F800
611000
613000
C12000
C36000
C24000
C68F00
EC9980
79B080
013080
036080
026180
066100
0C6300
0C7600
183C00
ENDCHAR
STARTCHAR ampersand
ENCODING 38
SWIDTH 778 0
DWIDTH 19 0
BBX 16 17 1 0
BITMAP
00E0
01B0
0330
0330
0360
03C0
0380
0700
0F3E
3B0C
7198
E1B0
C1E0
C0C0
C0E0
61F3
3E3E
ENDCHAR
STARTCHAR quotesingle
ENCODING 39
SWIDTH 214 0
DWIDTH 5 0
BBX 2 5 3 12
BITMAP
C0
C0
C0
80
80
ENDCHAR
STARTCHAR parenleft
ENCODING 40
SWIDTH 333 0
DWIDTH 8 0
BBX 7 22 1 -5
BITMAP
02
04
0C
18
18
30
30
60
60
60
C0
C0
C0
C0
C0
C0
C0
40
60
60
20
20
ENDCHAR
STARTCHAR parenright
ENCODING 41
SWIDTH 333 0
DWIDTH 8 0
BBX 7 22 -1 -5
BITMAP
08
08
0C
0C
04
06
06
06
06
06
06
06
0C
0C
0C
18
18
30
30
60
40
80
ENDCHAR
STARTCHAR asterisk
ENCODING 42
SWIDTH 500 0
DWIDTH 13 0
BBX 9 10 1 7
BITMAP
1800
1800
C980
EB80
1C00
EB80
C980
0800
1800
1800
ENDCHAR
STARTCHAR plus
ENCODING 43
SWIDTH 675 0
DWIDTH 17 0
BBX 12 12 3 1
BITMAP
0600
0600
0600
0600
0600
FFF0
FFF0
0600
0600
0600
0600
0600
ENDCHAR
STARTCHAR comma
ENCODING 44
SWIDTH 250 0
DWIDTH 6 0
BBX 3 6 -1 -3
BITMAP
60
60
60
20
60
C0
ENDCHAR
STARTCHAR hyphen
ENCODING 45
SWIDTH 333 0
DWIDTH 8 0
BBX 6 2 1 5
BITMAP
FC
FC
ENDCHAR
STARTCHAR period
ENCODING 46
SWIDTH 250 0
DWIDTH 6 0
BBX 2 3 0 0
BITMAP
C0
C0
C0
ENDCHAR
STARTCHAR slash
ENCODING 47
SWIDTH 278 0
DWIDTH 7 0
BBX 7 17 0 0
BITMAP
06
06
04
0C
0C
08
18
18
10
30
30
20
60
60
40
C0
C0
ENDCHAR
STARTCHAR zero
ENCODING 48
SWIDTH 500 0
DWIDTH 12 0
BBX 12 17 0 0
BITMAP
03C0
0E60
1860
3830
3030
7030
7030
6070
E070
E070
C060
C0E0
C0C0
C1C0
C180
6700
3E00
ENDCHAR
STARTCHAR one
ENCODING 49
SWIDTH 500 0
DWIDTH 12 0
BBX 9 17 1 0
BITMAP
0380
1F80
0300
0300
0300
0700
0600
0600
0E00
0E00
0C00
0C00
1C00
1800
1800
3800
FE00
ENDCHAR
STARTCHAR two
ENCODING 50
SWIDTH 500 0
DWIDTH 12 0
BBX 11 17 0 0
BITMAP
0780
1FC0
30E0
3060
0060
0060
00E0
00C0
0180
0300
0600
0C00
1800
3020
6060
FFC0
FF80
ENDCHAR
STARTCHAR three
ENCODING 51
SWIDTH 500 0
DWIDTH 12 0
BBX 11 17 0 0
BITMAP
07C0
08E0
1060
0060
0040
00C0
0380
0F00
0380
01C0
00C0
00C0
00C0
0080
C180
E300
7E00
ENDCHAR
STARTCHAR four
ENCODING 52
SWIDTH 500 0
DWIDTH 12 0
BBX 12 17 0 0
BITMAP
0030
0070
00F0
01E0
0360
0660
0CC0
18C0
31C0
6180
C180
FFE0
FFE0
0300
0300
0600
0600
ENDCHAR
STARTCHAR five
ENCODING 53
SWIDTH 500 0
DWIDTH 12 0
BBX 12 17 0 0
BITMAP
07F0
0FE0
0800
1800
1C00
3F00
0F80
0380
01C0
00C0
00C0
00C0
00C0
0180
C180
E700
FC00
ENDCHAR
STARTCHAR six
ENCODING 54
SWIDTH 500 0
DWIDTH 12 0
BBX 11 17 1 0
BITMAP
00E0
01C0
0700
0C00
1800
3000
7F00
7180
E1C0
C0C0
C0C0
C0C0
C1C0
C180
E380
7700
3C00
ENDCHAR
STARTCHAR seven
ENCODING 55
SWIDTH 500 0
DWIDTH 12 0
BBX 12 17 1 0
BITMAP
7FF0
7FE0
C060
80C0
00C0
0180
0300
0300
0600
0600
0C00
1800
1800
3000
6000
E000
C000
ENDCHAR
STARTCHAR eight
ENCODING 56
SWIDTH 500 0
DWIDTH 12 0
BBX 12 17 0 0
BITMAP
07C0
0C60
1830
1830
1830
1C60
0EC0
0700
0B80
31C0
60E0
C060
C060
C060
C0C0
61C0
3F00
ENDCHAR
STARTCHAR nine
ENCODING 57
SWIDTH 500 0
DWIDTH 12 0
BBX 12 17 0 0
BITMAP
07C0
1CE0
3870
3030
7030
6030
6030
6070
7060
39E0
1EC0
01C0
0380
0700
0C00
3800
E000
ENDCHAR
STARTCHAR colon
ENCODING 58
SWIDTH 333 0
DWIDTH 8 0
BBX 5 11 1 0
BITMAP
18
18
18
00
00
00
00
00
C0
C0
C0
ENDCHAR
STARTCHAR semicolon
ENCODING 59
SWIDTH 333 0
DWIDTH 8 0
BBX 5 14 1 -3
BITMAP
18
18
18
00
00
00
00
00
60
60
60
20
60
C0
ENDCHAR
STARTCHAR less
ENCODING 60
SWIDTH 675 0
DWIDTH 17 0
BBX 14 12 1 1
BITMAP
001C
007C
03E0
0F80
3C00
F000
F000
3C00
0F80
03E0
00FC
001C
ENDCHAR
STARTCHAR equal
ENCODING 61
SWIDTH 675 0
DWIDTH 17 0
BBX 13 6 2 4
BITMAP
FFF8
FFF8
0000
0000
FFF8
FFF8
ENDCHAR
STARTCHAR greater
ENCODING 62
SWIDTH 675 0
DWIDTH 17 0
BBX 14 12 2 1
BITMAP
E000
FC00
1F00
07C0
00F0
003C
003C
00F0
07C0
1F00
F800
E000
ENDCHAR
STARTCHAR question
ENCODING 63
SWIDTH 500 0
DWIDTH 12 0
BBX 9 17 3 0
BITMAP
3E00
3380
6180
6180
0180
0300
0700
0E00
1800
3000
3000
6000
4000
0000
C000
C000
C000
ENDCHAR
STARTCHAR at
ENCODING 64
SWIDTH 920 0
DWIDTH 23 0
BBX 21 21 1 -5
BITMAP
007F00
03C1C0
060060
1C0030
183D18
307718
70C308
618308
E30308
E30608
C70618
C60E10
C60C30
C61C60
C774C0
E3E380
600000
300000
1C0000
0F0180
01FE00
ENDCHAR
STARTCHAR A
ENCODING 65
SWIDTH 611 0
DWIDTH 15 0
BBX 16 18 -2 0
BITMAP
000C
001C
001C
002C
006C
004C
00CC
018C
010C
030C
060C
07FC
0C0C
080C
180C
300C
700C
F83F
ENDCHAR
STARTCHAR B
ENCODING 66
SWIDTH 611 0
DWIDTH 15 0
BBX 15 17 -1 0
BITMAP
0FF0
031C
030C
070E
060E
060C
0E0C
0C38
0FE0
0C38
1C18
181C
181C
383C
3038
30F0
FFC0
ENDCHAR
STARTCHAR C
ENCODING 67
SWIDTH 667 0
DWIDTH 16 0
BBX 16 17 1 0
BITMAP
00F9
070F
0606
1C02
1802
3000
3000
7000
6000
E000
E000
E000
E000
600C
7018
3870
0FC0
ENDCHAR
STARTCHAR D
ENCODING 68
SWIDTH 722 0
DWIDTH 18 0
BBX 18 17 -1 0
BITMAP
0FFC00
030F00
030380
070180
0601C0
0601C0
0E01C0
0C0180
0C0180
0C0380
1C0300
180700
180600
380E00
301800
307000
FFC000
ENDCHAR
STARTCHAR E
ENCODING 69
SWIDTH 611 0
DWIDTH 15 0
BBX 16 17 -1 0
BITMAP
0FFF
0303
0301
0701
0600
0608
0E08
0C18
0FF0
0C30
1C10
1810
1800
3802
3006
300C
FFFC
ENDCHAR
STARTCHAR F
ENCODING 70
SWIDTH 611 0
DWIDTH 15 0
BBX 16 17 -1 0
BITMAP
0FFF
0303
0301
0701
0600
0608
0E08
0C18
0FF0
0C30
1C10
1810
1800
3800
3000
3000
FE00
ENDCHAR
STARTCHAR G
ENCODING 71
SWIDTH 722 0
DWIDTH 18 0
BBX 17 17 1 0
BITMAP
00F900
078F00
060600
1C0200
180200
380000
300000
700000
600000
603F80
E00600
E00600
E00C00
600C00
700C00
383C00
0FC000
ENDCHAR
STARTCHAR H
ENCODING 72
SWIDTH 722 0
DWIDTH 18 0
BBX 20 17 -1 0
BITMAP
0FC3F0
0300C0
0300C0
0701C0
060180
060180
0E0380
0C0300
0FFF00
0C0300
1C0700
180600
180600
380E00
300C00
300C00
FC3F00
ENDCHAR
STARTCHAR I
ENCODING 73
SWIDTH 333 0
DWIDTH 8 0
BBX 10 17 -1 0
BITMAP
0FC0
0300
0300
0700
0600
0600
0E00
0C00
0C00
0C00
1C00
1800
1800
3800
3000
3000
FC00
ENDCHAR
STARTCHAR J
ENCODING 74
SWIDTH 444 0
DWIDTH 11 0
BBX 12 17 -1 0
BITMAP
03F0
00C0
00C0
01C0
0180
0180
0380
0300
0300
0300
0700
0600
0600
0600
CC00
CC00
7800
ENDCHAR
STARTCHAR K
ENCODING 75
SWIDTH 667 0
DWIDTH 16 0
BBX 18 17 -1 0
BITMAP
0FCFC0
030300
030600
060C00
063000
066000
0EC000
0F8000
0DC000
0CC000
1CE000
186000
187000
383000
303800
301C00
FCFF00
ENDCHAR
STARTCHAR L
ENCODING 76
SWIDTH 556 0
DWIDTH 14 0
BBX 14 17 -1 0
BITMAP
0FC0
0300
0300
0700
0600
0600
0E00
0C00
0C00
0C00
1C00
1800
1800
3804
300C
3018
FFF8
ENDCHAR
STARTCHAR M
ENCODING 77
SWIDTH 833 0
DWIDTH 20 0
BBX 21 17 -1 0
BITMAP
1F0078
0700E0
0700E0
0701E0
0F03E0
0B02C0
0B04C0
0B0CC0
1B89C0
199980
119180
31A180
31E380
21C300
218300
618700
F91FC0
ENDCHAR
STARTCHAR N
ENCODING 78
SWIDTH 667 0
DWIDTH 16 0
BBX 19 17 -1 0
BITMAP
1F03E0
0700C0
070180
058180
0D8100
0D8100
08C300
08C200
18E200
186600
107600
303400
303400
203C00
201C00
601800
F80800
ENDCHAR
STARTCHAR O
ENCODING 79
SWIDTH 722 0
DWIDTH 18 0
BBX 16 17 1 0
BITMAP
00F0
079C
060E
1C06
1807
3807
3007
7006
6006
600E
E00C
E01C
E018
6038
7060
39E0
0F80
ENDCHAR
STARTCHAR P
ENCODING 80
SWIDTH 611 0
DWIDTH 15 0
BBX 16 17 -1 0
BITMAP
0FF8
030E
0306
0707
0607
0607
0E0E
0C3C
0FF0
0C00
1C00
1800
1800
3800
3000
3000
FC00
ENDCHAR
STARTCHAR Q
ENCODING 81
SWIDTH 722 0
DWIDTH 18 0
BBX 16 22 1 -5
BITMAP
00F0
079C
060E
1C06
1807
3807
3007
7006
6006
600E
E00C
E01C
E018
6038
7060
39E0
1F80
0C00
1801
3C06
FFFC
C3F0
ENDCHAR
STARTCHAR R
ENCODING 82
SWIDTH 611 0
DWIDTH 15 0
BBX 15 17 -1 0
BITMAP
0FF0
031C
030C
060E
060E
060C
0C1C
0C38
0FE0
0980
18C0
18C0
1860
3070
3030
3038
FC1E
ENDCHAR
STARTCHAR S
ENCODING 83
SWIDTH 500 0
DWIDTH 12 0
BBX 12 17 0 0
BITMAP
07D0
0C70
1830
1820
1820
1C00
0E00
0F00
0780
0380
01C0
01C0
40C0
40C0
C0C0
E180
BF00
ENDCHAR
STARTCHAR T
ENCODING 84
SWIDTH 556 0
DWIDTH 14 0
BBX 14 17 2 0
BITMAP
FFFC
C30C
8308
8708
0600
0600
0E00
0C00
0C00
0C00
1C00
1800
1800
3800
3000
3000
FC00
ENDCHAR
STARTCHAR U
ENCODING 85
SWIDTH 722 0
DWIDTH 18 0
BBX 17 17 2 0
BITMAP
7E1F80
180600
180600
380400
300400
300C00
700C00
600800
601800
601800
C01000
C01000
C03000
C02000
E06000
79C000
3F0000
ENDCHAR
STARTCHAR V
ENCODING 86
SWIDTH 611 0
DWIDTH 15 0
BBX 16 17 1 0
BITMAP
FC1F
7006
300C
3008
3018
3810
1830
1860
1840
18C0
1C80
0D80
0D00
0E00
0E00
0C00
0800
ENDCHAR
STARTCHAR W
ENCODING 87
SWIDTH 833 0
DWIDTH 21 0
BBX 21 17 1 0
BITMAP
F9F8F8
306060
306040
3060C0
30E080
30E180
31E100
316300
336200
326600
366400
3C6C00
386800
387000
307000
306000
204000
ENDCHAR
STARTCHAR X
ENCODING 88
SWIDTH 611 0
DWIDTH 15 0
BBX 18 17 -1 0
BITMAP
3F8FC0
0E0700
060600
070C00
031800
033000
036000
01C000
01C000
01C000
036000
066000
0C6000
183000
303000
703800
F8FE00
ENDCHAR
STARTCHAR Y
ENCODING 89
SWIDTH 556 0
DWIDTH 14 0
BBX 14 17 2 0
BITMAP
FC7C
7038
3030
3060
18C0
1980
1B00
0E00
0C00
0C00
1800
1800
1800
3000
3000
3000
FC00
ENDCHAR
STARTCHAR Z
ENCODING 90
SWIDTH 556 0
DWIDTH 14 0
BBX 16 17 -1 0
BITMAP
1FFF
180E
300C
2018
0038
0070
00E0
00C0
0180
0300
0700
0E00
0C02
1806
380C
703C
FFF8
ENDCHAR
STARTCHAR bracketleft
ENCODING 91
SWIDTH 389 0
DWIDTH 10 0
BBX 9 21 1 -4
BITMAP
0780
0600
0600
0C00
0C00
0C00
1800
1800
1800
1800
3000
3000
3000
3000
6000
6000
6000
C000
C000
C000
F000
ENDCHAR
STARTCHAR backslash
ENCODING 92
SWIDTH 278 0
DWIDTH 7 0
BBX 7 17 0 0
BITMAP
C0
C0
40
60
60
20
30
30
10
18
18
08
0C
0C
04
06
06
ENDCHAR
STARTCHAR bracketright
ENCODING 93
SWIDTH 389 0
DWIDTH 10 0
BBX 9 21 0 -4
BITMAP
0780
0180
0180
0180
0300
0300
0300
0600
0600
0600
0600
0C00
0C00
0C00
0C00
1800
1800
1800
3000
3000
F000
ENDCHAR
STARTCHAR asciicircum
ENCODING 94
SWIDTH 422 0
DWIDTH 11 0
BBX 10 10 1 7
BITMAP
0600
0600
0F00
1B00
1980
3180
6180
60C0
C0C0
C0C0
ENDCHAR
STARTCHAR underscore
ENCODING 95
SWIDTH 500 0
DWIDTH 13 0
BBX 13 2 0 -5
BITMAP
FFF8
FFF8
ENDCHAR
STARTCHAR grave
ENCODING 96
SWIDTH 333 0
DWIDTH 8 0
BBX 5 5 4 12
BITMAP
C0
E0
70
30
08
ENDCHAR
STARTCHAR a
ENCODING 97
SWIDTH 500 0
DWIDTH 13 0
BBX 12 11 0 0
BITMAP
03B0
0E70
1860
3060
60C0
60C0
C0C0
C380
C580
F9A0
71C0
ENDCHAR
STARTCHAR b
ENCODING 98
SWIDTH 500 0
DWIDTH 12 0
BBX 11 17 0 0
BITMAP
1C00
0C00
0C00
1800
1800
1800
31C0
33E0
3460
7860
6060
60C0
40C0
C180
C300
CE00
F800
ENDCHAR
STARTCHAR c
ENCODING 99
SWIDTH 444 0
DWIDTH 11 0
BBX 10 11 0 0
BITMAP
0780
1CC0
30C0
7000
6000
E000
C000
C000
C180
E700
7C00
ENDCHAR
STARTCHAR d
ENCODING 100
SWIDTH 500 0
DWIDTH 13 0
BBX 13 17 0 0
BITMAP
0038
0018
0018
0038
0030
0030
03B0
0E60
1860
3060
6040
60C0
C0C0
C3C0
C580
F9A0
71C0
ENDCHAR
STARTCHAR e
ENCODING 101
SWIDTH 444 0
DWIDTH 10 0
BBX 9 11 0 0
BITMAP
0700
1D80
3180
6300
6600
F800
C000
C100
C300
E600
7C00
ENDCHAR
STARTCHAR f
ENCODING 102
SWIDTH 278 0
DWIDTH 7 0
BBX 15 22 -5 -5
BITMAP
001C
0066
0066
00C0
00C0
00C0
07F8
0180
0180
0180
0380
0300
0300
0300
0700
0600
0600
0600
0C00
CC00
CC00
7000
ENDCHAR
STARTCHAR g
ENCODING 103
SWIDTH 500 0
DWIDTH 12 0
BBX 12 17 -1 -6
BITMAP
07F0
1CC0
1860
3060
30E0
30C0
1980
0E00
1800
1C00
3F00
67C0
C1C0
80C0
C0C0
E380
3E00
ENDCHAR
STARTCHAR h
ENCODING 104
SWIDTH 500 0
DWIDTH 13 0
BBX 11 17 0 0
BITMAP
1C00
0C00
0C00
1800
1800
1800
30C0
33E0
3460
7860
7060
70C0
60C0
E0C0
C180
C1A0
C1C0
ENDCHAR
STARTCHAR i
ENCODING 105
SWIDTH 278 0
DWIDTH 7 0
BBX 6 16 0 0
BITMAP
0C
0C
00
00
00
38
18
18
30
30
70
60
60
C0
D0
60
ENDCHAR
STARTCHAR j
ENCODING 106
SWIDTH 278 0
DWIDTH 6 0
BBX 10 21 -4 -5
BITMAP
00C0
00C0
0000
0000
0000
0380
0180
0180
0300
0300
0300
0700
0600
0600
0600
0C00
0C00
0C00
C800
D800
7000
ENDCHAR
STARTCHAR k
ENCODING 107
SWIDTH 444 0
DWIDTH 11 0
BBX 11 17 0 0
BITMAP
1C00
0C00
0C00
1800
1800
1800
33C0
3180
3200
6400
7C00
6C00
6600
C600
C320
C3C0
C180
ENDCHAR
STARTCHAR l
ENCODING 108
SWIDTH 278 0
DWIDTH 6 0
BBX 6 17 0 0
BITMAP
1C
0C
0C
18
18
18
30
30
30
70
60
60
60
C0
C8
D0
60
ENDCHAR
STARTCHAR m
ENCODING 109
SWIDTH 722 0
DWIDTH 20 0
BBX 18 11 0 0
BITMAP
38C380
1BEFC0
1C70C0
3860C0
3060C0
70C180
60C180
60C180
C18300
C18340
C18380
ENDCHAR
STARTCHAR n
ENCODING 110
SWIDTH 500 0
DWIDTH 13 0
BBX 11 11 0 0
BITMAP
38C0
1BE0
1C60
3860
3060
70C0
60C0
60C0
C180
C1A0
C1C0
ENDCHAR
STARTCHAR o
ENCODING 111
SWIDTH 500 0
DWIDTH 12 0
BBX 11 11 0 0
BITMAP
0780
1CC0
3860
7060
6060
E0E0
C0C0
C1C0
C180
6700
3C00
ENDCHAR
STARTCHAR p
ENCODING 112
SWIDTH 500 0
DWIDTH 12 0
BBX 14 16 -3 -5
BITMAP
0E38
067C
068C
0F0C
0C0C
0C18
1C18
1830
1860
19C0
1F00
3000
3000
3000
6000
F800
ENDCHAR
STARTCHAR q
ENCODING 113
SWIDTH 500 0
DWIDTH 12 0
BBX 12 16 0 -5
BITMAP
03B0
0E70
1860
3060
60C0
60C0
C0C0
C380
C580
F980
7180
0100
0300
0300
0300
0F80
ENDCHAR
STARTCHAR r
ENCODING 114
SWIDTH 389 0
DWIDTH 9 0
BBX 9 11 0 0
BITMAP
3980
1B80
1D80
3800
3000
7000
6000
6000
C000
C000
C000
ENDCHAR
STARTCHAR s
ENCODING 115
SWIDTH 389 0
DWIDTH 9 0
BBX 8 11 0 0
BITMAP
1F
33
31
38
38
1C
0E
86
86
CC
F8
ENDCHAR
STARTCHAR t
ENCODING 116
SWIDTH 278 0
DWIDTH 7 0
BBX 7 14 0 0
BITMAP
08
18
38
7E
30
30
70
60
60
60
E0
C4
D8
60
ENDCHAR
STARTCHAR u
ENCODING 117
SWIDTH 500 0
DWIDTH 12 0
BBX 11 11 0 0
BITMAP
7860
3060
3060
60C0
60C0
61C0
C180
C380
C700
FB00
6380
ENDCHAR
STARTCHAR v
ENCODING 118
SWIDTH 444 0
DWIDTH 12 0
BBX 11 11 0 0
BITMAP
F0E0
3060
3060
30C0
3080
1980
1B00
1E00
1C00
1800
1000
ENDCHAR
STARTCHAR w
ENCODING 119
SWIDTH 667 0
DWIDTH 17 0
BBX 16 11 0 0
BITMAP
F0C7
30C3
30C3
30C2
31C6
19C4
1AC8
1ED8
1CF0
18E0
10C0
ENDCHAR
STARTCHAR x
ENCODING 120
SWIDTH 444 0
DWIDTH 11 0
BBX 11 11 -1 0
BITMAP
1860
3CE0
0C80
0700
0600
0600
0F00
1B00
3320
E1C0
C180
ENDCHAR
STARTCHAR y
ENCODING 121
SWIDTH 444 0
DWIDTH 11 0
BBX 12 16 -1 -5
BITMAP
7870
1830
1830
1860
0C40
0CC0
0C80
0D80
0700
0600
0600
0C00
0800
1800
D000
E000
ENDCHAR
STARTCHAR z
ENCODING 122
SWIDTH 389 0
DWIDTH 10 0
BBX 9 11 0 0
BITMAP
3F80
7F80
4180
0300
0600
0C00
1800
3000
6100
FF00
FE00
ENDCHAR
STARTCHAR braceleft
ENCODING 123
SWIDTH 400 0
DWIDTH 10 0
BBX 9 22 1 -5
BITMAP
0180
0200
0400
0C00
0C00
0C00
0800
1800
1800
3000
E000
7000
3000
3000
3000
2000
2000
6000
6000
6000
2000
1800
ENDCHAR
STARTCHAR bar
ENCODING 124
SWIDTH 275 0
DWIDTH 6 0
BBX 6 22 0 -5
BITMAP
04
04
04
0C
08
08
08
18
10
10
10
30
20
20
60
40
40
40
C0
80
80
80
ENDCHAR
STARTCHAR braceright
ENCODING 125
SWIDTH 400 0
DWIDTH 10 0
BBX 9 22 -1 -5
BITMAP
0C00
0200
0300
0300
0300
0200
0200
0600
0600
0600
0700
0380
0600
0C00
0C00
0800
1800
1800
1800
1000
2000
C000
ENDCHAR
STARTCHAR asciitilde
ENCODING 126
SWIDTH 541 0
DWIDTH 14 0
BBX 10 4 2 4
BITMAP
3840
7CC0
CF80
8700
ENDCHAR
STARTCHAR space
ENCODING 160
SWIDTH 250 0
DWIDTH 6 0
BBX 1 1 0 0
BITMAP
00
ENDCHAR
STARTCHAR exclamdown
ENCODING 161
SWIDTH 389 0
DWIDTH 10 0
BBX 7 17 1 -5
BITMAP
06
06
06
00
00
08
08
18
10
30
30
30
60
60
E0
C0
C0
ENDCHAR
STARTCHAR cent
ENCODING 162
SWIDTH 500 0
DWIDTH 13 0
BBX 10 17 1 -3
BITMAP
0100
0300
0200
0780
1FC0
35C0
6C00
6C00
E800
D800
D800
D180
F700
7C00
2000
6000
4000
ENDCHAR
STARTCHAR sterling
ENCODING 163
SWIDTH 500 0
DWIDTH 13 0
BBX 12 17 0 0
BITMAP
01E0
0330
0630
0600
0C00
0C00
0C00
0C00
7F00
1800
1800
1800
3000
3000
F820
BFE0
E7C0
ENDCHAR
STARTCHAR currency
ENCODING 164
SWIDTH 500 0
DWIDTH 13 0
BBX 12 12 0 3
BITMAP
C030
EF70
7FE0
39C0
70E0
6060
6060
70E0
39C0
7FE0
EF70
C030
ENDCHAR
STARTCHAR yen
ENCODING 165
SWIDTH 500 0
DWIDTH 13 0
BBX 14 17 1 0
BITMAP
FC7C
7030
3030
3060
18C0
1880
1900
0A00
0E00
FFC0
1800
FFC0
1800
3000
3000
3000
FC00
ENDCHAR
STARTCHAR brokenbar
ENCODING 166
SWIDTH 275 0
DWIDTH 6 0
BBX 6 22 0 -5
BITMAP
04
04
04
0C
08
08
18
10
10
00
00
00
20
20
60
40
40
40
C0
80
80
80
ENDCHAR
STARTCHAR section
ENCODING 167
SWIDTH 500 0
DWIDTH 13 0
BBX 11 21 1 -3
BITMAP
03C0
0660
0C60
0860
0C00
0C00
0E00
3F00
2780
6380
61C0
70C0
38C0
38C0
1F80
0E00
0600
C600
C600
CC00
7800
ENDCHAR
STARTCHAR dieresis
ENCODING 168
SWIDTH 333 0
DWIDTH 8 0
BBX 6 2 2 13
BITMAP
CC
CC
ENDCHAR
STARTCHAR copyright
ENCODING 169
SWIDTH 760 0
DWIDTH 19 0
BBX 17 17 1 0
BITMAP
07F000
1C1C00
300600
61E300
473100
C41980
8C0080
880080
880080
880080
8C0080
C41980
477100
61C300
300600
1C1C00
07F000
ENDCHAR
STARTCHAR ordfeminine
ENCODING 170
SWIDTH 276 0
DWIDTH 8 0
BBX 7 10 1 7
BITMAP
1C
64
44
CC
DC
F6
C4
00
00
FC
ENDCHAR
STARTCHAR guillemotleft
ENCODING 171
SWIDTH 500 0
DWIDTH 13 0
BBX 11 9 1 2
BITMAP
0660
0CC0
1980
3300
6600
CC00
6600
3300
1980
ENDCHAR
STARTCHAR logicalnot
ENCODING 172
SWIDTH 675 0
DWIDTH 17 0
BBX 13 7 2 3
BITMAP
FFF8
FFF8
0018
0018
0018
0018
0018
ENDCHAR
STARTCHAR hyphen
ENCODING 173
SWIDTH 333 0
DWIDTH 8 0
BBX 6 2 1 5
BITMAP
FC
FC
ENDCHAR
STARTCHAR registered
ENCODING 174
SWIDTH 760 0
DWIDTH 19 0
BBX 17 17 1 0
BITMAP
07F000
1C1C00
300600
67E300
423100
C21180
821080
823080
83E080
824080
822080
C23180
471900
600300
300600
1C1C00
07F000
ENDCHAR
STARTCHAR macron
ENCODING 175
SWIDTH 333 0
DWIDTH 8 0
BBX 6 2 3 13
BITMAP
FC
FC
ENDCHAR
STARTCHAR degree
ENCODING 176
SWIDTH 400 0
DWIDTH 9 0
BBX 8 7 1 10
BITMAP
3C
66
C3
C3
C3
66
3C
ENDCHAR
STARTCHAR plusminus
ENCODING 177
SWIDTH 675 0
DWIDTH 17 0
BBX 12 15 3 1
BITMAP
0600
0600
0600
0600
0600
FFF0
FFF0
0600
0600
0600
0600
0600
0000
FFF0
FFF0
ENDCHAR
STARTCHAR twosuperior
ENCODING 178
SWIDTH 300 0
DWIDTH 7 0
BBX 7 10 0 7
BITMAP
1C
26
06
06
0C
08
10
22
7C
F8
ENDCHAR
STARTCHAR threesuperior
ENCODING 179
SWIDTH 300 0
DWIDTH 7 0
BBX 7 10 0 7
BITMAP
1C
26
06
04
38
0C
0C
0C
98
70
ENDCHAR
STARTCHAR acute
ENCODING 180
SWIDTH 333 0
DWIDTH 8 0
BBX 5 5 4 12
BITMAP
18
38
70
C0
80
ENDCHAR
STARTCHAR mu
ENCODING 181
SWIDTH 500 0
DWIDTH 12 0
BBX 13 16 -2 -5
BITMAP
1E18
0C18
0C18
1830
1830
1870
3060
30E0
31C0
7EC0
6CE0
6000
4000
C000
E000
4000
ENDCHAR
STARTCHAR paragraph
ENCODING 182
SWIDTH 523 0
DWIDTH 13 0
BBX 11 22 2 -5
BITMAP
0FE0
3E40
7E40
7E40
FC80
FC80
FC80
F900
F900
7900
3200
1200
1200
2400
2400
2400
4800
4800
4800
9000
9000
9000
ENDCHAR
STARTCHAR periodcentered
ENCODING 183
SWIDTH 250 0
DWIDTH 6 0
BBX 2 2 2 6
BITMAP
C0
C0
ENDCHAR
STARTCHAR cedilla
ENCODING 184
SWIDTH 333 0
DWIDTH 8 0
BBX 6 5 0 -5
BITMAP
20
38
0C
8C
78
ENDCHAR
STARTCHAR onesuperior
ENCODING 185
SWIDTH 300 0
DWIDTH 7 0
BBX 6 10 0 7
BITMAP
0C
1C
3C
08
18
18
10
30
30
FC
ENDCHAR
STARTCHAR ordmasculine
ENCODING 186
SWIDTH 310 0
DWIDTH 8 0
BBX 7 10 1 7
BITMAP
3C
66
C2
C6
86
CC
78
00
00
FC
ENDCHAR
STARTCHAR guillemotright
ENCODING 187
SWIDTH 500 0
DWIDTH 13 0
BBX 11 9 0 2
BITMAP
3300
1980
0CC0
0660
0CC0
1980
3300
6600
CC00
ENDCHAR
STARTCHAR onequarter
ENCODING 188
SWIDTH 750 0
DWIDTH 18 0
BBX 15 17 0 0
BITMAP
0C04
1C0C
3C18
0830
1830
1860
10C0
30C6
318E
FF1E
0236
066C
0CCC
198C
19FE
3018
2018
ENDCHAR
STARTCHAR onehalf
ENCODING 189
SWIDTH 750 0
DWIDTH 18 0
BBX 15 17 0 0
BITMAP
0C04
1C0C
3C18
0830
1830
1860
10C0
309C
31A6
FF06
0206
060C
0C08
1810
1822
307C
20F8
ENDCHAR
STARTCHAR threequarters
ENCODING 190
SWIDTH 750 0
DWIDTH 18 0
BBX 15 17 0 0
BITMAP
1C04
260C
0618
0430
3830
0C60
0CC0
0CC6
998E
731E
0236
066C
0CCC
198C
19FE
3018
2018
ENDCHAR
STARTCHAR questiondown
ENCODING 191
SWIDTH 500 0
DWIDTH 12 0
BBX 9 17 1 -5
BITMAP
0180
0180
0180
0000
0100
0300
0600
0600
0C00
3800
7000
6000
C000
C300
C300
E600
3C00
ENDCHAR
STARTCHAR Agrave
ENCODING 192
SWIDTH 611 0
DWIDTH 15 0
BBX 16 22 -2 0
BITMAP
0030
0038
0018
000C
0000
001C
001C
002C
006C
004C
00CC
018C
010C
030C
060C
07FC
0C0C
080C
180C
300C
700C
F83F
ENDCHAR
STARTCHAR Aacute
ENCODING 193
SWIDTH 611 0
DWIDTH 15 0
BBX 16 22 -2 0
BITMAP
0003
0007
000E
0018
0000
001C
001C
002C
006C
004C
00CC
018C
010C
030C
060C
07FC
0C0C
080C
180C
300C
700C
F83F
ENDCHAR
STARTCHAR Acircumflex
ENCODING 194
SWIDTH 611 0
DWIDTH 15 0
BBX 16 22 -2 0
BITMAP
000E
001E
0033
0041
0000
001C
001C
002C
006C
004C
00CC
018C
010C
030C
060C
07FC
0C0C
080C
180C
300C
700C
F83F
ENDCHAR
STARTCHAR Atilde
ENCODING 195
SWIDTH 611 0
DWIDTH 15 0
BBX 18 22 -2 0
BITMAP
000C40
001F80
002300
000000
000000
000C00
001C00
002C00
006C00
004C00
00CC00
018C00
010C00
030C00
060C00
07FC00
0C0C00
080C00
180C00
300C00
700C00
F83F00
ENDCHAR
STARTCHAR Adieresis
ENCODING 196
SWIDTH 611 0
DWIDTH 15 0
BBX 17 21 -2 0
BITMAP
003180
003180
000000
000C00
001C00
001C00
002C00
006C00
004C00
00CC00
018C00
010C00
030C00
060C00
07FC00
0C0C00
080C00
180C00
300C00
700C00
F83F00
ENDCHAR
STARTCHAR Aring
ENCODING 197
SWIDTH 611 0
DWIDTH 15 0
BBX 16 23 -2 0
BITMAP
000E
001B
0011
001B
000E
0000
000C
001C
002C
006C
004C
00CC
018C
010C
030C
060C
07FC
0C0C
080C
180C
300C
700C
F83F
ENDCHAR
STARTCHAR AE
ENCODING 198
SWIDTH 889 0
DWIDTH 22 0
BBX 23 17 -1 0
BITMAP
003FFE
001E06
003602
002602
006C00
00CC10
008C10
019830
031FE0
061860
07F820
0C3020
183000
107004
30600C
606018
F1FFF8
ENDCHAR
STARTCHAR Ccedilla
ENCODING 199
SWIDTH 667 0
DWIDTH 16 0
BBX 16 22 1 -5
BITMAP
00F9
070F
0606
1C02
1802
3000
3000
7000
6000
6000
E000
E000
E000
600C
7018
3870
0FC0
0400
0700
0180
1180
0F00
ENDCHAR
STARTCHAR Egrave
ENCODING 200
SWIDTH 611 0
DWIDTH 15 0
BBX 16 22 -1 0
BITMAP
00C0
00E0
0060
0030
0000
0FFF
0303
0301
0701
0600
0608
0E08
0C18
0FF0
0C30
1C10
1810
1800
3802
3006
300C
FFFC
ENDCHAR
STARTCHAR Eacute
ENCODING 201
SWIDTH 611 0
DWIDTH 15 0
BBX 16 22 -1 0
BITMAP
000C
001C
0038
0060
0000
0FFF
0303
0301
0701
0600
0608
0E08
0C18
0FF0
0C30
1C10
1810
1800
3802
3006
300C
FFFC
ENDCHAR
STARTCHAR Ecircumflex
ENCODING 202
SWIDTH 611 0
DWIDTH 15 0
BBX 16 22 -1 0
BITMAP
0030
0078
00CC
0104
0000
0FFF
0303
0301
0701
0600
0608
0E08
0C18
0FF0
0C30
1C10
1810
1800
3802
3006
300C
FFFC
ENDCHAR
STARTCHAR Edieresis
ENCODING 203
SWIDTH 611 0
DWIDTH 15 0
BBX 16 21 -1 0
BITMAP
00C6
00C6
0000
0000
0FFF
0303
0301
0701
0600
0608
0E08
0C18
0FF0
0C30
1C10
1810
1800
3802
3006
300C
FFFC
ENDCHAR
STARTCHAR Igrave
ENCODING 204
SWIDTH 333 0
DWIDTH 8 0
BBX 10 22 -1 0
BITMAP
0600
0700
0300
0180
0000
0FC0
0300
0300
0700
0600
0600
0E00
0C00
0C00
0C00
1C00
1800
1800
3800
3000
3000
FC00
ENDCHAR
STARTCHAR Iacute
ENCODING 205
SWIDTH 333 0
DWIDTH 8 0
BBX 11 22 -1 0
BITMAP
0060
00E0
01C0
0300
0000
0FC0
0300
0300
0700
0600
0600
0E00
0C00
0C00
0C00
1C00
1800
1800
3800
3000
3000
FC00
ENDCHAR
STARTCHAR Icircumflex
ENCODING 206
SWIDTH 333 0
DWIDTH 8 0
BBX 11 22 -1 0
BITMAP
0180
03C0
0660
0820
0000
0FC0
0300
0300
0700
0600
0600
0E00
0C00
0C00
0C00
1C00
1800
1800
3800
3000
3000
FC00
ENDCHAR
STARTCHAR Idieresis
ENCODING 207
SWIDTH 333 0
DWIDTH 8 0
BBX 11 21 -1 0
BITMAP
0660
0660
0000
0000
0FC0
0300
0300
0700
0600
0600
0E00
0C00
0C00
0C00
1C00
1800
1800
3800
3000
3000
FC00
ENDCHAR
STARTCHAR Eth
ENCODING 208
SWIDTH 722 0
DWIDTH 18 0
BBX 18 17 -1 0
BITMAP
0FFC00
030F00
030380
070180
0601C0
0601C0
0E01C0
0C0180
7F8180
0C0380
1C0300
180700
180600
380E00
301800
307000
FFC000
ENDCHAR
STARTCHAR Ntilde
ENCODING 209
SWIDTH 667 0
DWIDTH 16 0
BBX 19 22 -1 0
BITMAP
003880
007F00
008E00
000000
000000
1F03E0
0700C0
070180
058180
0D8100
0D8100
08C300
08C200
18E200
186600
107600
303400
303400
203C00
201C00
601800
F80800
ENDCHAR
STARTCHAR Ograve
ENCODING 210
SWIDTH 722 0
DWIDTH 18 0
BBX 16 22 1 0
BITMAP
00C0
00E0
0060
0030
0000
00F0
079C
060E
1C06
1807
3807
3007
7006
6006
600E
E00C
E01C
E018
6038
7060
39E0
0F80
ENDCHAR
STARTCHAR Oacute
ENCODING 211
SWIDTH 722 0
DWIDTH 18 0
BBX 16 22 1 0
BITMAP
0006
000E
001C
0030
0000
00F0
079C
060E
1C06
1807
3807
3007
7006
6006
600E
E00C
E01C
E018
6038
7060
39E0
0F80
ENDCHAR
STARTCHAR Ocircumflex
ENCODING 212
SWIDTH 722 0
DWIDTH 18 0
BBX 16 22 1 0
BITMAP
0038
0078
00CC
0104
0000
00F0
079C
060E
1C06
1807
3807
3007
7006
6006
600E
E00C
E01C
E018
6038
7060
39E0
0F80
ENDCHAR
STARTCHAR Otilde
ENCODING 213
SWIDTH 722 0
DWIDTH 18 0
BBX 16 22 1 0
BITMAP
0071
00FE
011C
0000
0000
00F0
079C
060E
1C06
1807
3807
3007
7006
6006
600E
E00C
E01C
E018
6038
7060
39E0
0F80
ENDCHAR
STARTCHAR Odieresis
ENCODING 214
SWIDTH 722 0
DWIDTH 18 0
BBX 16 21 1 0
BITMAP
00C6
00C6
0000
0000
00F0
079C
060E
1C06
1807
3807
3007
7006
6006
600E
E00C
E01C
E018
6038
7060
39E0
0F80
ENDCHAR
STARTCHAR multiply
ENCODING 215
SWIDTH 675 0
DWIDTH 17 0
BBX 12 11 3 1
BITMAP
C030
6060
30C0
1980
0F00
0600
0F00
1980
30C0
6060
C030
ENDCHAR
STARTCHAR Oslash
ENCODING 216
SWIDTH 722 0
DWIDTH 18 0
BBX 16 19 1 -1
BITMAP
0006
00FC
079C
061E
1C36
1827
3867
30C7
7086
6186
630E
E30C
E61C
EC18
6C38
7860
39E0
7F80
C000
ENDCHAR
STARTCHAR Ugrave
ENCODING 217
SWIDTH 722 0
DWIDTH 18 0
BBX 17 22 2 0
BITMAP
018000
01C000
00C000
006000
000000
7E1F80
180600
180600
380400
300400
300C00
700C00
600800
601800
601800
C01000
C01000
C03000
C02000
E06000
79C000
3F0000
ENDCHAR
STARTCHAR Uacute
ENCODING 218
SWIDTH 722 0
DWIDTH 18 0
BBX 17 22 2 0
BITMAP
000C00
001C00
003800
006000
000000
7E1F80
180600
180600
380400
300400
300C00
700C00
600800
601800
601800
C01000
C01000
C03000
C02000
E06000
79C000
3F0000
ENDCHAR
STARTCHAR Ucircumflex
ENCODING 219
SWIDTH 722 0
DWIDTH 18 0
BBX 17 22 2 0
BITMAP
006000
00F000
019800
020800
000000
7E1F80
180600
180600
380400
300400
300C00
700C00
600800
601800
601800
C01000
C01000
C03000
C02000
E06000
79C000
3F0000
ENDCHAR
STARTCHAR Udieresis
ENCODING 220
SWIDTH 722 0
DWIDTH 18 0
BBX 17 21 2 0
BITMAP
031800
031800
000000
000000
7E1F80
180600
180600
380400
300400
300C00
700C00
600800
601800
601800
C01000
C01000
C03000
C02000
E06000
79C000
3F0000
ENDCHAR
STARTCHAR Yacute
ENCODING 221
SWIDTH 556 0
DWIDTH 14 0
BBX 14 22 2 0
BITMAP
0060
00E0
01C0
0300
0000
FC7C
7038
3030
3060
18C0
1980
1B00
0E00
0C00
0C00
1800
1800
1800
3000
3000
3000
FC00
ENDCHAR
STARTCHAR Thorn
ENCODING 222
SWIDTH 611 0
DWIDTH 15 0
BBX 14 17 -1 0
BITMAP
0FC0
0300
0300
0300
07E0
0638
0618
0C1C
0C1C
0C18
1838
18F0
1FC0
3800
3000
3000
FC00
ENDCHAR
STARTCHAR germandbls
ENCODING 223
SWIDTH 500 0
DWIDTH 13 0
BBX 16 22 -4 -5
BITMAP
003C
0066
00C3
00C3
0183
0186
019C
03B8
031C
0306
0706
0606
0606
060C
04CC
0CD8
0C70
0C00
0800
9800
D000
E000
ENDCHAR
STARTCHAR agrave
ENCODING 224
SWIDTH 500 0
DWIDTH 13 0
BBX 12 17 0 0
BITMAP
0600
0700
0380
0180
0040
0000
03B0
0E70
1860
3060
60C0
60C0
C0C0
C380
C580
F9A0
71C0
ENDCHAR
STARTCHAR aacute
ENCODING 225
SWIDTH 500 0
DWIDTH 13 0
BBX 12 17 0 0
BITMAP
0030
0070
00E0
0180
0100
0000
03B0
0E70
1860
3060
60C0
60C0
C0C0
C380
C580
F9A0
71C0
ENDCHAR
STARTCHAR acircumflex
ENCODING 226
SWIDTH 500 0
DWIDTH 13 0
BBX 12 16 0 0
BITMAP
01C0
03C0
0660
0820
0000
03B0
0E70
1860
3060
60C0
60C0
C0C0
C380
C580
F9A0
71C0
ENDCHAR
STARTCHAR atilde
ENCODING 227
SWIDTH 500 0
DWIDTH 13 0
BBX 12 16 0 0
BITMAP
0710
0FE0
11C0
0000
0000
03B0
0E70
1860
3060
60C0
60C0
C0C0
C380
C580
F9A0
71C0
ENDCHAR
STARTCHAR adieresis
ENCODING 228
SWIDTH 500 0
DWIDTH 13 0
BBX 12 15 0 0
BITMAP
0660
0660
0000
0000
03B0
0E70
1860
3060
60C0
60C0
C0C0
C380
C580
F9A0
71C0
ENDCHAR
STARTCHAR aring
ENCODING 229
SWIDTH 500 0
DWIDTH 13 0
BBX 12 17 0 0
BITMAP
01C0
0360
0220
0360
01C0
0000
03B0
0E70
1860
3060
6040
60C0
C0C0
C380
C580
F9A0
71C0
ENDCHAR
STARTCHAR ae
ENCODING 230
SWIDTH 667 0
DWIDTH 16 0
BBX 15 11 0 0
BITMAP
03DC
0FF6
18C6
318C
61B8
63E0
C300
C700
CF04
F9CC
70F0
ENDCHAR
STARTCHAR ccedilla
ENCODING 231
SWIDTH 444 0
DWIDTH 11 0
BBX 10 16 0 -5
BITMAP
0780
1CC0
30C0
7000
6000
E000
C000
C000
C180
E700
7C00
2000
3800
0C00
8C00
7800
ENDCHAR
STARTCHAR egrave
ENCODING 232
SWIDTH 444 0
DWIDTH 10 0
BBX 9 17 0 0
BITMAP
1800
1C00
0E00
0300
0100
0000
0700
1D80
3180
6300
6600
F800
C000
C100
C300
E600
7C00
ENDCHAR
STARTCHAR eacute
ENCODING 233
SWIDTH 444 0
DWIDTH 10 0
BBX 10 17 0 0
BITMAP
00C0
01C0
0380
0600
0400
0000
0700
1D80
3180
6300
6600
F800
C000
C100
C300
E600
7C00
ENDCHAR
STARTCHAR ecircumflex
ENCODING 234
SWIDTH 444 0
DWIDTH 10 0
BBX 10 16 0 0
BITMAP
0380
0780
0CC0
1040
0000
0700
1D80
3180
6300
6600
F800
C000
C100
C300
E600
7C00
ENDCHAR
STARTCHAR edieresis
ENCODING 235
SWIDTH 444 0
DWIDTH 10 0
BBX 9 15 0 0
BITMAP
1980
1980
0000
0000
0700
1D80
3180
6300
6600
F800
C000
C100
C300
E600
7C00
ENDCHAR
STARTCHAR igrave
ENCODING 236
SWIDTH 278 0
DWIDTH 7 0
BBX 6 17 0 0
BITMAP
60
70
38
0C
04
00
38
18
18
30
30
70
60
60
C4
C8
70
ENDCHAR
STARTCHAR iacute
ENCODING 237
SWIDTH 278 0
DWIDTH 7 0
BBX 8 17 0 0
BITMAP
03
07
0E
18
10
00
38
18
18
30
30
70
60
60
C4
C8
70
ENDCHAR
STARTCHAR icircumflex
ENCODING 238
SWIDTH 278 0
DWIDTH 7 0
BBX 7 16 0 0
BITMAP
1C
3C
66
82
00
38
18
18
30
30
70
60
60
C4
C8
70
ENDCHAR
STARTCHAR idieresis
ENCODING 239
SWIDTH 278 0
DWIDTH 7 0
BBX 7 15 0 0
BITMAP
66
66
00
00
38
18
18
30
30
70
60
60
C4
C8
70
ENDCHAR
STARTCHAR eth
ENCODING 240
SWIDTH 500 0
DWIDTH 12 0
BBX 11 16 0 0
BITMAP
3000
1C60
0780
0F00
3180
07C0
1CC0
3860
7060
6060
E0E0
C0C0
C1C0
C180
6700
3C00
ENDCHAR
STARTCHAR ntilde
ENCODING 241
SWIDTH 500 0
DWIDTH 13 0
BBX 12 16 0 0
BITMAP
0710
0FE0
11C0
0000
0000
38C0
1BE0
1C60
3860
3040
70C0
60C0
60C0
C180
C1A0
C1C0
ENDCHAR
STARTCHAR ograve
ENCODING 242
SWIDTH 500 0
DWIDTH 12 0
BBX 11 17 0 0
BITMAP
0C00
0E00
0700
0300
0080
0000
0780
1CC0
3860
7060
6060
E0E0
C0C0
C1C0
C180
6700
3C00
ENDCHAR
STARTCHAR oacute
ENCODING 243
SWIDTH 500 0
DWIDTH 12 0
BBX 11 17 0 0
BITMAP
0060
00E0
01C0
0300
0200
0000
0780
1CC0
3860
7060
6060
E0E0
C0C0
C1C0
C180
6700
3C00
ENDCHAR
STARTCHAR ocircumflex
ENCODING 244
SWIDTH 500 0
DWIDTH 12 0
BBX 11 16 0 0
BITMAP
0380
0780
0CC0
1040
0000
0780
1CC0
3860
7060
6060
E0E0
C0C0
C1C0
C180
6700
3C00
ENDCHAR
STARTCHAR otilde
ENCODING 245
SWIDTH 500 0
DWIDTH 12 0
BBX 12 16 0 0
BITMAP
0710
0FE0
11C0
0000
0000
0780
1CC0
3860
7060
6060
E0E0
C0C0
C1C0
C180
6700
3C00
ENDCHAR
STARTCHAR odieresis
ENCODING 246
SWIDTH 500 0
DWIDTH 12 0
BBX 11 15 0 0
BITMAP
0CC0
0CC0
0000
0000
0780
1CC0
3860
7060
6060
E0E0
C0C0
C1C0
C180
6700
3C00
ENDCHAR
STARTCHAR divide
ENCODING 247
SWIDTH 675 0
DWIDTH 17 0
BBX 12 12 3 1
BITMAP
0600
0600
0600
0000
0000
FFF0
FFF0
0000
0000
0600
0600
0600
ENDCHAR
STARTCHAR oslash
ENCODING 248
SWIDTH 500 0
DWIDTH 12 0
BBX 11 17 0 -3
BITMAP
0040
00C0
0080
0780
1DC0
3A60
7260
6460
E4E0
C8C0
C9C0
D180
7700
3C00
2000
6000
4000
ENDCHAR
STARTCHAR ugrave
ENCODING 249
SWIDTH 500 0
DWIDTH 12 0
BBX 11 17 0 0
BITMAP
1800
1C00
0E00
0600
0100
0000
7860
3060
3060
60C0
60C0
61C0
C180
C380
C700
FB00
6380
ENDCHAR
STARTCHAR uacute
ENCODING 250
SWIDTH 500 0
DWIDTH 12 0
BBX 11 17 0 0
BITMAP
0060
00E0
01C0
0300
0200
0000
7860
3060
3060
60C0
60C0
61C0
C180
C380
C700
FB00
6380
ENDCHAR
STARTCHAR ucircumflex
ENCODING 251
SWIDTH 500 0
DWIDTH 12 0
BBX 11 16 0 0
BITMAP
0380
0780
0CC0
1040
0000
7860
3060
3060
60C0
60C0
61C0
C180
C380
C700
FB00
6380
ENDCHAR
STARTCHAR udieresis
ENCODING 252
SWIDTH 500 0
DWIDTH 12 0
BBX 11 15 0 0
BITMAP
0CC0
0CC0
0000
0000
7860
3060
3060
60C0
60C0
61C0
C180
C380
C700
FB00
6380
ENDCHAR
STARTCHAR yacute
ENCODING 253
SWIDTH 444 0
DWIDTH 11 0
BBX 12 22 -1 -5
BITMAP
0030
0070
00E0
0180
0100
0000
7870
1830
1830
1860
0C40
0CC0
0C80
0D80
0700
0600
0600
0C00
0800
1800
D000
E000
ENDCHAR
STARTCHAR thorn
ENCODING 254
SWIDTH 500 0
DWIDTH 12 0
BBX 14 22 -3 -5
BITMAP
0380
0180
0180
0300
0300
0300
0638
067C
068C
070C
0C0C
0C18
0C18
1830
1860
19C0
1F00
3000
3000
3000
6000
F800
ENDCHAR
STARTCHAR ydieresis
ENCODING 255
SWIDTH 444 0
DWIDTH 11 0
BBX 12 20 -1 -5
BITMAP
0CC0
0CC0
0000
0000
7870
1830
1830
1860
0C40
0CC0
0C80
0D80
0700
0600
0600
0C00
0800
1800
D000
E000
ENDCHAR
STARTCHAR Amacron
ENCODING 256
SWIDTH 611 0
DWIDTH 15 0
BBX 16 21 -2 0
BITMAP
00FC
00FC
0000
000C
001C
001C
002C
006C
004C
00CC
018C
010C
030C
060C
07FC
0C0C
080C
180C
300C
700C
F83F
ENDCHAR
STARTCHAR amacron
ENCODING 257
SWIDTH 500 0
DWIDTH 13 0
BBX 12 14 0 0
BITMAP
0FC0
0FC0
0000
03B0
0E70
1860
3060
60C0
60C0
C0C0
C380
C580
F9A0
71C0
ENDCHAR
STARTCHAR Abreve
ENCODING 258
SWIDTH 611 0
DWIDTH 15 0
BBX 16 23 -2 0
BITMAP
0082
00C6
00FC
0078
0000
000C
001C
001C
002C
006C
004C
00CC
018C
010C
030C
060C
07FC
0C0C
080C
180C
300C
700C
F83F
ENDCHAR
STARTCHAR abreve
ENCODING 259
SWIDTH 500 0
DWIDTH 13 0
BBX 12 16 0 0
BITMAP
0820
0C60
0FC0
0780
0000
03B0
0E70
1860
3060
60C0
60C0
C0C0
C380
C580
F9A0
71C0
ENDCHAR
STARTCHAR Aogonek
ENCODING 260
SWIDTH 611 0
DWIDTH 15 0
BBX 16 23 -2 -5
BITMAP
000C
001C
001C
002C
006C
004C
00CC
018C
010C
030C
060C
07FC
0C0C
080C
180C
300C
700C
F83F
0180
0300
0300
03F0
01C0
ENDCHAR
STARTCHAR aogonek
ENCODING 261
SWIDTH 500 0
DWIDTH 13 0
BBX 12 16 0 -5
BITMAP
03B0
0E70
1860
3060
60C0
60C0
C0C0
C380
C580
F9A0
71C0
0C00
1800
1800
1F80
0E00
ENDCHAR
STARTCHAR Cacute
ENCODING 262
SWIDTH 667 0
DWIDTH 16 0
BBX 16 23 1 0
BITMAP
0018
0038
0070
00C0
0080
0000
00F9
070F
0606
1C02
1802
3000
3000
7000
6000
E000
E000
E000
E000
600C
7018
3870
0FC0
ENDCHAR
STARTCHAR cacute
ENCODING 263
SWIDTH 444 0
DWIDTH 11 0
BBX 10 17 0 0
BITMAP
00C0
01C0
0380
0600
0400
0000
0780
1CC0
30C0
7000
6000
E000
C000
C000
C180
E700
7C00
ENDCHAR
STARTCHAR Ccircumflex
ENCODING 264
SWIDTH 667 0
DWIDTH 16 0
BBX 16 22 1 0
BITMAP
00E0
01E0
0330
0410
0000
00F9
070F
0606
1C02
1802
3000
3000
7000
6000
E000
E000
E000
E000
600C
7018
3870
0FC0
ENDCHAR
STARTCHAR ccircumflex
ENCODING 265
SWIDTH 444 0
DWIDTH 11 0
BBX 10 16 0 0
BITMAP
0700
0F00
1980
2080
0000
0780
1CC0
30C0
7000
6000
E000
C000
C000
C180
E700
7C00
ENDCHAR
STARTCHAR Cdotaccent
ENCODING 266
SWIDTH 667 0
DWIDTH 16 0
BBX 16 20 1 0
BITMAP
00C0
00C0
0000
00F9
070F
0606
1C02
1802
3000
3000
7000
6000
E000
E000
E000
E000
600C
7018
3870
0FC0
ENDCHAR
STARTCHAR cdotaccent
ENCODING 267
SWIDTH 444 0
DWIDTH 11 0
BBX 10 14 0 0
BITMAP
0600
0600
0000
0780
1CC0
30C0
7000
6000
E000
C000
C000
C180
E700
7C00
ENDCHAR
STARTCHAR Ccaron
ENCODING 268
SWIDTH 667 0
DWIDTH 16 0
BBX 16 22 1 0
BITMAP
0208
0330
01E0
01C0
0000
00F9
070F
0606
1C02
1802
3000
3000
7000
6000
E000
E000
E000
E000
600C
7018
3870
0FC0
ENDCHAR
STARTCHAR ccaron
ENCODING 269
SWIDTH 444 0
DWIDTH 11 0
BBX 10 16 0 0
BITMAP
1040
1980
0F00
0E00
0000
0780
1CC0
30C0
7000
6000
E000
C000
C000
C180
E700
7C00
ENDCHAR
STARTCHAR Dcaron
ENCODING 270
SWIDTH 722 0
DWIDTH 18 0
BBX 18 22 -1 0
BITMAP
010400
019800
00F000
00E000
000000
0FFC00
030F00
030380
070180
0601C0
0601C0
0E01C0
0C0180
0C0180
0C0380
1C0300
180700
180600
380E00
301800
307000
FFC000
ENDCHAR
STARTCHAR dcaron
ENCODING 271
SWIDTH 808 0
DWIDTH 19 0
BBX 18 17 0 0
BITMAP
0039C0
0019C0
0018C0
003880
003180
003300
03B000
0E6000
186000
306000
604000
60C000
C0C000
C3C000
C58000
F9A000
71C000
ENDCHAR
STARTCHAR Dcroat
ENCODING 272
SWIDTH 722 0
DWIDTH 18 0
BBX 18 17 -1 0
BITMAP
0FFC00
030F00
030380
070180
0601C0
0601C0
0E01C0
0C0180
7F8180
0C0380
1C0300
180700
180600
380E00
301800
307000
FFC000
ENDCHAR
STARTCHAR dcroat
ENCODING 273
SWIDTH 500 0
DWIDTH 13 0
BBX 14 17 0 0
BITMAP
0038
0018
0018
0038
0FFC
0FFC
03B0
0E60
1860
3060
6040
60C0
C0C0
C3C0
C580
F9A0
71C0
ENDCHAR
STARTCHAR Emacron
ENCODING 274
SWIDTH 611 0
DWIDTH 15 0
BBX 16 20 -1 0
BITMAP
03F0
03F0
0000
0FFF
0303
0301
0701
0600
0608
0E08
0C18
0FF0
0C30
1C10
1810
1800
3802
3006
300C
FFFC
ENDCHAR
STARTCHAR emacron
ENCODING 275
SWIDTH 444 0
DWIDTH 10 0
BBX 9 14 0 0
BITMAP
3F00
3F00
0000
0700
1D80
3180
6300
6600
F800
C000
C100
C300
E600
7C00
ENDCHAR
STARTCHAR Ebreve
ENCODING 276
SWIDTH 611 0
DWIDTH 15 0
BBX 16 22 -1 0
BITMAP
0208
0318
03F0
01E0
0000
0FFF
0303
0301
0701
0600
0608
0E08
0C18
0FF0
0C30
1C10
1810
1800
3802
3006
300C
FFFC
ENDCHAR
STARTCHAR ebreve
ENCODING 277
SWIDTH 444 0
DWIDTH 10 0
BBX 9 16 0 0
BITMAP
2080
3180
3F00
1E00
0000
0700
1D80
3180
6300
6600
F800
C000
C100
C300
E600
7C00
ENDCHAR
STARTCHAR Edotaccent
ENCODING 278
SWIDTH 611 0
DWIDTH 15 0
BBX 16 20 -1 0
BITMAP
00C0
00C0
0000
0FFF
0303
0301
0701
0600
0608
0E08
0C18
0FF0
0C30
1C10
1810
1800
3802
3006
300C
FFFC
ENDCHAR
STARTCHAR edotaccent
ENCODING 279
SWIDTH 444 0
DWIDTH 10 0
BBX 9 14 0 0
BITMAP
0C00
0C00
0000
0700
1D80
3180
6300
6600
F800
C000
C100
C300
E600
7C00
ENDCHAR
STARTCHAR Eogonek
ENCODING 280
SWIDTH 611 0
DWIDTH 15 0
BBX 16 22 -1 -5
BITMAP
0FFF
0303
0301
0701
0600
0608
0E08
0C18
0FF0
0C30
1C10
1810
1800
3802
3006
300C
FFFC
0300
0600
0600
07E0
0380
ENDCHAR
STARTCHAR eogonek
ENCODING 281
SWIDTH 444 0
DWIDTH 10 0
BBX 9 16 0 -5
BITMAP
0700
1D80
3180
6300
6600
F800
C000
C100
C300
E600
7C00
1800
3000
3000
3F00
1C00
ENDCHAR
STARTCHAR Ecaron
ENCODING 282
SWIDTH 611 0
DWIDTH 15 0
BBX 16 22 -1 0
BITMAP
0208
0330
01E0
01C0
0000
0FFF
0303
0301
0701
0600
0608
0E08
0C18
0FF0
0C30
1C10
1810
1800
3802
3006
300C
FFFC
ENDCHAR
STARTCHAR ecaron
ENCODING 283
SWIDTH 444 0
DWIDTH 10 0
BBX 9 16 0 0
BITMAP
2080
3300
1E00
1C00
0000
0700
1D80
3180
6300
6600
F800
C000
C100
C300
E600
7C00
ENDCHAR
STARTCHAR Gcircumflex
ENCODING 284
SWIDTH 722 0
DWIDTH 18 0
BBX 17 22 1 0
BITMAP
007000
00F000
019800
020800
000000
00F900
078F00
060600
1C0200
180200
380000
300000
700000
600000
603F80
E00600
E00600
E00C00
600C00
700C00
383C00
0FC000
ENDCHAR
STARTCHAR gcircumflex
ENCODING 285
SWIDTH 500 0
DWIDTH 12 0
BBX 12 22 -1 -6
BITMAP
0380
0780
0CC0
1040
0000
07F0
1CC0
1860
3060
30E0
30C0
1980
0E00
1800
1C00
3F00
67C0
C1C0
80C0
C0C0
E380
3E00
ENDCHAR
STARTCHAR Gbreve
ENCODING 286
SWIDTH 722 0
DWIDTH 18 0
BBX 17 22 1 0
BITMAP
020800
031800
03F000
01E000
000000
00F900
078F00
060600
1C0200
180200
380000
300000
700000
600000
603F80
E00600
E00600
E00C00
600C00
700C00
383C00
0FC000
ENDCHAR
STARTCHAR gbreve
ENCODING 287
SWIDTH 500 0
DWIDTH 12 0
BBX 12 22 -1 -6
BITMAP
0820
0C60
0FC0
0780
0000
07F0
1CC0
1860
3060
30E0
30C0
1980
0E00
1800
1C00
3F00
67C0
C1C0
80C0
C0C0
E380
3E00
ENDCHAR
STARTCHAR Gdotaccent
ENCODING 288
SWIDTH 722 0
DWIDTH 18 0
BBX 17 20 1 0
BITMAP
00C000
00C000
000000
00F900
078F00
060600
1C0200
180200
380000
300000
700000
600000
603F80
E00600
E00600
E00C00
600C00
700C00
383C00
0FC000
ENDCHAR
STARTCHAR gdotaccent
ENCODING 289
SWIDTH 500 0
DWIDTH 12 0
BBX 12 20 -1 -6
BITMAP
0300
0300
0000
07F0
1CC0
1860
3060
30E0
30C0
1980
0E00
1800
1C00
3F00
67C0
C1C0
80C0
C0C0
E380
3E00
ENDCHAR
STARTCHAR Gcommaaccent
ENCODING 290
SWIDTH 722 0
DWIDTH 18 0
BBX 17 24 1 -7
BITMAP
00F900
078F00
060600
1C0200
180200
380000
300000
700000
600000
603F80
E00600
E00600
E00C00
600C00
700C00
383C00
0FC000
000000
018000
018000
018000
008000
018000
030000
ENDCHAR
STARTCHAR gcommaaccent
ENCODING 291
SWIDTH 500 0
DWIDTH 12 0
BBX 12 24 -1 -6
BITMAP
0180
0300
0200
0600
0700
0700
0000
07F0
1CC0
1860
3060
30E0
30C0
1980
0E00
1800
1C00
3F00
67C0
C1C0
80C0
C0C0
E380
3E00
ENDCHAR
STARTCHAR Hcircumflex
ENCODING 292
SWIDTH 722 0
DWIDTH 18 0
BBX 20 22 -1 0
BITMAP
003800
007800
00CC00
010400
000000
0FC3F0
0300C0
0300C0
0701C0
060180
060180
0E0380
0C0300
0FFF00
0C0300
1C0700
180600
180600
380E00
300C00
300C00
FC3F00
ENDCHAR
STARTCHAR hcircumflex
ENCODING 293
SWIDTH 500 0
DWIDTH 13 0
BBX 11 22 0 0
BITMAP
0E00
1E00
3300
4100
0000
1C00
0C00
0C00
1800
1800
1800
30C0
33E0
3460
7860
7060
70C0
60C0
E0C0
C180
C1A0
C1C0
ENDCHAR
STARTCHAR Hbar
ENCODING 294
SWIDTH 722 0
DWIDTH 18 0
BBX 20 17 -1 0
BITMAP
0FC3F0
0300C0
0300C0
0701C0
060180
FFFFF0
FFFFF0
0C0300
0FFF00
0C0300
1C0700
180600
180600
380E00
300C00
300C00
FC3F00
ENDCHAR
STARTCHAR hbar
ENCODING 295
SWIDTH 500 0
DWIDTH 13 0
BBX 13 17 -2 0
BITMAP
0700
0300
0300
0600
FFC0
FFC0
0C30
0CF8
0D18
1E18
1C18
1C30
1830
3830
3060
3068
3070
ENDCHAR
STARTCHAR Itilde
ENCODING 296
SWIDTH 333 0
DWIDTH 8 0
BBX 11 21 -1 0
BITMAP
0E20
1FC0
2380
0000
0FC0
0300
0300
0700
0600
0600
0E00
0C00
0C00
0C00
1C00
1800
1800
3800
3000
3000
FC00
ENDCHAR
STARTCHAR itilde
ENCODING 297
SWIDTH 278 0
DWIDTH 7 0
BBX 9 15 -1 0
BITMAP
3880
7F00
8E00
0000
1C00
0C00
0C00
1800
1800
3800
3000
3000
6000
6400
3800
ENDCHAR
STARTCHAR Imacron
ENCODING 298
SWIDTH 333 0
DWIDTH 8 0
BBX 10 20 -1 0
BITMAP
1F80
1F80
0000
0FC0
0300
0300
0700
0600
0600
0E00
0C00
0C00
0C00
1C00
1800
1800
3800
3000
3000
FC00
ENDCHAR
STARTCHAR imacron
ENCODING 299
SWIDTH 278 0
DWIDTH 7 0
BBX 6 14 0 0
BITMAP
FC
FC
00
38
18
18
30
30
70
60
60
C0
C8
70
ENDCHAR
STARTCHAR Ibreve
ENCODING 300
SWIDTH 333 0
DWIDTH 8 0
BBX 10 22 -1 0
BITMAP
1040
18C0
1F80
0F00
0000
0FC0
0300
0300
0700
0600
0600
0E00
0C00
0C00
0C00
1C00
1800
1800
3800
3000
3000
FC00
ENDCHAR
STARTCHAR ibreve
ENCODING 301
SWIDTH 278 0
DWIDTH 7 0
BBX 7 16 0 0
BITMAP
82
C6
FC
78
00
38
18
18
30
30
70
60
60
C0
C8
70
ENDCHAR
STARTCHAR Iogonek
ENCODING 302
SWIDTH 333 0
DWIDTH 8 0
BBX 10 22 -1 -5
BITMAP
0FC0
0300
0300
0700
0600
0600
0E00
0C00
0C00
0C00
1C00
1800
1800
3800
3000
3000
FC00
1800
3000
3000
3F00
1C00
ENDCHAR
STARTCHAR iogonek
ENCODING 303
SWIDTH 278 0
DWIDTH 7 0
BBX 6 21 0 -5
BITMAP
0C
0C
00
00
00
38
18
18
30
30
70
60
60
C0
D0
60
60
C0
C0
FC
70
ENDCHAR
STARTCHAR Idotaccent
ENCODING 304
SWIDTH 333 0
DWIDTH 8 0
BBX 10 20 -1 0
BITMAP
0600
0600
0000
0FC0
0300
0300
0700
0600
0600
0E00
0C00
0C00
0C00
1C00
1800
1800
3800
3000
3000
FC00
ENDCHAR
STARTCHAR dotlessi
ENCODING 305
SWIDTH 278 0
DWIDTH 7 0
BBX 5 11 0 0
BITMAP
38
18
18
30
30
70
60
60
C0
C8
70
ENDCHAR
STARTCHAR IJ
ENCODING 306
SWIDTH 760 0
DWIDTH 19 0
BBX 20 17 -1 0
BITMAP
0FC3F0
0300C0
0300C0
0701C0
060180
060180
0E0380
0C0300
0C0300
0C0300
1C0700
180600
180600
380600
30CC00
30CC00
FC7800
ENDCHAR
STARTCHAR ij
ENCODING 307
SWIDTH 542 0
DWIDTH 13 0
BBX 13 21 0 -5
BITMAP
0C18
0C18
0000
0000
0000
3870
1830
1830
3060
3060
7060
60E0
60C0
C0C0
D0C0
6180
0180
0180
1900
1B00
0E00
ENDCHAR
STARTCHAR Jcircumflex
ENCODING 308
SWIDTH 444 0
DWIDTH 11 0
BBX 12 22 -1 0
BITMAP
01C0
03C0
0660
0820
0000
03F0
00C0
00C0
01C0
0180
0180
0380
0300
0300
0300
0700
0600
0600
0600
CC00
CC00
7800
ENDCHAR
STARTCHAR jcircumflex
ENCODING 309
SWIDTH 278 0
DWIDTH 6 0
BBX 10 21 -4 -5
BITMAP
0380
0780
0CC0
1040
0000
0380
0180
0180
0300
0300
0300
0700
0600
0600
0600
0C00
0C00
0C00
C800
D800
7000
ENDCHAR
STARTCHAR Kcommaaccent
ENCODING 310
SWIDTH 667 0
DWIDTH 16 0
BBX 18 24 -1 -7
BITMAP
0FCFC0
030300
030600
060C00
063000
066000
0EC000
0F8000
0DC000
0CC000
1CE000
186000
187000
383000
303800
301C00
FCFF00
000000
018000
018000
018000
008000
018000
030000
ENDCHAR
STARTCHAR kcommaaccent
ENCODING 311
SWIDTH 444 0
DWIDTH 11 0
BBX 11 24 0 -7
BITMAP
1C00
0C00
0C00
1800
1800
1800
33C0
3180
3200
6400
7C00
6C00
6600
C600
C320
C3C0
C180
0000
0C00
0C00
0C00
0400
0C00
1800
ENDCHAR
STARTCHAR kgreenlandic
ENCODING 312
SWIDTH 444 0
DWIDTH 11 0
BBX 11 11 0 0
BITMAP
33C0
3180
3200
6400
7C00
6C00
6600
C600
C320
C3C0
C180
ENDCHAR
STARTCHAR Lacute
ENCODING 313
SWIDTH 556 0
DWIDTH 14 0
BBX 14 23 -1 0
BITMAP
00C0
01C0
0380
0600
0400
0000
0FC0
0300
0300
0700
0600
0600
0E00
0C00
0C00
0C00
1C00
1800
1800
3804
300C
3018
FFF8
ENDCHAR
STARTCHAR lacute
ENCODING 314
SWIDTH 278 0
DWIDTH 6 0
BBX 8 23 0 0
BITMAP
03
07
0E
18
10
00
1C
0C
0C
18
18
18
30
30
30
70
60
60
60
C0
C8
D0
60
ENDCHAR
STARTCHAR Lcommaaccent
ENCODING 315
SWIDTH 556 0
DWIDTH 14 0
BBX 14 24 -1 -7
BITMAP
0FC0
0300
0300
0700
0600
0600
0E00
0C00
0C00
0C00
1C00
1800
1800
3804
300C
3018
FFF8
0000
0300
0300
0300
0100
0300
0600
ENDCHAR
STARTCHAR lcommaaccent
ENCODING 316
SWIDTH 278 0
DWIDTH 6 0
BBX 6 24 0 -7
BITMAP
1C
0C
0C
18
18
18
30
30
30
70
60
60
60
C0
C8
D0
60
00
60
60
60
20
60
C0
ENDCHAR
STARTCHAR Lcaron
ENCODING 317
SWIDTH 861 0
DWIDTH 20 0
BBX 20 17 -1 0
BITMAP
0FC070
030070
030030
070020
060060
0600C0
0E0000
0C0000
0C0000
0C0000
1C0000
180000
180000
380400
300C00
301800
FFF800
ENDCHAR
STARTCHAR lcaron
ENCODING 318
SWIDTH 597 0
DWIDTH 13 0
BBX 12 17 0 0
BITMAP
1C70
0C70
0C30
1820
1860
18C0
3000
3000
3000
7000
6000
6000
6000
C000
C800
D000
6000
ENDCHAR
STARTCHAR Ldot
ENCODING 319
SWIDTH 778 0
DWIDTH 19 0
BBX 18 17 -1 0
BITMAP
0FC000
030000
030000
070000
060000
060000
0E0000
0C0000
0C0000
0C00C0
1C00C0
180000
180000
380400
300C00
301800
FFF800
ENDCHAR
STARTCHAR ldot
ENCODING 320
SWIDTH 514 0
DWIDTH 12 0
BBX 10 17 0 0
BITMAP
1C00
0C00
0C00
1800
1800
1800
3000
3000
3000
70C0
60C0
6000
6000
C000
C800
D000
6000
ENDCHAR
STARTCHAR Lslash
ENCODING 321
SWIDTH 556 0
DWIDTH 14 0
BBX 14 17 -1 0
BITMAP
0FC0
0300
0300
0700
0600
06C0
0F00
3C00
4C00
0C00
1C00
1800
1800
3804
300C
3018
FFF8
ENDCHAR
STARTCHAR lslash
ENCODING 322
SWIDTH 278 0
DWIDTH 6 0
BBX 8 17 -1 0
BITMAP
0E
06
06
0C
0C
0D
1E
78
98
38
30
30
30
70
64
68
30
ENDCHAR
STARTCHAR Nacute
ENCODING 323
SWIDTH 667 0
DWIDTH 16 0
BBX 19 23 -1 0
BITMAP
000C00
001C00
003800
006000
004000
000000
1F03E0
0700C0
070180
058180
0D8100
0D8100
08C300
08C200
18E200
186600
107600
303400
303400
203C00
201C00
601800
F80800
ENDCHAR
STARTCHAR nacute
ENCODING 324
SWIDTH 500 0
DWIDTH 13 0
BBX 11 17 0 0
BITMAP
00C0
01C0
0380
0600
0400
0000
38C0
1BE0
1C60
3860
3060
70C0
60C0
60C0
C180
C1A0
C1C0
ENDCHAR
STARTCHAR Ncommaaccent
ENCODING 325
SWIDTH 667 0
DWIDTH 16 0
BBX 19 24 -1 -7
BITMAP
1F03E0
0700C0
070180
058180
0D8100
0D8100
08C300
08C200
18E200
186600
107600
303400
303400
203C00
201C00
601800
F80800
000000
018000
018000
018000
008000
018000
030000
ENDCHAR
STARTCHAR ncommaaccent
ENCODING 326
SWIDTH 500 0
DWIDTH 13 0
BBX 11 18 0 -7
BITMAP
38C0
1BE0
1C60
3860
3060
70C0
60C0
60C0
C180
C1A0
C1C0
0000
0600
0600
0600
0200
0600
0C00
ENDCHAR
STARTCHAR Ncaron
ENCODING 327
SWIDTH 667 0
DWIDTH 16 0
BBX 19 22 -1 0
BITMAP
010400
019800
00F000
00E000
000000
1F03E0
0700C0
070180
058180
0D8100
0D8100
08C300
08C200
18E200
186600
107600
303400
303400
203C00
201C00
601800
F80800
ENDCHAR
STARTCHAR ncaron
ENCODING 328
SWIDTH 500 0
DWIDTH 13 0
BBX 11 16 0 0
BITMAP
1040
1980
0F00
0E00
0000
38C0
1BE0
1C60
3860
3060
70C0
60C0
60C0
C180
C1A0
C1C0
ENDCHAR
STARTCHAR napostrophe
ENCODING 329
SWIDTH 816 0
DWIDTH 20 0
BBX 16 17 2 0
BITMAP
7000
7000
3000
2000
6000
C000
01C6
00DF
00E3
01C3
0183
0386
0306
0306
060C
060D
060E
ENDCHAR
STARTCHAR Eng
ENCODING 330
SWIDTH 667 0
DWIDTH 16 0
BBX 19 22 -1 -5
BITMAP
1F03E0
0700C0
070180
058180
0D8100
0D8100
08C300
08C200
18E200
186600
107600
303400
303C00
203C00
201C00
601800
F83800
003000
003000
032000
036000
01C000
ENDCHAR
STARTCHAR eng
ENCODING 331
SWIDTH 500 0
DWIDTH 13 0
BBX 11 16 0 -5
BITMAP
38C0
1BE0
1C60
3860
3060
70C0
61C0
6180
C180
C180
C300
0300
0300
3200
3600
1C00
ENDCHAR
STARTCHAR Omacron
ENCODING 332
SWIDTH 722 0
DWIDTH 18 0
BBX 16 20 1 0
BITMAP
03F0
03F0
0000
00F0
079C
060E
1C06
1807
3807
3007
7006
6006
600E
E00C
E01C
E018
6038
7060
39E0
0F80
ENDCHAR
STARTCHAR omacron
ENCODING 333
SWIDTH 500 0
DWIDTH 12 0
BBX 11 14 0 0
BITMAP
1F80
1F80
0000
0780
1CC0
3860
7060
6060
E0E0
C0C0
C1C0
C180
6700
3C00
ENDCHAR
STARTCHAR Obreve
ENCODING 334
SWIDTH 722 0
DWIDTH 18 0
BBX 16 22 1 0
BITMAP
0208
0318
03F0
01E0
0000
00F0
079C
060E
1C06
1807
3807
3007
7006
6006
600E
E00C
E01C
E018
6038
7060
39E0
0F80
ENDCHAR
STARTCHAR obreve
ENCODING 335
SWIDTH 500 0
DWIDTH 12 0
BBX 11 16 0 0
BITMAP
1040
18C0
1F80
0F00
0000
0780
1CC0
3860
7060
6060
E0E0
C0C0
C1C0
C180
6700
3C00
ENDCHAR
STARTCHAR Ohungarumlaut
ENCODING 336
SWIDTH 722 0
DWIDTH 18 0
BBX 16 24 1 0
BITMAP
00D8
00D8
0090
01B0
0120
0120
0000
00F0
079C
060E
1C06
1807
3807
3007
7006
6006
600E
E00C
E01C
E018
6038
7060
39E0
0F80
ENDCHAR
STARTCHAR ohungarumlaut
ENCODING 337
SWIDTH 500 0
DWIDTH 12 0
BBX 11 18 0 0
BITMAP
06C0
06C0
0480
0D80
0900
0900
0000
0780
1CC0
3860
7060
6060
E0E0
C0C0
C1C0
C180
6700
3C00
ENDCHAR
STARTCHAR OE
ENCODING 338
SWIDTH 944 0
DWIDTH 24 0
BBX 22 17 1 0
BITMAP
00FFFC
078F0C
060604
1C0E04
180C00
380C20
301C20
701860
601FE0
601840
E03840
E03000
E03000
607010
706030
38E060
0FFFE0
ENDCHAR
STARTCHAR oe
ENCODING 339
SWIDTH 667 0
DWIDTH 16 0
BBX 15 11 0 0
BITMAP
0E1C
3B76
31C6
618C
61B8
C1E0
C180
C380
C384
6ECC
3CF0
ENDCHAR
STARTCHAR Racute
ENCODING 340
SWIDTH 611 0
DWIDTH 15 0
BBX 15 23 -1 0
BITMAP
0018
0038
0070
00C0
0080
0000
0FF0
031C
030C
060E
060E
060C
0C1C
0C38
0FE0
0980
18C0
18C0
1860
3070
3030
3038
FC1E
ENDCHAR
STARTCHAR racute
ENCODING 341
SWIDTH 389 0
DWIDTH 9 0
BBX 9 17 0 0
BITMAP
0180
0380
0700
0C00
0800
0000
3980
1B80
1D80
3800
3000
7000
6000
6000
C000
C000
C000
ENDCHAR
STARTCHAR Rcommaaccent
ENCODING 342
SWIDTH 611 0
DWIDTH 15 0
BBX 15 24 -1 -7
BITMAP
0FF0
031C
030C
060E
060E
060C
0C1C
0C38
0FE0
0980
18C0
18C0
1860
3070
3030
3038
FC1E
0000
0180
0180
0180
0080
0180
0300
ENDCHAR
STARTCHAR rcommaaccent
ENCODING 343
SWIDTH 389 0
DWIDTH 9 0
BBX 9 18 0 -7
BITMAP
3980
1B80
1D80
3800
3000
7000
6000
6000
C000
C000
C000
0000
6000
6000
6000
2000
6000
C000
ENDCHAR
STARTCHAR Rcaron
ENCODING 344
SWIDTH 611 0
DWIDTH 15 0
BBX 15 22 -1 0
BITMAP
0208
0330
01E0
01C0
0000
0FF0
031C
030C
060E
060E
060C
0C1C
0C38
0FE0
0980
18C0
18C0
1860
3070
3030
3038
FC1E
ENDCHAR
STARTCHAR rcaron
ENCODING 345
SWIDTH 389 0
DWIDTH 9 0
BBX 9 16 0 0
BITMAP
2080
3300
1E00
1C00
0000
3980
1B80
1D80
3800
3000
7000
6000
6000
C000
C000
C000
ENDCHAR
STARTCHAR Sacute
ENCODING 346
SWIDTH 500 0
DWIDTH 12 0
BBX 12 23 0 0
BITMAP
0060
00E0
01C0
0300
0200
0000
07D0
0C70
1830
1820
1820
1C00
0E00
0F00
0780
0380
01C0
01C0
40C0
40C0
C0C0
E180
BF00
ENDCHAR
STARTCHAR sacute
ENCODING 347
SWIDTH 389 0
DWIDTH 9 0
BBX 8 17 0 0
BITMAP
03
07
0E
18
10
00
1F
33
31
38
38
1C
0E
86
86
CC
F8
ENDCHAR
STARTCHAR Scircumflex
ENCODING 348
SWIDTH 500 0
DWIDTH 12 0
BBX 12 22 0 0
BITMAP
0380
0780
0CC0
1040
0000
07D0
0C70
1830
1820
1820
1C00
0E00
0F00
0780
0380
01C0
01C0
40C0
40C0
C0C0
E180
BF00
ENDCHAR
STARTCHAR scircumflex
ENCODING 349
SWIDTH 389 0
DWIDTH 9 0
BBX 8 16 0 0
BITMAP
0E
1E
33
41
00
1F
33
31
38
38
1C
0E
86
86
CC
F8
ENDCHAR
STARTCHAR Scedilla
ENCODING 350
SWIDTH 500 0
DWIDTH 12 0
BBX 12 22 0 -5
BITMAP
07D0
0C70
1830
1820
1820
1C00
0E00
0F00
0780
0380
01C0
01C0
40C0
40C0
C0C0
E180
BF00
0800
0E00
0300
2300
1E00
ENDCHAR
STARTCHAR scedilla
ENCODING 351
SWIDTH 389 0
DWIDTH 9 0
BBX 8 16 0 -5
BITMAP
1F
33
31
38
38
1C
0E
86
86
CC
F8
20
38
0C
8C
78
ENDCHAR
STARTCHAR Scaron
ENCODING 352
SWIDTH 500 0
DWIDTH 12 0
BBX 13 22 0 0
BITMAP
0208
0330
01E0
01C0
0000
07D0
0C70
1830
1820
1820
1C00
0E00
0F00
0780
0380
01C0
01C0
40C0
40C0
C0C0
E180
BF00
ENDCHAR
STARTCHAR scaron
ENCODING 353
SWIDTH 389 0
DWIDTH 9 0
BBX 10 16 0 0
BITMAP
1040
1980
0F00
0E00
0000
1F00
3300
3100
3800
3800
1C00
0E00
8600
8600
CC00
F800
ENDCHAR
STARTCHAR Tcommaaccent
ENCODING 354
SWIDTH 556 0
DWIDTH 14 0
BBX 14 22 2 -5
BITMAP
FFFC
C30C
8308
8708
0600
0600
0E00
0C00
0C00
0C00
1C00
1800
1800
3800
3000
3000
FC00
1000
1C00
0600
4600
3C00
ENDCHAR
STARTCHAR tcommaaccent
ENCODING 355
SWIDTH 278 0
DWIDTH 7 0
BBX 8 19 -1 -5
BITMAP
04
0C
1C
3F
18
18
38
30
30
30
70
62
6C
30
20
38
0C
8C
78
ENDCHAR
STARTCHAR Tcaron
ENCODING 356
SWIDTH 556 0
DWIDTH 14 0
BBX 14 22 2 0
BITMAP
0820
0CC0
0780
0700
0000
FFFC
C30C
8308
8708
0600
0600
0E00
0C00
0C00
0C00
1C00
1800
1800
3800
3000
3000
FC00
ENDCHAR
STARTCHAR tcaron
ENCODING 357
SWIDTH 597 0
DWIDTH 14 0
BBX 13 17 0 0
BITMAP
0038
0038
0018
0810
1830
3860
7E00
3000
3000
7000
6000
6000
6000
E000
C400
D800
6000
ENDCHAR
STARTCHAR Tbar
ENCODING 358
SWIDTH 556 0
DWIDTH 14 0
BBX 14 17 2 0
BITMAP
FFFC
C30C
8308
8708
0600
0600
0E00
3FF0
3FF0
0C00
1C00
1800
1800
3800
3000
3000
FC00
ENDCHAR
STARTCHAR tbar
ENCODING 359
SWIDTH 278 0
DWIDTH 7 0
BBX 10 14 -1 0
BITMAP
0400
0C00
1C00
3F00
1800
1800
3800
3000
FFC0
FFC0
7000
6200
6C00
3000
ENDCHAR
STARTCHAR Utilde
ENCODING 360
SWIDTH 722 0
DWIDTH 18 0
BBX 17 21 2 0
BITMAP
038800
07F000
08E000
000000
7E1F80
180600
180600
380400
300400
300C00
700C00
600800
601800
601800
C01000
C01000
C03000
C02000
E06000
79C000
3F0000
ENDCHAR
STARTCHAR utilde
ENCODING 361
SWIDTH 500 0
DWIDTH 12 0
BBX 11 15 0 0
BITMAP
0E20
1FC0
2380
0000
7860
3060
3060
60C0
60C0
61C0
C180
C380
C700
FB00
6380
ENDCHAR
STARTCHAR Umacron
ENCODING 362
SWIDTH 722 0
DWIDTH 18 0
BBX 17 20 2 0
BITMAP
07E000
07E000
000000
7E1F80
180600
180600
380400
300400
300C00
700C00
600800
601800
601800
C01000
C01000
C03000
C02000
E06000
79C000
3F0000
ENDCHAR
STARTCHAR umacron
ENCODING 363
SWIDTH 500 0
DWIDTH 12 0
BBX 11 14 0 0
BITMAP
1F80
1F80
0000
7860
3060
3060
60C0
60C0
61C0
C180
C380
C700
FB00
6380
ENDCHAR
STARTCHAR Ubreve
ENCODING 364
SWIDTH 722 0
DWIDTH 18 0
BBX 17 22 2 0
BITMAP
041000
063000
07E000
03C000
000000
7E1F80
180600
180600
380400
300400
300C00
700C00
600800
601800
601800
C01000
C01000
C03000
C02000
E06000
79C000
3F0000
ENDCHAR
STARTCHAR ubreve
ENCODING 365
SWIDTH 500 0
DWIDTH 12 0
BBX 11 16 0 0
BITMAP
1040
18C0
1F80
0F00
0000
7860
3060
3060
60C0
60C0
61C0
C180
C380
C700
FB00
6380
ENDCHAR
STARTCHAR Uring
ENCODING 366
SWIDTH 722 0
DWIDTH 18 0
BBX 17 23 2 0
BITMAP
01C000
036000
022000
036000
01C000
000000
7E1F80
180600
180600
380400
300400
300C00
700C00
600800
601800
601800
C01000
C01000
C03000
C02000
E06000
79C000
3F0000
ENDCHAR
STARTCHAR uring
ENCODING 367
SWIDTH 500 0
DWIDTH 12 0
BBX 11 17 0 0
BITMAP
0E00
1B00
1100
1B00
0E00
0000
7860
3060
3060
60C0
60C0
61C0
C180
C380
C700
FB00
6380
ENDCHAR
STARTCHAR Uhungarumlaut
ENCODING 368
SWIDTH 722 0
DWIDTH 18 0
BBX 17 24 2 0
BITMAP
01B000
01B000
012000
036000
024000
024000
000000
7E1F80
180600
180600
380400
300400
300C00
700C00
600800
601800
601800
C01000
C01000
C03000
C02000
E06000
79C000
3F0000
ENDCHAR
STARTCHAR uhungarumlaut
ENCODING 369
SWIDTH 500 0
DWIDTH 12 0
BBX 11 18 0 0
BITMAP
06C0
06C0
0480
0D80
0900
0900
0000
7860
3060
3060
60C0
60C0
61C0
C180
C380
C700
FB00
6380
ENDCHAR
STARTCHAR Uogonek
ENCODING 370
SWIDTH 722 0
DWIDTH 18 0
BBX 17 22 2 -5
BITMAP
7E1F80
180600
180600
380400
300400
300C00
700C00
600800
601800
601800
C01000
C01000
C03000
C02000
E06000
79C000
3F0000
060000
0C0000
0C0000
0FC000
070000
ENDCHAR
STARTCHAR uogonek
ENCODING 371
SWIDTH 500 0
DWIDTH 12 0
BBX 11 16 0 -5
BITMAP
7860
3060
3060
60C0
60C0
61C0
C180
C380
C700
FB00
6380
0C00
1800
1800
1F80
0E00
ENDCHAR
STARTCHAR Wcircumflex
ENCODING 372
SWIDTH 833 0
DWIDTH 21 0
BBX 21 22 1 0
BITMAP
007000
00F000
019800
020800
000000
F9F8F8
306060
306040
3060C0
30E080
30E180
31E100
316300
336200
326600
366400
3C6C00
386800
387000
307000
306000
204000
ENDCHAR
STARTCHAR wcircumflex
ENCODING 373
SWIDTH 667 0
DWIDTH 17 0
BBX 16 16 0 0
BITMAP
00E0
01E0
0330
0410
0000
F0C7
30C3
30C3
30C2
31C6
19C4
1AC8
1ED8
1CF0
18E0
10C0
ENDCHAR
STARTCHAR Ycircumflex
ENCODING 374
SWIDTH 556 0
DWIDTH 14 0
BBX 14 22 2 0
BITMAP
0380
0780
0CC0
1040
0000
FC7C
7038
3030
3060
18C0
1980
1B00
0E00
0C00
0C00
1800
1800
1800
3000
3000
3000
FC00
ENDCHAR
STARTCHAR ycircumflex
ENCODING 375
SWIDTH 444 0
DWIDTH 11 0
BBX 12 21 -1 -5
BITMAP
0380
0780
0CC0
1040
0000
7870
1830
1830
1860
0C40
0CC0
0C80
0D80
0700
0600
0600
0C00
0800
1800
D000
E000
ENDCHAR
STARTCHAR Ydieresis
ENCODING 376
SWIDTH 556 0
DWIDTH 14 0
BBX 14 21 2 0
BITMAP
0660
0660
0000
0000
FC7C
7038
3030
3060
18C0
1980
1B00
0E00
0C00
0C00
1800
1800
1800
3000
3000
3000
FC00
ENDCHAR
STARTCHAR Zacute
ENCODING 377
SWIDTH 556 0
DWIDTH 14 0
BBX 16 23 -1 0
BITMAP
0018
0038
0070
00C0
0080
0000
1FFF
180E
300C
2018
0038
0070
00E0
00C0
0180
0300
0700
0E00
0C02
1806
380C
703C
FFF8
ENDCHAR
STARTCHAR zacute
ENCODING 378
SWIDTH 389 0
DWIDTH 10 0
BBX 9 17 0 0
BITMAP
0180
0380
0700
0C00
0800
0000
3F80
7F80
4180
0300
0600
0C00
1800
3000
6100
FF00
FE00
ENDCHAR
STARTCHAR Zdotaccent
ENCODING 379
SWIDTH 556 0
DWIDTH 14 0
BBX 16 20 -1 0
BITMAP
00C0
00C0
0000
1FFF
180E
300C
2018
0038
0070
00E0
00C0
0180
0300
0700
0E00
0C02
1806
380C
703C
FFF8
ENDCHAR
STARTCHAR zdotaccent
ENCODING 380
SWIDTH 389 0
DWIDTH 10 0
BBX 9 14 0 0
BITMAP
0C00
0C00
0000
3F80
7F80
4180
0300
0600
0C00
1800
3000
6100
FF00
FE00
ENDCHAR
STARTCHAR Zcaron
ENCODING 381
SWIDTH 556 0
DWIDTH 14 0
BBX 16 22 -1 0
BITMAP
0104
0198
00F0
00E0
0000
1FFF
180E
300C
2018
0038
0070
00E0
00C0
0180
0300
0700
0E00
0C02
1806
380C
703C
FFF8
ENDCHAR
STARTCHAR zcaron
ENCODING 382
SWIDTH 389 0
DWIDTH 10 0
BBX 10 16 0 0
BITMAP
1040
1980
0F00
0E00
0000
3F80
7F80
4180
0300
0600
0C00
1800
3000
6100
FF00
FE00
ENDCHAR
STARTCHAR uni0186
ENCODING 390
SWIDTH 667 0
DWIDTH 16 0
BBX 16 17 1 0
BITMAP
03F0
0E1C
180E
3006
0007
0007
0007
0007
0006
000E
000C
000C
4018
4038
6060
F0E0
9F00
ENDCHAR
STARTCHAR uni0189
ENCODING 393
SWIDTH 722 0
DWIDTH 18 0
BBX 18 17 -1 0
BITMAP
0FFC00
030F00
030380
070180
0601C0
0601C0
0E01C0
0C0180
7F8180
0C0380
1C0300
180700
180600
380E00
301800
307000
FFC000
ENDCHAR
STARTCHAR uni018E
ENCODING 398
SWIDTH 611 0
DWIDTH 15 0
BBX 16 17 -1 0
BITMAP
3FFF
300C
600C
401C
0018
0818
0838
0C30
0FF0
1830
1070
1060
0060
80E0
80C0
C0C0
FFF0
ENDCHAR
STARTCHAR florin
ENCODING 402
SWIDTH 500 0
DWIDTH 13 0
BBX 12 22 0 -5
BITMAP
00E0
01B0
0330
0300
0700
0600
3FC0
0600
0600
0600
0600
0E00
0C00
0C00
0C00
0C00
0C00
0C00
0800
D800
D000
E000
ENDCHAR
STARTCHAR uni0197
ENCODING 407
SWIDTH 333 0
DWIDTH 8 0
BBX 10 17 -1 0
BITMAP
0FC0
0300
0300
0700
0600
0600
0E00
FFC0
FFC0
0C00
1C00
1800
1800
3800
3000
3000
FC00
ENDCHAR
STARTCHAR uni019A
ENCODING 410
SWIDTH 278 0
DWIDTH 6 0
BBX 10 17 -2 0
BITMAP
0700
0300
0300
0600
0600
0600
0C00
FFC0
FFC0
1C00
1800
1800
1800
3000
3200
3400
1800
ENDCHAR
STARTCHAR uni019D
ENCODING 413
SWIDTH 667 0
DWIDTH 16 0
BBX 22 22 -4 -5
BITMAP
03E07C
00E018
00E030
00B030
01B020
01B020
011860
011840
031C40
030CC0
020EC0
060680
070680
060780
060380
060300
0C0100
0C0000
0C0000
C80000
D80000
700000
ENDCHAR
STARTCHAR uni019F
ENCODING 415
SWIDTH 722 0
DWIDTH 18 0
BBX 16 17 1 0
BITMAP
00F0
079C
060E
1C06
1807
3807
3007
FFFF
FFFF
600E
E00C
E01C
E018
6038
7060
39E0
0F80
ENDCHAR
STARTCHAR Ohorn
ENCODING 416
SWIDTH 722 0
DWIDTH 18 0
BBX 19 17 1 0
BITMAP
00F0E0
079CE0
060E60
1C0640
1807C0
380780
300700
700600
600600
600E00
E00C00
E01C00
E01800
603800
706000
39E000
0F8000
ENDCHAR
STARTCHAR ohorn
ENCODING 417
SWIDTH 500 0
DWIDTH 12 0
BBX 14 11 0 0
BITMAP
079C
1CDC
386C
7068
6078
E0F0
C0C0
C1C0
C180
6700
3C00
ENDCHAR
STARTCHAR Uhorn
ENCODING 431
SWIDTH 722 0
DWIDTH 18 0
BBX 19 17 2 0
BITMAP
7E1FE0
1806E0
180660
380440
3004C0
300D80
700C00
600800
601800
601800
C01000
C01000
C03000
C02000
E06000
79C000
3F0000
ENDCHAR
STARTCHAR uhorn
ENCODING 432
SWIDTH 500 0
DWIDTH 12 0
BBX 14 11 0 0
BITMAP
787C
307C
306C
60C8
60D8
61F0
C180
C380
C700
FB00
6380
ENDCHAR
STARTCHAR uni01B5
ENCODING 437
SWIDTH 556 0
DWIDTH 14 0
BBX 16 17 -1 0
BITMAP
1FFF
180E
300C
2018
0038
0070
00E0
1FF8
1FF8
0300
0700
0E00
0C02
1806
380C
703C
FFF8
ENDCHAR
STARTCHAR uni01B6
ENCODING 438
SWIDTH 389 0
DWIDTH 10 0
BBX 10 11 0 0
BITMAP
3F80
7F80
4180
0300
FFC0
FFC0
1800
3000
6100
FF00
FE00
ENDCHAR
STARTCHAR uni01BB
ENCODING 443
SWIDTH 500 0
DWIDTH 12 0
BBX 11 17 0 0
BITMAP
0780
1FC0
30E0
3060
0060
0060
00E0
FFE0
FFE0
0300
0600
0C00
1800
3020
6060
FFC0
FF80
ENDCHAR
STARTCHAR uni01BC
ENCODING 444
SWIDTH 500 0
DWIDTH 12 0
BBX 12 17 0 0
BITMAP
07F0
0FE0
0800
1800
1C00
3F00
0F80
0380
01C0
00C0
00C0
00C0
00C0
0180
C180
E700
FC00
ENDCHAR
STARTCHAR uni01C0
ENCODING 448
SWIDTH 275 0
DWIDTH 6 0
BBX 6 22 0 -5
BITMAP
04
04
04
0C
08
08
08
18
10
10
10
30
20
20
60
40
40
40
C0
80
80
80
ENDCHAR
STARTCHAR uni01C2
ENCODING 450
SWIDTH 675 0
DWIDTH 17 0
BBX 13 22 2 -4
BITMAP
0040
0040
0040
00C0
0080
0080
0080
0180
FFF8
FFF8
0100
0300
FFF8
FFF8
0600
0400
0400
0400
0C00
0800
0800
0800
ENDCHAR
STARTCHAR uni01C3
ENCODING 451
SWIDTH 333 0
DWIDTH 8 0
BBX 7 17 1 0
BITMAP
06
06
0E
0C
0C
18
18
18
10
30
20
20
00
00
C0
C0
C0
ENDCHAR
STARTCHAR uni01CD
ENCODING 461
SWIDTH 611 0
DWIDTH 15 0
BBX 16 23 -2 0
BITMAP
0082
00CC
0078
0070
0000
000C
001C
001C
002C
006C
004C
00CC
018C
010C
030C
060C
07FC
0C0C
080C
180C
300C
700C
F83F
ENDCHAR
STARTCHAR uni01CE
ENCODING 462
SWIDTH 500 0
DWIDTH 13 0
BBX 12 16 0 0
BITMAP
0820
0CC0
0780
0700
0000
03B0
0E70
1860
3060
60C0
60C0
C0C0
C380
C580
F9A0
71C0
ENDCHAR
STARTCHAR uni01CF
ENCODING 463
SWIDTH 333 0
DWIDTH 8 0
BBX 10 22 -1 0
BITMAP
1040
1980
0F00
0E00
0000
0FC0
0300
0300
0700
0600
0600
0E00
0C00
0C00
0C00
1C00
1800
1800
3800
3000
3000
FC00
ENDCHAR
STARTCHAR uni01D0
ENCODING 464
SWIDTH 278 0
DWIDTH 7 0
BBX 7 16 0 0
BITMAP
82
CC
78
70
00
38
18
18
30
30
70
60
60
C0
C8
70
ENDCHAR
STARTCHAR uni01D1
ENCODING 465
SWIDTH 722 0
DWIDTH 18 0
BBX 16 22 1 0
BITMAP
0208
0330
01E0
01C0
0000
00F0
079C
060E
1C06
1807
3807
3007
7006
6006
600E
E00C
E01C
E018
6038
7060
39E0
0F80
ENDCHAR
STARTCHAR uni01D2
ENCODING 466
SWIDTH 500 0
DWIDTH 12 0
BBX 11 16 0 0
BITMAP
1040
1980
0F00
0E00
0000
0780
1CC0
3860
7060
6060
E0E0
C0C0
C1C0
C180
6700
3C00
ENDCHAR
STARTCHAR uni01D3
ENCODING 467
SWIDTH 722 0
DWIDTH 18 0
BBX 17 22 2 0
BITMAP
041000
066000
03C000
038000
000000
7E1F80
180600
180600
380400
300400
300C00
700C00
600800
601800
601800
C01000
C01000
C03000
C02000
E06000
79C000
3F0000
ENDCHAR
STARTCHAR uni01D4
ENCODING 468
SWIDTH 500 0
DWIDTH 12 0
BBX 11 16 0 0
BITMAP
1040
1980
0F00
0E00
0000
7860
3060
3060
60C0
60C0
61C0
C180
C380
C700
FB00
6380
ENDCHAR
STARTCHAR uni01D5
ENCODING 469
SWIDTH 722 0
DWIDTH 18 0
BBX 17 24 2 0
BITMAP
03F000
03F000
000000
031800
031800
000000
000000
7E1F80
180600
180600
380400
300400
300C00
700C00
600800
601800
601800
C01000
C01000
C03000
C02000
E06000
79C000
3F0000
ENDCHAR
STARTCHAR uni01D6
ENCODING 470
SWIDTH 500 0
DWIDTH 12 0
BBX 11 18 0 0
BITMAP
0FC0
0FC0
0000
0CC0
0CC0
0000
0000
7860
3060
3060
60C0
60C0
61C0
C180
C380
C700
FB00
6380
ENDCHAR
STARTCHAR uni01D7
ENCODING 471
SWIDTH 722 0
DWIDTH 18 0
BBX 17 27 2 0
BITMAP
001800
003800
007000
00C000
008000
000000
031800
031800
000000
000000
7E1F80
180600
180600
380400
300400
300C00
700C00
600800
601800
601800
C01000
C01000
C03000
C02000
E06000
79C000
3F0000
ENDCHAR
STARTCHAR uni01D8
ENCODING 472
SWIDTH 500 0
DWIDTH 12 0
BBX 11 21 0 0
BITMAP
00C0
01C0
0380
0600
0400
0000
0CC0
0CC0
0000
0000
7860
3060
3060
60C0
60C0
61C0
C180
C380
C700
FB00
6380
ENDCHAR
STARTCHAR uni01D9
ENCODING 473
SWIDTH 722 0
DWIDTH 18 0
BBX 17 26 2 0
BITMAP
020800
033000
01E000
01C000
000000
031800
031800
000000
000000
7E1F80
180600
180600
380400
300400
300C00
700C00
600800
601800
601800
C01000
C01000
C03000
C02000
E06000
79C000
3F0000
ENDCHAR
STARTCHAR uni01DA
ENCODING 474
SWIDTH 500 0
DWIDTH 12 0
BBX 11 20 0 0
BITMAP
1040
1980
0F00
0E00
0000
0CC0
0CC0
0000
0000
7860
3060
3060
60C0
60C0
61C0
C180
C380
C700
FB00
6380
ENDCHAR
STARTCHAR uni01DB
ENCODING 475
SWIDTH 722 0
DWIDTH 18 0
BBX 17 27 2 0
BITMAP
030000
038000
01C000
00C000
002000
000000
031800
031800
000000
000000
7E1F80
180600
180600
380400
300400
300C00
700C00
600800
601800
601800
C01000
C01000
C03000
C02000
E06000
79C000
3F0000
ENDCHAR
STARTCHAR uni01DC
ENCODING 476
SWIDTH 500 0
DWIDTH 12 0
BBX 11 21 0 0
BITMAP
1800
1C00
0E00
0600
0100
0000
0CC0
0CC0
0000
0000
7860
3060
3060
60C0
60C0
61C0
C180
C380
C700
FB00
6380
ENDCHAR
STARTCHAR uni01DD
ENCODING 477
SWIDTH 444 0
DWIDTH 10 0
BBX 9 11 0 0
BITMAP
1F00
3380
6180
4180
0180
0F80
3300
6300
C600
DC00
7000
ENDCHAR
STARTCHAR uni01DE
ENCODING 478
SWIDTH 611 0
DWIDTH 15 0
BBX 17 24 -2 0
BITMAP
007E00
007E00
000000
003180
003180
000000
000C00
001C00
001C00
002C00
006C00
004C00
00CC00
018C00
010C00
030C00
060C00
07FC00
0C0C00
080C00
180C00
300C00
700C00
F83F00
ENDCHAR
STARTCHAR uni01DF
ENCODING 479
SWIDTH 500 0
DWIDTH 13 0
BBX 12 18 0 0
BITMAP
0FC0
0FC0
0000
0660
0660
0000
0000
03B0
0E70
1860
3060
60C0
60C0
C0C0
C380
C580
F9A0
71C0
ENDCHAR
STARTCHAR uni01E0
ENCODING 480
SWIDTH 611 0
DWIDTH 15 0
BBX 16 24 -2 0
BITMAP
00FC
00FC
0000
0030
0030
0000
000C
001C
001C
002C
006C
004C
00CC
018C
010C
030C
060C
07FC
0C0C
080C
180C
300C
700C
F83F
ENDCHAR
STARTCHAR uni01E1
ENCODING 481
SWIDTH 500 0
DWIDTH 13 0
BBX 12 17 0 0
BITMAP
0FC0
0FC0
0000
0300
0300
0000
03B0
0E70
1860
3060
60C0
60C0
C0C0
C380
C580
F9A0
71C0
ENDCHAR
STARTCHAR uni01E2
ENCODING 482
SWIDTH 889 0
DWIDTH 22 0
BBX 23 20 -1 0
BITMAP
001F80
001F80
000000
003FFE
001E06
003602
002602
006C00
00CC10
008C10
019830
031FE0
061860
07F820
0C3020
183000
107004
30600C
606018
F1FFF8
ENDCHAR
STARTCHAR uni01E3
ENCODING 483
SWIDTH 667 0
DWIDTH 16 0
BBX 15 14 0 0
BITMAP
03F0
03F0
0000
03DC
0FF6
18C6
318C
61B8
63E0
C300
C700
CF04
F9CC
70F0
ENDCHAR
STARTCHAR uni01E4
ENCODING 484
SWIDTH 722 0
DWIDTH 18 0
BBX 19 17 1 0
BITMAP
00F900
078F00
060600
1C0200
180200
380000
300000
700000
600000
603F80
E00600
E00600
E00C00
607FE0
707FE0
383C00
0FC000
ENDCHAR
STARTCHAR uni01E5
ENCODING 485
SWIDTH 500 0
DWIDTH 12 0
BBX 12 17 -1 -6
BITMAP
07F0
1CC0
1860
3060
30E0
30C0
1980
0E00
1800
1C00
3F00
67C0
FFF0
FFF0
C0C0
E380
3E00
ENDCHAR
STARTCHAR Gcaron
ENCODING 486
SWIDTH 722 0
DWIDTH 18 0
BBX 17 22 1 0
BITMAP
020800
033000
01E000
01C000
000000
00F900
078F00
060600
1C0200
180200
380000
300000
700000
600000
603F80
E00600
E00600
E00C00
600C00
700C00
383C00
0FC000
ENDCHAR
STARTCHAR gcaron
ENCODING 487
SWIDTH 500 0
DWIDTH 12 0
BBX 12 22 -1 -6
BITMAP
0820
0CC0
0780
0700
0000
07F0
1CC0
1860
3060
30E0
30C0
1980
0E00
1800
1C00
3F00
67C0
C1C0
80C0
C0C0
E380
3E00
ENDCHAR
STARTCHAR uni01E8
ENCODING 488
SWIDTH 667 0
DWIDTH 16 0
BBX 18 22 -1 0
BITMAP
010400
019800
00F000
00E000
000000
0FCFC0
030300
030600
060C00
063000
066000
0EC000
0F8000
0DC000
0CC000
1CE000
186000
187000
383000
303800
301C00
FCFF00
ENDCHAR
STARTCHAR uni01E9
ENCODING 489
SWIDTH 444 0
DWIDTH 11 0
BBX 11 22 0 0
BITMAP
2080
3300
1E00
1C00
0000
1C00
0C00
0C00
1800
1800
1800
33C0
3180
3200
6400
7C00
6C00
6600
C600
C320
C3C0
C180
ENDCHAR
STARTCHAR uni01EA
ENCODING 490
SWIDTH 722 0
DWIDTH 18 0
BBX 16 22 1 -5
BITMAP
00F0
079C
060E
1C06
1807
3807
3007
7006
6006
600E
E00C
E01C
E018
6038
7060
39E0
0F80
0300
0600
0600
07E0
0380
ENDCHAR
STARTCHAR uni01EB
ENCODING 491
SWIDTH 500 0
DWIDTH 12 0
BBX 11 16 0 -5
BITMAP
0780
1CC0
3860
7060
6060
E0E0
C0C0
C1C0
C180
6700
3C00
0C00
1800
1800
1F80
0E00
ENDCHAR
STARTCHAR uni01EC
ENCODING 492
SWIDTH 722 0
DWIDTH 18 0
BBX 16 25 1 -5
BITMAP
03F0
03F0
0000
00F0
079C
060E
1C06
1807
3807
3007
7006
6006
600E
E00C
E01C
E018
6038
7060
39E0
0F80
0300
0600
0600
07E0
0380
ENDCHAR
STARTCHAR uni01ED
ENCODING 493
SWIDTH 500 0
DWIDTH 12 0
BBX 11 19 0 -5
BITMAP
1F80
1F80
0000
0780
1CC0
3860
7060
6060
E0E0
C0C0
C1C0
C180
6700
3C00
0C00
1800
1800
1F80
0E00
ENDCHAR
STARTCHAR uni01F0
ENCODING 496
SWIDTH 278 0
DWIDTH 6 0
BBX 11 21 -4 -5
BITMAP
0820
0CC0
0780
0700
0000
0380
0180
0180
0300
0300
0300
0700
0600
0600
0600
0C00
0C00
0C00
C800
D800
7000
ENDCHAR
STARTCHAR uni01F4
ENCODING 500
SWIDTH 722 0
DWIDTH 18 0
BBX 17 23 1 0
BITMAP
001800
003800
007000
00C000
008000
000000
00F900
078F00
060600
1C0200
180200
380000
300000
700000
600000
603F80
E00600
E00600
E00C00
600C00
700C00
383C00
0FC000
ENDCHAR
STARTCHAR uni01F5
ENCODING 501
SWIDTH 500 0
DWIDTH 12 0
BBX 12 23 -1 -6
BITMAP
00C0
01C0
0380
0600
0400
0000
07F0
1CC0
1860
3060
30E0
30C0
1980
0E00
1800
1C00
3F00
67C0
C1C0
80C0
C0C0
E380
3E00
ENDCHAR
STARTCHAR uni01F8
ENCODING 504
SWIDTH 667 0
DWIDTH 16 0
BBX 19 23 -1 0
BITMAP
018000
01C000
00E000
006000
001000
000000
1F03E0
0700C0
070180
058180
0D8100
0D8100
08C300
08C200
18E200
186600
107600
303400
303400
203C00
201C00
601800
F80800
ENDCHAR
STARTCHAR uni01F9
ENCODING 505
SWIDTH 500 0
DWIDTH 13 0
BBX 11 17 0 0
BITMAP
1800
1C00
0E00
0600
0100
0000
38C0
1BE0
1C60
3860
3060
70C0
60C0
60C0
C180
C1A0
C1C0
ENDCHAR
STARTCHAR Aringacute
ENCODING 506
SWIDTH 611 0
DWIDTH 15 0
BBX 16 29 -2 0
BITMAP
0006
000E
001C
0030
0020
0000
000E
001B
0011
001B
000E
0000
000C
001C
002C
006C
004C
00CC
018C
010C
030C
060C
07FC
0C0C
080C
180C
300C
700C
F83F
ENDCHAR
STARTCHAR aringacute
ENCODING 507
SWIDTH 500 0
DWIDTH 13 0
BBX 12 23 0 0
BITMAP
0060
00E0
01C0
0300
0200
0000
01C0
0360
0220
0360
01C0
0000
03B0
0E70
1860
3060
6040
60C0
C0C0
C380
C580
F9A0
71C0
ENDCHAR
STARTCHAR AEacute
ENCODING 508
SWIDTH 889 0
DWIDTH 22 0
BBX 23 23 -1 0
BITMAP
0000C0
0001C0
000380
000600
000400
000000
003FFE
001E06
003602
002602
006C00
00CC10
008C10
019830
031FE0
061860
07F820
0C3020
183000
107004
30600C
606018
F1FFF8
ENDCHAR
STARTCHAR aeacute
ENCODING 509
SWIDTH 667 0
DWIDTH 16 0
BBX 15 17 0 0
BITMAP
0030
0070
00E0
0180
0100
0000
03DC
0FF6
18C6
318C
61B8
63E0
C300
C700
CF04
F9CC
70F0
ENDCHAR
STARTCHAR Oslashacute
ENCODING 510
SWIDTH 722 0
DWIDTH 18 0
BBX 16 25 1 -1
BITMAP
0018
0038
0070
00C0
0080
0000
0006
00FC
079C
061E
1C36
1827
3867
30C7
7086
6186
630E
E30C
E61C
EC18
6C38
7860
39E0
7F80
C000
ENDCHAR
STARTCHAR oslashacute
ENCODING 511
SWIDTH 500 0
DWIDTH 12 0
BBX 11 23 0 -3
BITMAP
00C0
01C0
0380
0600
0400
0000
0040
00C0
0080
0780
1DC0
3A60
7260
6460
E4E0
C8C0
C9C0
D180
7700
3C00
2000
6000
4000
ENDCHAR
STARTCHAR Scommaaccent
ENCODING 536
SWIDTH 500 0
DWIDTH 12 0
BBX 12 24 0 -7
BITMAP
07D0
0C70
1830
1820
1820
1C00
0E00
0F00
0780
0380
01C0
01C0
40C0
40C0
C0C0
E180
BF00
0000
0600
0600
0600
0200
0600
0C00
ENDCHAR
STARTCHAR scommaaccent
ENCODING 537
SWIDTH 389 0
DWIDTH 9 0
BBX 8 18 0 -7
BITMAP
1F
33
31
38
38
1C
0E
86
86
CC
F8
00
18
18
18
08
18
30
ENDCHAR
STARTCHAR Tcommaaccent
ENCODING 538
SWIDTH 556 0
DWIDTH 14 0
BBX 14 24 2 -7
BITMAP
FFFC
C30C
8308
8708
0600
0600
0E00
0C00
0C00
0C00
1C00
1800
1800
3800
3000
3000
FC00
0000
0C00
0C00
0C00
0400
0C00
1800
ENDCHAR
STARTCHAR tcommaaccent
ENCODING 539
SWIDTH 278 0
DWIDTH 7 0
BBX 7 21 0 -7
BITMAP
08
18
38
7E
30
30
70
60
60
60
E0
C4
D8
60
00
30
30
30
10
30
60
ENDCHAR
STARTCHAR uni021E
ENCODING 542
SWIDTH 722 0
DWIDTH 18 0
BBX 20 22 -1 0
BITMAP
008200
00CC00
007800
007000
000000
0FC3F0
0300C0
0300C0
0701C0
060180
060180
0E0380
0C0300
0FFF00
0C0300
1C0700
180600
180600
380E00
300C00
300C00
FC3F00
ENDCHAR
STARTCHAR uni021F
ENCODING 543
SWIDTH 500 0
DWIDTH 13 0
BBX 11 22 0 0
BITMAP
2080
3300
1E00
1C00
0000
1C00
0C00
0C00
1800
1800
1800
30C0
33E0
3460
7860
7060
70C0
60C0
E0C0
C180
C1A0
C1C0
ENDCHAR
STARTCHAR uni0226
ENCODING 550
SWIDTH 611 0
DWIDTH 15 0
BBX 16 21 -2 0
BITMAP
0030
0030
0000
000C
001C
001C
002C
006C
004C
00CC
018C
010C
030C
060C
07FC
0C0C
080C
180C
300C
700C
F83F
ENDCHAR
STARTCHAR uni0227
ENCODING 551
SWIDTH 500 0
DWIDTH 13 0
BBX 12 14 0 0
BITMAP
0300
0300
0000
03B0
0E70
1860
3060
60C0
60C0
C0C0
C380
C580
F9A0
71C0
ENDCHAR
STARTCHAR uni0228
ENCODING 552
SWIDTH 611 0
DWIDTH 15 0
BBX 16 22 -1 -5
BITMAP
0FFF
0303
0301
0701
0600
0608
0E08
0C18
0FF0
0C30
1C10
1810
1800
3802
3006
300C
FFFC
0200
0380
00C0
08C0
0780
ENDCHAR
STARTCHAR uni0229
ENCODING 553
SWIDTH 444 0
DWIDTH 10 0
BBX 9 16 0 -5
BITMAP
0700
1D80
3180
6300
6600
F800
C000
C100
C300
E600
7C00
1000
1C00
0600
4600
3C00
ENDCHAR
STARTCHAR uni022A
ENCODING 554
SWIDTH 722 0
DWIDTH 18 0
BBX 16 24 1 0
BITMAP
01F8
01F8
0000
00C6
00C6
0000
0000
00F0
079C
060E
1C06
1807
3807
3007
7006
6006
600E
E00C
E01C
E018
6038
7060
39E0
0F80
ENDCHAR
STARTCHAR uni022B
ENCODING 555
SWIDTH 500 0
DWIDTH 12 0
BBX 11 18 0 0
BITMAP
0FC0
0FC0
0000
0CC0
0CC0
0000
0000
0780
1CC0
3860
7060
6060
E0E0
C0C0
C1C0
C180
6700
3C00
ENDCHAR
STARTCHAR uni022C
ENCODING 556
SWIDTH 722 0
DWIDTH 18 0
BBX 16 25 1 0
BITMAP
01F8
01F8
0000
0071
00FE
011C
0000
0000
00F0
079C
060E
1C06
1807
3807
3007
7006
6006
600E
E00C
E01C
E018
6038
7060
39E0
0F80
ENDCHAR
STARTCHAR uni022D
ENCODING 557
SWIDTH 500 0
DWIDTH 12 0
BBX 12 19 0 0
BITMAP
0FC0
0FC0
0000
0710
0FE0
11C0
0000
0000
0780
1CC0
3860
7060
6060
E0E0
C0C0
C1C0
C180
6700
3C00
ENDCHAR
STARTCHAR uni022E
ENCODING 558
SWIDTH 722 0
DWIDTH 18 0
BBX 16 20 1 0
BITMAP
00C0
00C0
0000
00F0
079C
060E
1C06
1807
3807
3007
7006
6006
600E
E00C
E01C
E018
6038
7060
39E0
0F80
ENDCHAR
STARTCHAR uni022F
ENCODING 559
SWIDTH 500 0
DWIDTH 12 0
BBX 11 14 0 0
BITMAP
0600
0600
0000
0780
1CC0
3860
7060
6060
E0E0
C0C0
C1C0
C180
6700
3C00
ENDCHAR
STARTCHAR uni0230
ENCODING 560
SWIDTH 722 0
DWIDTH 18 0
BBX 16 23 1 0
BITMAP
03F0
03F0
0000
00C0
00C0
0000
00F0
079C
060E
1C06
1807
3807
3007
7006
6006
600E
E00C
E01C
E018
6038
7060
39E0
0F80
ENDCHAR
STARTCHAR uni0231
ENCODING 561
SWIDTH 500 0
DWIDTH 12 0
BBX 11 17 0 0
BITMAP
1F80
1F80
0000
0600
0600
0000
0780
1CC0
3860
7060
6060
E0E0
C0C0
C1C0
C180
6700
3C00
ENDCHAR
STARTCHAR uni0232
ENCODING 562
SWIDTH 556 0
DWIDTH 14 0
BBX 14 20 2 0
BITMAP
0FC0
0FC0
0000
FC7C
7038
3030
3060
18C0
1980
1B00
0E00
0C00
0C00
1800
1800
1800
3000
3000
3000
FC00
ENDCHAR
STARTCHAR uni0233
ENCODING 563
SWIDTH 444 0
DWIDTH 11 0
BBX 12 19 -1 -5
BITMAP
0FC0
0FC0
0000
7870
1830
1830
1860
0C40
0CC0
0C80
0D80
0700
0600
0600
0C00
0800
1800
D000
E000
ENDCHAR
STARTCHAR uni0250
ENCODING 592
SWIDTH 500 0
DWIDTH 13 0
BBX 12 11 0 0
BITMAP
38E0
59F0
1A30
1C30
3030
3060
3060
60C0
6180
E700
DC00
ENDCHAR
STARTCHAR uni0259
ENCODING 601
SWIDTH 444 0
DWIDTH 10 0
BBX 9 11 0 0
BITMAP
1F00
3380
6180
4180
0180
0F80
3300
6300
C600
DC00
7000
ENDCHAR
STARTCHAR uni025F
ENCODING 607
SWIDTH 278 0
DWIDTH 7 0
BBX 15 22 -5 -11
BITMAP
001C
0066
0066
0060
00C0
00C0
00C0
01C0
0180
0180
0180
0380
0300
0300
0300
3FC0
0600
0600
0600
CC00
CC00
7000
ENDCHAR
STARTCHAR uni0265
ENCODING 613
SWIDTH 500 0
DWIDTH 13 0
BBX 11 17 0 -6
BITMAP
7060
B060
3060
60E0
60C0
61C0
C1C0
C3C0
C580
F980
6180
0300
0300
0300
0600
0600
0700
ENDCHAR
STARTCHAR uni0275
ENCODING 629
SWIDTH 500 0
DWIDTH 12 0
BBX 11 11 0 0
BITMAP
0780
1CC0
3860
7060
FFE0
FFE0
C0C0
C1C0
C180
6700
3C00
ENDCHAR
STARTCHAR uni0279
ENCODING 633
SWIDTH 389 0
DWIDTH 9 0
BBX 9 11 0 0
BITMAP
0180
0180
0180
0300
0300
0700
0600
0E00
DC00
EC00
CE00
ENDCHAR
STARTCHAR uni0287
ENCODING 647
SWIDTH 278 0
DWIDTH 7 0
BBX 7 14 0 0
BITMAP
0C
36
46
0E
0C
0C
0C
1C
18
18
FC
38
30
20
ENDCHAR
STARTCHAR uni0289
ENCODING 649
SWIDTH 500 0
DWIDTH 12 0
BBX 11 11 0 0
BITMAP
7860
3060
3060
60C0
FFE0
FFE0
C180
C380
C700
FB00
6380
ENDCHAR
STARTCHAR uni028C
ENCODING 652
SWIDTH 444 0
DWIDTH 12 0
BBX 11 11 0 0
BITMAP
0100
0300
0700
0F00
1B00
3300
2180
6180
C180
C180
E1E0
ENDCHAR
STARTCHAR uni028D
ENCODING 653
SWIDTH 667 0
DWIDTH 17 0
BBX 16 11 0 0
BITMAP
0308
0718
0F38
1B78
1358
2398
638C
430C
C30C
C30C
E30F
ENDCHAR
STARTCHAR uni028E
ENCODING 654
SWIDTH 444 0
DWIDTH 11 0
BBX 12 16 -1 0
BITMAP
0070
00B0
0180
0100
0300
0600
0600
0E00
1B00
1300
3300
2300
6180
C180
C180
E1E0
ENDCHAR
STARTCHAR uni029E
ENCODING 670
SWIDTH 444 0
DWIDTH 11 0
BBX 11 17 0 -6
BITMAP
3060
7860
9860
0C60
0CC0
06C0
07C0
04C0
0980
3180
7980
0300
0300
0300
0600
0600
0700
ENDCHAR
STARTCHAR uni02BB
ENCODING 699
SWIDTH 333 0
DWIDTH 7 0
BBX 4 6 3 11
BITMAP
30
60
40
C0
E0
E0
ENDCHAR
STARTCHAR afii57929
ENCODING 700
SWIDTH 333 0
DWIDTH 7 0
BBX 4 6 2 11
BITMAP
70
70
30
20
60
C0
ENDCHAR
STARTCHAR afii64937
ENCODING 701
SWIDTH 333 0
DWIDTH 7 0
BBX 4 6 2 11
BITMAP
E0
E0
C0
40
60
30
ENDCHAR
STARTCHAR circumflex
ENCODING 710
SWIDTH 333 0
DWIDTH 8 0
BBX 7 4 2 12
BITMAP
1C
3C
66
82
ENDCHAR
STARTCHAR caron
ENCODING 711
SWIDTH 333 0
DWIDTH 8 0
BBX 7 4 4 12
BITMAP
82
CC
78
70
ENDCHAR
STARTCHAR uni02C8
ENCODING 712
SWIDTH 214 0
DWIDTH 5 0
BBX 2 5 3 12
BITMAP
C0
C0
C0
80
80
ENDCHAR
STARTCHAR macron
ENCODING 713
SWIDTH 333 0
DWIDTH 8 0
BBX 6 2 3 13
BITMAP
FC
FC
ENDCHAR
STARTCHAR uni02CA
ENCODING 714
SWIDTH 333 0
DWIDTH 8 0
BBX 5 5 4 12
BITMAP
18
38
70
C0
80
ENDCHAR
STARTCHAR uni02CB
ENCODING 715
SWIDTH 333 0
DWIDTH 8 0
BBX 5 5 4 12
BITMAP
C0
E0
70
30
08
ENDCHAR
STARTCHAR uni02CD
ENCODING 717
SWIDTH 333 0
DWIDTH 8 0
BBX 6 2 3 -3
BITMAP
FC
FC
ENDCHAR
STARTCHAR uni02CE
ENCODING 718
SWIDTH 333 0
DWIDTH 8 0
BBX 5 5 4 -6
BITMAP
C0
E0
70
30
08
ENDCHAR
STARTCHAR uni02CF
ENCODING 719
SWIDTH 333 0
DWIDTH 8 0
BBX 5 5 4 -6
BITMAP
18
38
70
C0
80
ENDCHAR
STARTCHAR breve
ENCODING 728
SWIDTH 333 0
DWIDTH 8 0
BBX 7 4 3 12
BITMAP
82
C6
FC
78
ENDCHAR
STARTCHAR dotaccent
ENCODING 729
SWIDTH 333 0
DWIDTH 8 0
BBX 2 2 4 13
BITMAP
C0
C0
ENDCHAR
STARTCHAR ring
ENCODING 730
SWIDTH 333 0
DWIDTH 8 0
BBX 5 5 3 12
BITMAP
70
D8
88
D8
70
ENDCHAR
STARTCHAR ogonek
ENCODING 731
SWIDTH 333 0
DWIDTH 8 0
BBX 6 5 1 -5
BITMAP
60
C0
C0
FC
70
ENDCHAR
STARTCHAR tilde
ENCODING 732
SWIDTH 333 0
DWIDTH 8 0
BBX 9 3 2 13
BITMAP
3880
7F00
8E00
ENDCHAR
STARTCHAR hungarumlaut
ENCODING 733
SWIDTH 333 0
DWIDTH 8 0
BBX 6 6 2 12
BITMAP
6C
6C
48
D8
90
90
ENDCHAR
STARTCHAR uni02EE
ENCODING 750
SWIDTH 556 0
DWIDTH 12 0
BBX 9 6 3 11
BITMAP
7380
7380
3180
2100
6300
C600
ENDCHAR
STARTCHAR uni037E
ENCODING 894
SWIDTH 333 0
DWIDTH 8 0
BBX 5 14 1 -3
BITMAP
18
18
18
00
00
00
00
00
60
60
60
20
60
C0
ENDCHAR
STARTCHAR tonos
ENCODING 900
SWIDTH 333 0
DWIDTH 8 0
BBX 5 5 4 12
BITMAP
18
38
70
C0
80
ENDCHAR
STARTCHAR dieresistonos
ENCODING 901
SWIDTH 333 0
DWIDTH 8 0
BBX 7 8 2 13
BITMAP
06
0E
1C
30
20
00
CC
CC
ENDCHAR
STARTCHAR anoteleia
ENCODING 903
SWIDTH 250 0
DWIDTH 6 0
BBX 2 2 2 6
BITMAP
C0
C0
ENDCHAR
STARTCHAR mu
ENCODING 956
SWIDTH 500 0
DWIDTH 12 0
BBX 13 16 -2 -5
BITMAP
1E18
0C18
0C18
1830
1830
1870
3060
30E0
31C0
7EC0
6CE0
6000
4000
C000
E000
4000
ENDCHAR
STARTCHAR uni1E00
ENCODING 7680
SWIDTH 611 0
DWIDTH 15 0
BBX 16 24 -2 -6
BITMAP
000C
001C
001C
002C
006C
004C
00CC
018C
010C
030C
060C
07FC
0C0C
080C
180C
300C
700C
F83F
0000
01C0
0360
0220
0360
01C0
ENDCHAR
STARTCHAR uni1E01
ENCODING 7681
SWIDTH 500 0
DWIDTH 13 0
BBX 12 17 0 -6
BITMAP
03B0
0E70
1860
3060
60C0
60C0
C0C0
C380
C580
F9A0
71C0
0000
0E00
1B00
1100
1B00
0E00
ENDCHAR
STARTCHAR uni1E02
ENCODING 7682
SWIDTH 611 0
DWIDTH 15 0
BBX 15 20 -1 0
BITMAP
00C0
00C0
0000
0FF0
031C
030C
070E
060E
060C
0E0C
0C38
0FE0
0C38
1C18
181C
181C
383C
3038
30F0
FFC0
ENDCHAR
STARTCHAR uni1E03
ENCODING 7683
SWIDTH 500 0
DWIDTH 12 0
BBX 11 20 0 0
BITMAP
0C00
0C00
0000
1C00
0C00
0C00
1800
1800
1800
31C0
33E0
3460
7860
6060
60C0
40C0
C180
C300
CE00
F800
ENDCHAR
STARTCHAR uni1E04
ENCODING 7684
SWIDTH 611 0
DWIDTH 15 0
BBX 15 20 -1 -3
BITMAP
0FF0
031C
030C
070E
060E
060C
0E0C
0C38
0FE0
0C38
1C18
181C
181C
383C
3038
30F0
FFC0
0000
0300
0300
ENDCHAR
STARTCHAR uni1E05
ENCODING 7685
SWIDTH 500 0
DWIDTH 12 0
BBX 11 20 0 -3
BITMAP
1C00
0C00
0C00
1800
1800
1800
31C0
33E0
3460
7860
6060
60C0
40C0
C180
C300
CE00
F800
0000
0C00
0C00
ENDCHAR
STARTCHAR uni1E06
ENCODING 7686
SWIDTH 611 0
DWIDTH 15 0
BBX 15 20 -1 -3
BITMAP
0FF0
031C
030C
070E
060E
060C
0E0C
0C38
0FE0
0C38
1C18
181C
181C
383C
3038
30F0
FFC0
0000
0FC0
0FC0
ENDCHAR
STARTCHAR uni1E07
ENCODING 7687
SWIDTH 500 0
DWIDTH 12 0
BBX 11 20 0 -3
BITMAP
1C00
0C00
0C00
1800
1800
1800
31C0
33E0
3460
7860
6060
60C0
40C0
C180
C300
CE00
F800
0000
3F00
3F00
ENDCHAR
STARTCHAR uni1E08
ENCODING 7688
SWIDTH 667 0
DWIDTH 16 0
BBX 16 28 1 -5
BITMAP
0030
0070
00E0
0180
0100
0000
00F9
070F
0606
1C02
1802
3000
3000
7000
6000
6000
E000
E000
E000
600C
7018
3870
0FC0
0400
0700
0180
1180
0F00
ENDCHAR
STARTCHAR uni1E09
ENCODING 7689
SWIDTH 444 0
DWIDTH 11 0
BBX 10 22 0 -5
BITMAP
0180
0380
0700
0C00
0800
0000
0780
1CC0
30C0
7000
6000
E000
C000
C000
C180
E700
7C00
2000
3800
0C00
8C00
7800
ENDCHAR
STARTCHAR uni1E0A
ENCODING 7690
SWIDTH 722 0
DWIDTH 18 0
BBX 18 20 -1 0
BITMAP
006000
006000
000000
0FFC00
030F00
030380
070180
0601C0
0601C0
0E01C0
0C0180
0C0180
0C0380
1C0300
180700
180600
380E00
301800
307000
FFC000
ENDCHAR
STARTCHAR uni1E0B
ENCODING 7691
SWIDTH 500 0
DWIDTH 13 0
BBX 13 20 0 0
BITMAP
0060
0060
0000
0038
0018
0018
0038
0030
0030
03B0
0E60
1860
3060
6040
60C0
C0C0
C3C0
C580
F9A0
71C0
ENDCHAR
STARTCHAR uni1E0C
ENCODING 7692
SWIDTH 722 0
DWIDTH 18 0
BBX 18 20 -1 -3
BITMAP
0FFC00
030F00
030380
070180
0601C0
0601C0
0E01C0
0C0180
0C0180
0C0380
1C0300
180700
180600
380E00
301800
307000
FFC000
000000
018000
018000
ENDCHAR
STARTCHAR uni1E0D
ENCODING 7693
SWIDTH 500 0
DWIDTH 13 0
BBX 13 20 0 -3
BITMAP
0038
0018
0018
0038
0030
0030
03B0
0E60
1860
3060
6040
60C0
C0C0
C3C0
C580
F9A0
71C0
0000
0600
0600
ENDCHAR
STARTCHAR uni1E0E
ENCODING 7694
SWIDTH 722 0
DWIDTH 18 0
BBX 18 20 -1 -3
BITMAP
0FFC00
030F00
030380
070180
0601C0
0601C0
0E01C0
0C0180
0C0180
0C0380
1C0300
180700
180600
380E00
301800
307000
FFC000
000000
07E000
07E000
ENDCHAR
STARTCHAR uni1E0F
ENCODING 7695
SWIDTH 500 0
DWIDTH 13 0
BBX 13 20 0 -3
BITMAP
0038
0018
0018
0038
0030
0030
03B0
0E60
1860
3060
6040
60C0
C0C0
C3C0
C580
F9A0
71C0
0000
1F80
1F80
ENDCHAR
STARTCHAR uni1E10
ENCODING 7696
SWIDTH 722 0
DWIDTH 18 0
BBX 18 22 -1 -5
BITMAP
0FFC00
030F00
030380
070180
0601C0
0601C0
0E01C0
0C0180
0C0180
0C0380
1C0300
180700
180600
380E00
301800
307000
FFC000
010000
01C000
006000
046000
03C000
ENDCHAR
STARTCHAR uni1E11
ENCODING 7697
SWIDTH 500 0
DWIDTH 13 0
BBX 13 22 0 -5
BITMAP
0038
0018
0018
0038
0030
0030
03B0
0E60
1860
3060
6040
60C0
C0C0
C3C0
C580
F9A0
71C0
0800
0E00
0300
2300
1E00
ENDCHAR
STARTCHAR uni1E12
ENCODING 7698
SWIDTH 722 0
DWIDTH 18 0
BBX 18 22 -1 -5
BITMAP
0FFC00
030F00
030380
070180
0601C0
0601C0
0E01C0
0C0180
0C0180
0C0380
1C0300
180700
180600
380E00
301800
307000
FFC000
000000
01C000
03C000
066000
082000
ENDCHAR
STARTCHAR uni1E13
ENCODING 7699
SWIDTH 500 0
DWIDTH 13 0
BBX 13 22 0 -5
BITMAP
0038
0018
0018
0038
0030
0030
03B0
0E60
1860
3060
6040
60C0
C0C0
C3C0
C580
F9A0
71C0
0000
0700
0F00
1980
2080
ENDCHAR
STARTCHAR uni1E14
ENCODING 7700
SWIDTH 611 0
DWIDTH 15 0
BBX 16 26 -1 0
BITMAP
0300
0380
01C0
00C0
0020
0000
03F0
03F0
0000
0FFF
0303
0301
0701
0600
0608
0E08
0C18
0FF0
0C30
1C10
1810
1800
3802
3006
300C
FFFC
ENDCHAR
STARTCHAR uni1E15
ENCODING 7701
SWIDTH 444 0
DWIDTH 10 0
BBX 9 20 0 0
BITMAP
3000
3800
1C00
0C00
0200
0000
3F00
3F00
0000
0700
1D80
3180
6300
6600
F800
C000
C100
C300
E600
7C00
ENDCHAR
STARTCHAR uni1E16
ENCODING 7702
SWIDTH 611 0
DWIDTH 15 0
BBX 16 26 -1 0
BITMAP
0018
0038
0070
00C0
0080
0000
03F0
03F0
0000
0FFF
0303
0301
0701
0600
0608
0E08
0C18
0FF0
0C30
1C10
1810
1800
3802
3006
300C
FFFC
ENDCHAR
STARTCHAR uni1E17
ENCODING 7703
SWIDTH 444 0
DWIDTH 10 0
BBX 9 20 0 0
BITMAP
0180
0380
0700
0C00
0800
0000
3F00
3F00
0000
0700
1D80
3180
6300
6600
F800
C000
C100
C300
E600
7C00
ENDCHAR
STARTCHAR uni1E18
ENCODING 7704
SWIDTH 611 0
DWIDTH 15 0
BBX 16 22 -1 -5
BITMAP
0FFF
0303
0301
0701
0600
0608
0E08
0C18
0FF0
0C30
1C10
1810
1800
3802
3006
300C
FFFC
0000
0380
0780
0CC0
1040
ENDCHAR
STARTCHAR uni1E19
ENCODING 7705
SWIDTH 444 0
DWIDTH 10 0
BBX 9 16 0 -5
BITMAP
0700
1D80
3180
6300
6600
F800
C000
C100
C300
E600
7C00
0000
1C00
3C00
6600
8200
ENDCHAR
STARTCHAR uni1E1A
ENCODING 7706
SWIDTH 611 0
DWIDTH 15 0
BBX 16 21 -1 -4
BITMAP
0FFF
0303
0301
0701
0600
0608
0E08
0C18
0FF0
0C30
1C10
1810
1800
3802
3006
300C
FFFC
0000
0710
0FE0
11C0
ENDCHAR
STARTCHAR uni1E1B
ENCODING 7707
SWIDTH 444 0
DWIDTH 10 0
BBX 10 15 -1 -4
BITMAP
0380
0EC0
18C0
3180
3300
7C00
6000
6080
6180
7300
3E00
0000
3880
7F00
8E00
ENDCHAR
STARTCHAR uni1E1C
ENCODING 7708
SWIDTH 611 0
DWIDTH 15 0
BBX 16 27 -1 -5
BITMAP
0208
0318
03F0
01E0
0000
0FFF
0303
0301
0701
0600
0608
0E08
0C18
0FF0
0C30
1C10
1810
1800
3802
3006
300C
FFFC
0200
0380
00C0
08C0
0780
ENDCHAR
STARTCHAR uni1E1D
ENCODING 7709
SWIDTH 444 0
DWIDTH 10 0
BBX 9 21 0 -5
BITMAP
2080
3180
3F00
1E00
0000
0700
1D80
3180
6300
6600
F800
C000
C100
C300
E600
7C00
1000
1C00
0600
4600
3C00
ENDCHAR
STARTCHAR uni1E1E
ENCODING 7710
SWIDTH 611 0
DWIDTH 15 0
BBX 16 20 -1 0
BITMAP
00C0
00C0
0000
0FFF
0303
0301
0701
0600
0608
0E08
0C18
0FF0
0C30
1C10
1810
1800
3800
3000
3000
FE00
ENDCHAR
STARTCHAR uni1E1F
ENCODING 7711
SWIDTH 278 0
DWIDTH 7 0
BBX 15 25 -5 -5
BITMAP
0060
0060
0000
001C
0066
0066
00C0
00C0
00C0
07F8
0180
0180
0180
0380
0300
0300
0300
0700
0600
0600
0600
0C00
CC00
CC00
7000
ENDCHAR
STARTCHAR uni1E20
ENCODING 7712
SWIDTH 722 0
DWIDTH 18 0
BBX 17 20 1 0
BITMAP
03F000
03F000
000000
00F900
078F00
060600
1C0200
180200
380000
300000
700000
600000
603F80
E00600
E00600
E00C00
600C00
700C00
383C00
0FC000
ENDCHAR
STARTCHAR uni1E21
ENCODING 7713
SWIDTH 500 0
DWIDTH 12 0
BBX 12 20 -1 -6
BITMAP
0FC0
0FC0
0000
07F0
1CC0
1860
3060
30E0
30C0
1980
0E00
1800
1C00
3F00
67C0
C1C0
80C0
C0C0
E380
3E00
ENDCHAR
STARTCHAR uni1E22
ENCODING 7714
SWIDTH 722 0
DWIDTH 18 0
BBX 20 20 -1 0
BITMAP
003000
003000
000000
0FC3F0
0300C0
0300C0
0701C0
060180
060180
0E0380
0C0300
0FFF00
0C0300
1C0700
180600
180600
380E00
300C00
300C00
FC3F00
ENDCHAR
STARTCHAR uni1E23
ENCODING 7715
SWIDTH 500 0
DWIDTH 13 0
BBX 11 20 0 0
BITMAP
0C00
0C00
0000
1C00
0C00
0C00
1800
1800
1800
30C0
33E0
3460
7860
7060
70C0
60C0
E0C0
C180
C1A0
C1C0
ENDCHAR
STARTCHAR uni1E24
ENCODING 7716
SWIDTH 722 0
DWIDTH 18 0
BBX 20 20 -1 -3
BITMAP
0FC3F0
0300C0
0300C0
0701C0
060180
060180
0E0380
0C0300
0FFF00
0C0300
1C0700
180600
180600
380E00
300C00
300C00
FC3F00
000000
00C000
00C000
ENDCHAR
STARTCHAR uni1E25
ENCODING 7717
SWIDTH 500 0
DWIDTH 13 0
BBX 11 20 0 -3
BITMAP
1C00
0C00
0C00
1800
1800
1800
30C0
33E0
3460
7860
7060
70C0
60C0
E0C0
C180
C1A0
C1C0
0000
0C00
0C00
ENDCHAR
STARTCHAR uni1E26
ENCODING 7718
SWIDTH 722 0
DWIDTH 18 0
BBX 20 20 -1 0
BITMAP
00CC00
00CC00
000000
0FC3F0
0300C0
0300C0
0701C0
060180
060180
0E0380
0C0300
0FFF00
0C0300
1C0700
180600
180600
380E00
300C00
300C00
FC3F00
ENDCHAR
STARTCHAR uni1E27
ENCODING 7719
SWIDTH 500 0
DWIDTH 13 0
BBX 11 20 0 0
BITMAP
3300
3300
0000
1C00
0C00
0C00
1800
1800
1800
30C0
33E0
3460
7860
7060
70C0
60C0
E0C0
C180
C1A0
C1C0
ENDCHAR
STARTCHAR uni1E28
ENCODING 7720
SWIDTH 722 0
DWIDTH 18 0
BBX 20 22 -1 -5
BITMAP
0FC3F0
0300C0
0300C0
0701C0
060180
060180
0E0380
0C0300
0FFF00
0C0300
1C0700
180600
180600
380E00
300C00
300C00
FC3F00
008000
00E000
003000
023000
01E000
ENDCHAR
STARTCHAR uni1E29
ENCODING 7721
SWIDTH 500 0
DWIDTH 13 0
BBX 11 22 0 -5
BITMAP
1C00
0C00
0C00
1800
1800
1800
30C0
33E0
3460
7860
7060
70C0
60C0
E0C0
C180
C1A0
C1C0
0800
0E00
0300
2300
1E00
ENDCHAR
STARTCHAR uni1E2A
ENCODING 7722
SWIDTH 722 0
DWIDTH 18 0
BBX 20 22 -1 -5
BITMAP
0FC3F0
0300C0
0300C0
0701C0
060180
060180
0E0380
0C0300
0FFF00
0C0300
1C0700
180600
180600
380E00
300C00
300C00
FC3F00
000000
041000
063000
07E000
03C000
ENDCHAR
STARTCHAR uni1E2B
ENCODING 7723
SWIDTH 500 0
DWIDTH 13 0
BBX 11 22 0 -5
BITMAP
1C00
0C00
0C00
1800
1800
1800
30C0
33E0
3460
7860
7060
70C0
60C0
E0C0
C180
C1A0
C1C0
0000
2080
3180
3F00
1E00
ENDCHAR
STARTCHAR uni1E2C
ENCODING 7724
SWIDTH 333 0
DWIDTH 8 0
BBX 11 21 -2 -4
BITMAP
07E0
0180
0180
0380
0300
0300
0700
0600
0600
0600
0E00
0C00
0C00
1C00
1800
1800
7E00
0000
3880
7F00
8E00
ENDCHAR
STARTCHAR uni1E2D
ENCODING 7725
SWIDTH 278 0
DWIDTH 7 0
BBX 9 20 -2 -4
BITMAP
0300
0300
0000
0000
0000
0E00
0600
0600
0C00
0C00
1C00
1800
1800
3000
3400
1800
0000
3880
7F00
8E00
ENDCHAR
STARTCHAR uni1E2E
ENCODING 7726
SWIDTH 333 0
DWIDTH 8 0
BBX 11 27 -1 0
BITMAP
00C0
01C0
0380
0600
0400
0000
0660
0660
0000
0000
0FC0
0300
0300
0700
0600
0600
0E00
0C00
0C00
0C00
1C00
1800
1800
3800
3000
3000
FC00
ENDCHAR
STARTCHAR uni1E2F
ENCODING 7727
SWIDTH 278 0
DWIDTH 7 0
BBX 7 21 0 0
BITMAP
06
0E
1C
30
20
00
66
66
00
00
38
18
18
30
30
70
60
60
C4
C8
70
ENDCHAR
STARTCHAR uni1E30
ENCODING 7728
SWIDTH 667 0
DWIDTH 16 0
BBX 18 23 -1 0
BITMAP
000C00
001C00
003800
006000
004000
000000
0FCFC0
030300
030600
060C00
063000
066000
0EC000
0F8000
0DC000
0CC000
1CE000
186000
187000
383000
303800
301C00
FCFF00
ENDCHAR
STARTCHAR uni1E31
ENCODING 7729
SWIDTH 444 0
DWIDTH 11 0
BBX 11 23 0 0
BITMAP
0300
0700
0E00
1800
1000
0000
1C00
0C00
0C00
1800
1800
1800
33C0
3180
3200
6400
7C00
6C00
6600
C600
C320
C3C0
C180
ENDCHAR
STARTCHAR uni1E32
ENCODING 7730
SWIDTH 667 0
DWIDTH 16 0
BBX 18 20 -1 -3
BITMAP
0FCFC0
030300
030600
060C00
063000
066000
0EC000
0F8000
0DC000
0CC000
1CE000
186000
187000
383000
303800
301C00
FCFF00
000000
018000
018000
ENDCHAR
STARTCHAR uni1E33
ENCODING 7731
SWIDTH 444 0
DWIDTH 11 0
BBX 11 20 0 -3
BITMAP
1C00
0C00
0C00
1800
1800
1800
33C0
3180
3200
6400
7C00
6C00
6600
C600
C320
C3C0
C180
0000
0C00
0C00
ENDCHAR
STARTCHAR uni1E34
ENCODING 7732
SWIDTH 667 0
DWIDTH 16 0
BBX 18 20 -1 -3
BITMAP
0FCFC0
030300
030600
060C00
063000
066000
0EC000
0F8000
0DC000
0CC000
1CE000
186000
187000
383000
303800
301C00
FCFF00
000000
07E000
07E000
ENDCHAR
STARTCHAR uni1E35
ENCODING 7733
SWIDTH 444 0
DWIDTH 11 0
BBX 11 20 0 -3
BITMAP
1C00
0C00
0C00
1800
1800
1800
33C0
3180
3200
6400
7C00
6C00
6600
C600
C320
C3C0
C180
0000
3F00
3F00
ENDCHAR
STARTCHAR uni1E36
ENCODING 7734
SWIDTH 556 0
DWIDTH 14 0
BBX 14 20 -1 -3
BITMAP
0FC0
0300
0300
0700
0600
0600
0E00
0C00
0C00
0C00
1C00
1800
1800
3804
300C
3018
FFF8
0000
0300
0300
ENDCHAR
STARTCHAR uni1E37
ENCODING 7735
SWIDTH 278 0
DWIDTH 6 0
BBX 6 20 0 -3
BITMAP
1C
0C
0C
18
18
18
30
30
30
70
60
60
60
C0
C8
D0
60
00
60
60
ENDCHAR
STARTCHAR uni1E38
ENCODING 7736
SWIDTH 556 0
DWIDTH 14 0
BBX 14 23 -1 -3
BITMAP
0FC0
0FC0
0000
0FC0
0300
0300
0700
0600
0600
0E00
0C00
0C00
0C00
1C00
1800
1800
3804
300C
3018
FFF8
0000
0300
0300
ENDCHAR
STARTCHAR uni1E39
ENCODING 7737
SWIDTH 278 0
DWIDTH 6 0
BBX 7 23 0 -3
BITMAP
7E
7E
00
1C
0C
0C
18
18
18
30
30
30
70
60
60
60
C0
C8
D0
60
00
60
60
ENDCHAR
STARTCHAR uni1E3A
ENCODING 7738
SWIDTH 556 0
DWIDTH 14 0
BBX 14 20 -1 -3
BITMAP
0FC0
0300
0300
0700
0600
0600
0E00
0C00
0C00
0C00
1C00
1800
1800
3804
300C
3018
FFF8
0000
0FC0
0FC0
ENDCHAR
STARTCHAR uni1E3B
ENCODING 7739
SWIDTH 278 0
DWIDTH 6 0
BBX 7 20 -1 -3
BITMAP
0E
06
06
0C
0C
0C
18
18
18
38
30
30
30
60
64
68
30
00
FC
FC
ENDCHAR
STARTCHAR uni1E3C
ENCODING 7740
SWIDTH 556 0
DWIDTH 14 0
BBX 14 22 -1 -5
BITMAP
0FC0
0300
0300
0700
0600
0600
0E00
0C00
0C00
0C00
1C00
1800
1800
3804
300C
3018
FFF8
0000
0380
0780
0CC0
1040
ENDCHAR
STARTCHAR uni1E3D
ENCODING 7741
SWIDTH 278 0
DWIDTH 6 0
BBX 8 22 -2 -5
BITMAP
07
03
03
06
06
06
0C
0C
0C
1C
18
18
18
30
32
34
18
00
1C
3C
66
82
ENDCHAR
STARTCHAR uni1E3E
ENCODING 7742
SWIDTH 833 0
DWIDTH 20 0
BBX 21 23 -1 0
BITMAP
000600
000E00
001C00
003000
002000
000000
1F0078
0700E0
0700E0
0701E0
0F03E0
0B02C0
0B04C0
0B0CC0
1B89C0
199980
119180
31A180
31E380
21C300
218300
618700
F91FC0
ENDCHAR
STARTCHAR uni1E3F
ENCODING 7743
SWIDTH 722 0
DWIDTH 20 0
BBX 18 17 0 0
BITMAP
001800
003800
007000
00C000
008000
000000
38C380
1BEFC0
1C70C0
3860C0
3060C0
70C180
60C180
60C180
C18300
C18340
C18380
ENDCHAR
STARTCHAR uni1E40
ENCODING 7744
SWIDTH 833 0
DWIDTH 20 0
BBX 21 20 -1 0
BITMAP
003000
003000
000000
1F0078
0700E0
0700E0
0701E0
0F03E0
0B02C0
0B04C0
0B0CC0
1B89C0
199980
119180
31A180
31E380
21C300
218300
618700
F91FC0
ENDCHAR
STARTCHAR uni1E41
ENCODING 7745
SWIDTH 722 0
DWIDTH 20 0
BBX 18 14 0 0
BITMAP
006000
006000
000000
38C380
1BEFC0
1C70C0
3860C0
3060C0
70C180
60C180
60C180
C18300
C18340
C18380
ENDCHAR
STARTCHAR uni1E42
ENCODING 7746
SWIDTH 833 0
DWIDTH 20 0
BBX 21 20 -1 -3
BITMAP
1F0078
0700E0
0700E0
0701E0
0F03E0
0B02C0
0B04C0
0B0CC0
1B89C0
199980
119180
31A180
31E380
21C300
218300
618700
F91FC0
000000
006000
006000
ENDCHAR
STARTCHAR uni1E43
ENCODING 7747
SWIDTH 722 0
DWIDTH 20 0
BBX 18 14 0 -3
BITMAP
38C380
1BEFC0
1C70C0
3860C0
3060C0
70C180
60C180
60C180
C18300
C18340
C18380
000000
00C000
00C000
ENDCHAR
STARTCHAR uni1E44
ENCODING 7748
SWIDTH 667 0
DWIDTH 16 0
BBX 19 20 -1 0
BITMAP
006000
006000
000000
1F03E0
0700C0
070180
058180
0D8100
0D8100
08C300
08C200
18E200
186600
107600
303400
303400
203C00
201C00
601800
F80800
ENDCHAR
STARTCHAR uni1E45
ENCODING 7749
SWIDTH 500 0
DWIDTH 13 0
BBX 11 14 0 0
BITMAP
0600
0600
0000
38C0
1BE0
1C60
3860
3060
70C0
60C0
60C0
C180
C1A0
C1C0
ENDCHAR
STARTCHAR uni1E46
ENCODING 7750
SWIDTH 667 0
DWIDTH 16 0
BBX 19 20 -1 -3
BITMAP
1F03E0
0700C0
070180
058180
0D8100
0D8100
08C300
08C200
18E200
186600
107600
303400
303400
203C00
201C00
601800
F80800
000000
018000
018000
ENDCHAR
STARTCHAR uni1E47
ENCODING 7751
SWIDTH 500 0
DWIDTH 13 0
BBX 11 14 0 -3
BITMAP
38C0
1BE0
1C60
3860
3060
70C0
60C0
60C0
C180
C1A0
C1C0
0000
0C00
0C00
ENDCHAR
STARTCHAR uni1E48
ENCODING 7752
SWIDTH 667 0
DWIDTH 16 0
BBX 19 20 -1 -3
BITMAP
1F03E0
0700C0
070180
058180
0D8100
0D8100
08C300
08C200
18E200
186600
107600
303400
303400
203C00
201C00
601800
F80800
000000
07E000
07E000
ENDCHAR
STARTCHAR uni1E49
ENCODING 7753
SWIDTH 500 0
DWIDTH 13 0
BBX 11 14 0 -3
BITMAP
38C0
1BE0
1C60
3860
3060
70C0
60C0
60C0
C180
C1A0
C1C0
0000
3F00
3F00
ENDCHAR
STARTCHAR uni1E4A
ENCODING 7754
SWIDTH 667 0
DWIDTH 16 0
BBX 19 22 -1 -5
BITMAP
1F03E0
0700C0
070180
058180
0D8100
0D8100
08C300
08C200
18E200
186600
107600
303400
303400
203C00
201C00
601800
F80800
000000
01C000
03C000
066000
082000
ENDCHAR
STARTCHAR uni1E4B
ENCODING 7755
SWIDTH 500 0
DWIDTH 13 0
BBX 11 16 0 -5
BITMAP
38C0
1BE0
1C60
3860
3060
70C0
60C0
60C0
C180
C1A0
C1C0
0000
0E00
1E00
3300
4100
ENDCHAR
STARTCHAR uni1E4C
ENCODING 7756
SWIDTH 722 0
DWIDTH 18 0
BBX 16 28 1 0
BITMAP
000C
001C
0038
0060
0040
0000
0071
00FE
011C
0000
0000
00F0
079C
060E
1C06
1807
3807
3007
7006
6006
600E
E00C
E01C
E018
6038
7060
39E0
0F80
ENDCHAR
STARTCHAR uni1E4D
ENCODING 7757
SWIDTH 500 0
DWIDTH 12 0
BBX 12 22 0 0
BITMAP
0060
00E0
01C0
0300
0200
0000
0710
0FE0
11C0
0000
0000
0780
1CC0
3860
7060
6060
E0E0
C0C0
C1C0
C180
6700
3C00
ENDCHAR
STARTCHAR uni1E4E
ENCODING 7758
SWIDTH 722 0
DWIDTH 18 0
BBX 16 25 1 0
BITMAP
0198
0198
0000
0071
00FE
011C
0000
0000
00F0
079C
060E
1C06
1807
3807
3007
7006
6006
600E
E00C
E01C
E018
6038
7060
39E0
0F80
ENDCHAR
STARTCHAR uni1E4F
ENCODING 7759
SWIDTH 500 0
DWIDTH 12 0
BBX 12 19 0 0
BITMAP
0CC0
0CC0
0000
0710
0FE0
11C0
0000
0000
0780
1CC0
3860
7060
6060
E0E0
C0C0
C1C0
C180
6700
3C00
ENDCHAR
STARTCHAR uni1E50
ENCODING 7760
SWIDTH 722 0
DWIDTH 18 0
BBX 16 26 1 0
BITMAP
0300
0380
01C0
00C0
0020
0000
03F0
03F0
0000
00F0
079C
060E
1C06
1807
3807
3007
7006
6006
600E
E00C
E01C
E018
6038
7060
39E0
0F80
ENDCHAR
STARTCHAR uni1E51
ENCODING 7761
SWIDTH 500 0
DWIDTH 12 0
BBX 11 20 0 0
BITMAP
1800
1C00
0E00
0600
0100
0000
1F80
1F80
0000
0780
1CC0
3860
7060
6060
E0E0
C0C0
C1C0
C180
6700
3C00
ENDCHAR
STARTCHAR uni1E52
ENCODING 7762
SWIDTH 722 0
DWIDTH 18 0
BBX 16 26 1 0
BITMAP
0018
0038
0070
00C0
0080
0000
03F0
03F0
0000
00F0
079C
060E
1C06
1807
3807
3007
7006
6006
600E
E00C
E01C
E018
6038
7060
39E0
0F80
ENDCHAR
STARTCHAR uni1E53
ENCODING 7763
SWIDTH 500 0
DWIDTH 12 0
BBX 11 20 0 0
BITMAP
00C0
01C0
0380
0600
0400
0000
1F80
1F80
0000
0780
1CC0
3860
7060
6060
E0E0
C0C0
C1C0
C180
6700
3C00
ENDCHAR
STARTCHAR uni1E54
ENCODING 7764
SWIDTH 611 0
DWIDTH 15 0
BBX 16 23 -1 0
BITMAP
0018
0038
0070
00C0
0080
0000
0FF8
030E
0306
0707
0607
0607
0E0E
0C3C
0FF0
0C00
1C00
1800
1800
3800
3000
3000
FC00
ENDCHAR
STARTCHAR uni1E55
ENCODING 7765
SWIDTH 500 0
DWIDTH 12 0
BBX 14 22 -3 -5
BITMAP
0030
0070
00E0
0180
0100
0000
0E38
067C
068C
0F0C
0C0C
0C18
1C18
1830
1860
19C0
1F00
3000
3000
3000
6000
F800
ENDCHAR
STARTCHAR uni1E56
ENCODING 7766
SWIDTH 611 0
DWIDTH 15 0
BBX 16 20 -1 0
BITMAP
00C0
00C0
0000
0FF8
030E
0306
0707
0607
0607
0E0E
0C3C
0FF0
0C00
1C00
1800
1800
3800
3000
3000
FC00
ENDCHAR
STARTCHAR uni1E57
ENCODING 7767
SWIDTH 500 0
DWIDTH 12 0
BBX 14 19 -3 -5
BITMAP
0180
0180
0000
0E38
067C
068C
0F0C
0C0C
0C18
1C18
1830
1860
19C0
1F00
3000
3000
3000
6000
F800
ENDCHAR
STARTCHAR uni1E58
ENCODING 7768
SWIDTH 611 0
DWIDTH 15 0
BBX 15 20 -1 0
BITMAP
00C0
00C0
0000
0FF0
031C
030C
060E
060E
060C
0C1C
0C38
0FE0
0980
18C0
18C0
1860
3070
3030
3038
FC1E
ENDCHAR
STARTCHAR uni1E59
ENCODING 7769
SWIDTH 389 0
DWIDTH 9 0
BBX 9 14 0 0
BITMAP
0C00
0C00
0000
3980
1B80
1D80
3800
3000
7000
6000
6000
C000
C000
C000
ENDCHAR
STARTCHAR uni1E5A
ENCODING 7770
SWIDTH 611 0
DWIDTH 15 0
BBX 15 20 -1 -3
BITMAP
0FF0
031C
030C
060E
060E
060C
0C1C
0C38
0FE0
0980
18C0
18C0
1860
3070
3030
3038
FC1E
0000
0300
0300
ENDCHAR
STARTCHAR uni1E5B
ENCODING 7771
SWIDTH 389 0
DWIDTH 9 0
BBX 9 14 0 -3
BITMAP
3980
1B80
1D80
3800
3000
7000
6000
6000
C000
C000
C000
0000
6000
6000
ENDCHAR
STARTCHAR uni1E5C
ENCODING 7772
SWIDTH 611 0
DWIDTH 15 0
BBX 15 23 -1 -3
BITMAP
03F0
03F0
0000
0FF0
031C
030C
060E
060E
060C
0C1C
0C38
0FE0
0980
18C0
18C0
1860
3070
3030
3038
FC1E
0000
0300
0300
ENDCHAR
STARTCHAR uni1E5D
ENCODING 7773
SWIDTH 389 0
DWIDTH 9 0
BBX 9 17 0 -3
BITMAP
3F00
3F00
0000
3980
1B80
1D80
3800
3000
7000
6000
6000
C000
C000
C000
0000
6000
6000
ENDCHAR
STARTCHAR uni1E5E
ENCODING 7774
SWIDTH 611 0
DWIDTH 15 0
BBX 15 20 -1 -3
BITMAP
0FF0
031C
030C
060E
060E
060C
0C1C
0C38
0FE0
0980
18C0
18C0
1860
3070
3030
3038
FC1E
0000
0FC0
0FC0
ENDCHAR
STARTCHAR uni1E5F
ENCODING 7775
SWIDTH 389 0
DWIDTH 9 0
BBX 10 14 -1 -3
BITMAP
1CC0
0DC0
0EC0
1C00
1800
3800
3000
3000
6000
6000
6000
0000
FC00
FC00
ENDCHAR
STARTCHAR uni1E60
ENCODING 7776
SWIDTH 500 0
DWIDTH 12 0
BBX 12 20 0 0
BITMAP
0300
0300
0000
07D0
0C70
1830
1820
1820
1C00
0E00
0F00
0780
0380
01C0
01C0
40C0
40C0
C0C0
E180
BF00
ENDCHAR
STARTCHAR uni1E61
ENCODING 7777
SWIDTH 389 0
DWIDTH 9 0
BBX 8 14 0 0
BITMAP
0C
0C
00
1F
33
31
38
38
1C
0E
86
86
CC
F8
ENDCHAR
STARTCHAR uni1E62
ENCODING 7778
SWIDTH 500 0
DWIDTH 12 0
BBX 12 20 0 -3
BITMAP
07D0
0C70
1830
1820
1820
1C00
0E00
0F00
0780
0380
01C0
01C0
40C0
40C0
C0C0
E180
BF00
0000
0C00
0C00
ENDCHAR
STARTCHAR uni1E63
ENCODING 7779
SWIDTH 389 0
DWIDTH 9 0
BBX 8 14 0 -3
BITMAP
1F
33
31
38
38
1C
0E
86
86
CC
F8
00
30
30
ENDCHAR
STARTCHAR uni1E64
ENCODING 7780
SWIDTH 500 0
DWIDTH 12 0
BBX 12 26 0 0
BITMAP
0180
0180
0000
0060
00E0
01C0
0300
0200
0000
07D0
0C70
1830
1820
1820
1C00
0E00
0F00
0780
0380
01C0
01C0
40C0
40C0
C0C0
E180
BF00
ENDCHAR
STARTCHAR uni1E65
ENCODING 7781
SWIDTH 389 0
DWIDTH 9 0
BBX 8 20 0 0
BITMAP
0C
0C
00
03
07
0E
18
10
00
1F
33
31
38
38
1C
0E
86
86
CC
F8
ENDCHAR
STARTCHAR uni1E66
ENCODING 7782
SWIDTH 500 0
DWIDTH 12 0
BBX 13 25 0 0
BITMAP
0180
0180
0000
0208
0330
01E0
01C0
0000
07D0
0C70
1830
1820
1820
1C00
0E00
0F00
0780
0380
01C0
01C0
40C0
40C0
C0C0
E180
BF00
ENDCHAR
STARTCHAR uni1E67
ENCODING 7783
SWIDTH 389 0
DWIDTH 9 0
BBX 10 19 0 0
BITMAP
0600
0600
0000
1040
1980
0F00
0E00
0000
1F00
3300
3100
3800
3800
1C00
0E00
8600
8600
CC00
F800
ENDCHAR
STARTCHAR uni1E68
ENCODING 7784
SWIDTH 500 0
DWIDTH 12 0
BBX 12 23 0 -3
BITMAP
0300
0300
0000
07D0
0C70
1830
1820
1820
1C00
0E00
0F00
0780
0380
01C0
01C0
40C0
40C0
C0C0
E180
BF00
0000
0C00
0C00
ENDCHAR
STARTCHAR uni1E69
ENCODING 7785
SWIDTH 389 0
DWIDTH 9 0
BBX 8 17 0 -3
BITMAP
0C
0C
00
1F
33
31
38
38
1C
0E
86
86
CC
F8
00
30
30
ENDCHAR
STARTCHAR uni1E6A
ENCODING 7786
SWIDTH 556 0
DWIDTH 14 0
BBX 14 20 2 0
BITMAP
0300
0300
0000
FFFC
C30C
8308
8708
0600
0600
0E00
0C00
0C00
0C00
1C00
1800
1800
3800
3000
3000
FC00
ENDCHAR
STARTCHAR uni1E6B
ENCODING 7787
SWIDTH 278 0
DWIDTH 7 0
BBX 7 17 0 0
BITMAP
18
18
00
08
18
38
7E
30
30
70
60
60
60
E0
C4
D8
60
ENDCHAR
STARTCHAR uni1E6C
ENCODING 7788
SWIDTH 556 0
DWIDTH 14 0
BBX 14 20 2 -3
BITMAP
FFFC
C30C
8308
8708
0600
0600
0E00
0C00
0C00
0C00
1C00
1800
1800
3800
3000
3000
FC00
0000
1800
1800
ENDCHAR
STARTCHAR uni1E6D
ENCODING 7789
SWIDTH 278 0
DWIDTH 7 0
BBX 7 17 0 -3
BITMAP
08
18
38
7E
30
30
70
60
60
60
E0
C4
D8
60
00
30
30
ENDCHAR
STARTCHAR uni1E6E
ENCODING 7790
SWIDTH 556 0
DWIDTH 14 0
BBX 14 20 2 -3
BITMAP
FFFC
C30C
8308
8708
0600
0600
0E00
0C00
0C00
0C00
1C00
1800
1800
3800
3000
3000
FC00
0000
7E00
7E00
ENDCHAR
STARTCHAR uni1E6F
ENCODING 7791
SWIDTH 278 0
DWIDTH 7 0
BBX 7 17 0 -3
BITMAP
08
18
38
7E
30
30
70
60
60
60
E0
C4
D8
60
00
FC
FC
ENDCHAR
STARTCHAR uni1E70
ENCODING 7792
SWIDTH 556 0
DWIDTH 14 0
BBX 14 22 2 -5
BITMAP
FFFC
C30C
8308
8708
0600
0600
0E00
0C00
0C00
0C00
1C00
1800
1800
3800
3000
3000
FC00
0000
0E00
1E00
3300
4100
ENDCHAR
STARTCHAR uni1E71
ENCODING 7793
SWIDTH 278 0
DWIDTH 7 0
BBX 8 19 -1 -5
BITMAP
04
0C
1C
3F
18
18
38
30
30
30
70
62
6C
30
00
1C
3C
66
82
ENDCHAR
STARTCHAR uni1E72
ENCODING 7794
SWIDTH 722 0
DWIDTH 18 0
BBX 17 20 2 -3
BITMAP
7E1F80
180600
180600
380400
300400
300C00
700C00
600800
601800
601800
C01000
C01000
C03000
C02000
E06000
79C000
3F0000
000000
198000
198000
ENDCHAR
STARTCHAR uni1E73
ENCODING 7795
SWIDTH 500 0
DWIDTH 12 0
BBX 11 14 0 -3
BITMAP
7860
3060
3060
60C0
60C0
61C0
C180
C380
C700
FB00
6380
0000
3300
3300
ENDCHAR
STARTCHAR uni1E74
ENCODING 7796
SWIDTH 722 0
DWIDTH 18 0
BBX 17 21 2 -4
BITMAP
7E1F80
180600
180600
380400
300400
300C00
700C00
600800
601800
601800
C01000
C01000
C03000
C02000
E06000
79C000
3F0000
000000
0E2000
1FC000
238000
ENDCHAR
STARTCHAR uni1E75
ENCODING 7797
SWIDTH 500 0
DWIDTH 12 0
BBX 11 15 0 -4
BITMAP
7860
3060
3060
60C0
60C0
61C0
C180
C380
C700
FB00
6380
0000
3880
7F00
8E00
ENDCHAR
STARTCHAR uni1E76
ENCODING 7798
SWIDTH 722 0
DWIDTH 18 0
BBX 17 22 2 -5
BITMAP
7E1F80
180600
180600
380400
300400
300C00
700C00
600800
601800
601800
C01000
C01000
C03000
C02000
E06000
79C000
3F0000
000000
070000
0F0000
198000
208000
ENDCHAR
STARTCHAR uni1E77
ENCODING 7799
SWIDTH 500 0
DWIDTH 12 0
BBX 11 16 0 -5
BITMAP
7860
3060
3060
60C0
60C0
61C0
C180
C380
C700
FB00
6380
0000
0E00
1E00
3300
4100
ENDCHAR
STARTCHAR uni1E78
ENCODING 7800
SWIDTH 722 0
DWIDTH 18 0
BBX 17 27 2 0
BITMAP
003000
007000
00E000
018000
010000
000000
038800
07F000
08E000
000000
7E1F80
180600
180600
380400
300400
300C00
700C00
600800
601800
601800
C01000
C01000
C03000
C02000
E06000
79C000
3F0000
ENDCHAR
STARTCHAR uni1E79
ENCODING 7801
SWIDTH 500 0
DWIDTH 12 0
BBX 11 21 0 0
BITMAP
00C0
01C0
0380
0600
0400
0000
0E20
1FC0
2380
0000
7860
3060
3060
60C0
60C0
61C0
C180
C380
C700
FB00
6380
ENDCHAR
STARTCHAR uni1E7A
ENCODING 7802
SWIDTH 722 0
DWIDTH 18 0
BBX 17 23 2 0
BITMAP
033000
033000
000000
07E000
07E000
000000
7E1F80
180600
180600
380400
300400
300C00
700C00
600800
601800
601800
C01000
C01000
C03000
C02000
E06000
79C000
3F0000
ENDCHAR
STARTCHAR uni1E7B
ENCODING 7803
SWIDTH 500 0
DWIDTH 12 0
BBX 11 17 0 0
BITMAP
1980
1980
0000
1F80
1F80
0000
7860
3060
3060
60C0
60C0
61C0
C180
C380
C700
FB00
6380
ENDCHAR
STARTCHAR uni1E7C
ENCODING 7804
SWIDTH 611 0
DWIDTH 15 0
BBX 16 21 1 0
BITMAP
0710
0FE0
11C0
0000
FC1F
7006
300C
3008
3018
3810
1830
1860
1840
18C0
1C80
0D80
0D00
0E00
0E00
0C00
0800
ENDCHAR
STARTCHAR uni1E7D
ENCODING 7805
SWIDTH 444 0
DWIDTH 12 0
BBX 11 15 0 0
BITMAP
1C40
3F80
4700
0000
F0E0
3060
3060
30C0
3080
1980
1B00
1E00
1C00
1800
1000
ENDCHAR
STARTCHAR uni1E7E
ENCODING 7806
SWIDTH 611 0
DWIDTH 15 0
BBX 16 20 1 -3
BITMAP
FC1F
7006
300C
3008
3018
3810
1830
1860
1840
18C0
1C80
0D80
0D00
0E00
0E00
0C00
0800
0000
0600
0600
ENDCHAR
STARTCHAR uni1E7F
ENCODING 7807
SWIDTH 444 0
DWIDTH 12 0
BBX 11 14 0 -3
BITMAP
F0E0
3060
3060
30C0
3080
1980
1B00
1E00
1C00
1800
1000
0000
0C00
0C00
ENDCHAR
STARTCHAR Wgrave
ENCODING 7808
SWIDTH 833 0
DWIDTH 21 0
BBX 21 23 1 0
BITMAP
018000
01C000
00E000
006000
001000
000000
F9F8F8
306060
306040
3060C0
30E080
30E180
31E100
316300
336200
326600
366400
3C6C00
386800
387000
307000
306000
204000
ENDCHAR
STARTCHAR wgrave
ENCODING 7809
SWIDTH 667 0
DWIDTH 17 0
BBX 16 17 0 0
BITMAP
0600
0700
0380
0180
0040
0000
F0C7
30C3
30C3
30C2
31C6
19C4
1AC8
1ED8
1CF0
18E0
10C0
ENDCHAR
STARTCHAR Wacute
ENCODING 7810
SWIDTH 833 0
DWIDTH 21 0
BBX 21 23 1 0
BITMAP
000C00
001C00
003800
006000
004000
000000
F9F8F8
306060
306040
3060C0
30E080
30E180
31E100
316300
336200
326600
366400
3C6C00
386800
387000
307000
306000
204000
ENDCHAR
STARTCHAR wacute
ENCODING 7811
SWIDTH 667 0
DWIDTH 17 0
BBX 16 17 0 0
BITMAP
0030
0070
00E0
0180
0100
0000
F0C7
30C3
30C3
30C2
31C6
19C4
1AC8
1ED8
1CF0
18E0
10C0
ENDCHAR
STARTCHAR Wdieresis
ENCODING 7812
SWIDTH 833 0
DWIDTH 21 0
BBX 21 20 1 0
BITMAP
019800
019800
000000
F9F8F8
306060
306040
3060C0
30E080
30E180
31E100
316300
336200
326600
366400
3C6C00
386800
387000
307000
306000
204000
ENDCHAR
STARTCHAR wdieresis
ENCODING 7813
SWIDTH 667 0
DWIDTH 17 0
BBX 16 14 0 0
BITMAP
0660
0660
0000
F0C7
30C3
30C3
30C2
31C6
19C4
1AC8
1ED8
1CF0
18E0
10C0
ENDCHAR
STARTCHAR uni1E86
ENCODING 7814
SWIDTH 833 0
DWIDTH 21 0
BBX 21 20 1 0
BITMAP
006000
006000
000000
F9F8F8
306060
306040
3060C0
30E080
30E180
31E100
316300
336200
326600
366400
3C6C00
386800
387000
307000
306000
204000
ENDCHAR
STARTCHAR uni1E87
ENCODING 7815
SWIDTH 667 0
DWIDTH 17 0
BBX 16 14 0 0
BITMAP
0180
0180
0000
F0C7
30C3
30C3
30C2
31C6
19C4
1AC8
1ED8
1CF0
18E0
10C0
ENDCHAR
STARTCHAR uni1E88
ENCODING 7816
SWIDTH 833 0
DWIDTH 21 0
BBX 21 20 1 -3
BITMAP
F9F8F8
306060
306040
3060C0
30E080
30E180
31E100
316300
336200
326600
366400
3C6C00
386800
387000
307000
306000
204000
000000
018000
018000
ENDCHAR
STARTCHAR uni1E89
ENCODING 7817
SWIDTH 667 0
DWIDTH 17 0
BBX 16 14 0 -3
BITMAP
F0C7
30C3
30C3
30C2
31C6
19C4
1AC8
1ED8
1CF0
18E0
10C0
0000
0180
0180
ENDCHAR
STARTCHAR uni1E8A
ENCODING 7818
SWIDTH 611 0
DWIDTH 15 0
BBX 18 20 -1 0
BITMAP
006000
006000
000000
3F8FC0
0E0700
060600
070C00
031800
033000
036000
01C000
01C000
01C000
036000
066000
0C6000
183000
303000
703800
F8FE00
ENDCHAR
STARTCHAR uni1E8B
ENCODING 7819
SWIDTH 444 0
DWIDTH 11 0
BBX 11 14 -1 0
BITMAP
0600
0600
0000
1860
3CE0
0C80
0700
0600
0600
0F00
1B00
3320
E1C0
C180
ENDCHAR
STARTCHAR uni1E8C
ENCODING 7820
SWIDTH 611 0
DWIDTH 15 0
BBX 18 20 -1 0
BITMAP
019800
019800
000000
3F8FC0
0E0700
060600
070C00
031800
033000
036000
01C000
01C000
01C000
036000
066000
0C6000
183000
303000
703800
F8FE00
ENDCHAR
STARTCHAR uni1E8D
ENCODING 7821
SWIDTH 444 0
DWIDTH 11 0
BBX 11 14 -1 0
BITMAP
1980
1980
0000
1860
3CE0
0C80
0700
0600
0600
0F00
1B00
3320
E1C0
C180
ENDCHAR
STARTCHAR uni1E8E
ENCODING 7822
SWIDTH 556 0
DWIDTH 14 0
BBX 14 20 2 0
BITMAP
0300
0300
0000
FC7C
7038
3030
3060
18C0
1980
1B00
0E00
0C00
0C00
1800
1800
1800
3000
3000
3000
FC00
ENDCHAR
STARTCHAR uni1E8F
ENCODING 7823
SWIDTH 444 0
DWIDTH 11 0
BBX 12 19 -1 -5
BITMAP
0300
0300
0000
7870
1830
1830
1860
0C40
0CC0
0C80
0D80
0700
0600
0600
0C00
0800
1800
D000
E000
ENDCHAR
STARTCHAR uni1E90
ENCODING 7824
SWIDTH 556 0
DWIDTH 14 0
BBX 16 22 -1 0
BITMAP
00E0
01E0
0330
0410
0000
1FFF
180E
300C
2018
0038
0070
00E0
00C0
0180
0300
0700
0E00
0C02
1806
380C
703C
FFF8
ENDCHAR
STARTCHAR uni1E91
ENCODING 7825
SWIDTH 389 0
DWIDTH 10 0
BBX 9 16 0 0
BITMAP
0E00
1E00
3300
4100
0000
3F80
7F80
4180
0300
0600
0C00
1800
3000
6100
FF00
FE00
ENDCHAR
STARTCHAR uni1E92
ENCODING 7826
SWIDTH 556 0
DWIDTH 14 0
BBX 16 20 -1 -3
BITMAP
1FFF
180E
300C
2018
0038
0070
00E0
00C0
0180
0300
0700
0E00
0C02
1806
380C
703C
FFF8
0000
0180
0180
ENDCHAR
STARTCHAR uni1E93
ENCODING 7827
SWIDTH 389 0
DWIDTH 10 0
BBX 9 14 0 -3
BITMAP
3F80
7F80
4180
0300
0600
0C00
1800
3000
6100
FF00
FE00
0000
1800
1800
ENDCHAR
STARTCHAR uni1E94
ENCODING 7828
SWIDTH 556 0
DWIDTH 14 0
BBX 16 20 -1 -3
BITMAP
1FFF
180E
300C
2018
0038
0070
00E0
00C0
0180
0300
0700
0E00
0C02
1806
380C
703C
FFF8
0000
07E0
07E0
ENDCHAR
STARTCHAR uni1E95
ENCODING 7829
SWIDTH 389 0
DWIDTH 10 0
BBX 9 14 0 -3
BITMAP
3F80
7F80
4180
0300
0600
0C00
1800
3000
6100
FF00
FE00
0000
7E00
7E00
ENDCHAR
STARTCHAR uni1E96
ENCODING 7830
SWIDTH 500 0
DWIDTH 13 0
BBX 11 20 0 -3
BITMAP
1C00
0C00
0C00
1800
1800
1800
30C0
33E0
3460
7860
7060
70C0
60C0
E0C0
C180
C1A0
C1C0
0000
3F00
3F00
ENDCHAR
STARTCHAR uni1E97
ENCODING 7831
SWIDTH 278 0
DWIDTH 7 0
BBX 7 17 0 0
BITMAP
66
66
00
08
18
38
7E
30
30
70
60
60
60
E0
C4
D8
60
ENDCHAR
STARTCHAR uni1E98
ENCODING 7832
SWIDTH 667 0
DWIDTH 17 0
BBX 16 17 0 0
BITMAP
01C0
0360
0220
0360
01C0
0000
F0C7
30C3
30C3
30C2
31C6
19C4
1AC8
1ED8
1CF0
18E0
10C0
ENDCHAR
STARTCHAR uni1E99
ENCODING 7833
SWIDTH 444 0
DWIDTH 11 0
BBX 12 22 -1 -5
BITMAP
0700
0D80
0880
0D80
0700
0000
7870
1830
1830
1860
0C40
0CC0
0C80
0D80
0700
0600
0600
0C00
0800
1800
D000
E000
ENDCHAR
STARTCHAR uni1EA0
ENCODING 7840
SWIDTH 611 0
DWIDTH 15 0
BBX 16 21 -2 -3
BITMAP
000C
001C
001C
002C
006C
004C
00CC
018C
010C
030C
060C
07FC
0C0C
080C
180C
300C
700C
F83F
0000
0180
0180
ENDCHAR
STARTCHAR uni1EA1
ENCODING 7841
SWIDTH 500 0
DWIDTH 13 0
BBX 12 14 0 -3
BITMAP
03B0
0E70
1860
3060
60C0
60C0
C0C0
C380
C580
F9A0
71C0
0000
0C00
0C00
ENDCHAR
STARTCHAR uni1EA4
ENCODING 7844
SWIDTH 611 0
DWIDTH 15 0
BBX 16 28 -2 0
BITMAP
0006
000E
001C
0030
0020
0000
000E
001E
0033
0041
0000
001C
001C
002C
006C
004C
00CC
018C
010C
030C
060C
07FC
0C0C
080C
180C
300C
700C
F83F
ENDCHAR
STARTCHAR uni1EA5
ENCODING 7845
SWIDTH 500 0
DWIDTH 13 0
BBX 12 22 0 0
BITMAP
0060
00E0
01C0
0300
0200
0000
01C0
03C0
0660
0820
0000
03B0
0E70
1860
3060
60C0
60C0
C0C0
C380
C580
F9A0
71C0
ENDCHAR
STARTCHAR uni1EA6
ENCODING 7846
SWIDTH 611 0
DWIDTH 15 0
BBX 16 28 -2 0
BITMAP
00C0
00E0
0070
0030
0008
0000
000E
001E
0033
0041
0000
001C
001C
002C
006C
004C
00CC
018C
010C
030C
060C
07FC
0C0C
080C
180C
300C
700C
F83F
ENDCHAR
STARTCHAR uni1EA7
ENCODING 7847
SWIDTH 500 0
DWIDTH 13 0
BBX 12 22 0 0
BITMAP
0C00
0E00
0700
0300
0080
0000
01C0
03C0
0660
0820
0000
03B0
0E70
1860
3060
60C0
60C0
C0C0
C380
C580
F9A0
71C0
ENDCHAR
STARTCHAR uni1EAA
ENCODING 7850
SWIDTH 611 0
DWIDTH 15 0
BBX 16 26 -2 0
BITMAP
0071
00FE
011C
0000
000E
001E
0033
0041
0000
001C
001C
002C
006C
004C
00CC
018C
010C
030C
060C
07FC
0C0C
080C
180C
300C
700C
F83F
ENDCHAR
STARTCHAR uni1EAB
ENCODING 7851
SWIDTH 500 0
DWIDTH 13 0
BBX 12 20 0 0
BITMAP
0710
0FE0
11C0
0000
01C0
03C0
0660
0820
0000
03B0
0E70
1860
3060
60C0
60C0
C0C0
C380
C580
F9A0
71C0
ENDCHAR
STARTCHAR uni1EAC
ENCODING 7852
SWIDTH 611 0
DWIDTH 15 0
BBX 16 26 -2 -3
BITMAP
0038
0078
00CC
0104
0000
000C
001C
001C
002C
006C
004C
00CC
018C
010C
030C
060C
07FC
0C0C
080C
180C
300C
700C
F83F
0000
0180
0180
ENDCHAR
STARTCHAR uni1EAD
ENCODING 7853
SWIDTH 500 0
DWIDTH 13 0
BBX 12 19 0 -3
BITMAP
0380
0780
0CC0
1040
0000
03B0
0E70
1860
3060
60C0
60C0
C0C0
C380
C580
F9A0
71C0
0000
0C00
0C00
ENDCHAR
STARTCHAR uni1EAE
ENCODING 7854
SWIDTH 611 0
DWIDTH 15 0
BBX 16 29 -2 0
BITMAP
000C
001C
0038
0060
0040
0000
0082
00C6
00FC
0078
0000
000C
001C
001C
002C
006C
004C
00CC
018C
010C
030C
060C
07FC
0C0C
080C
180C
300C
700C
F83F
ENDCHAR
STARTCHAR uni1EAF
ENCODING 7855
SWIDTH 500 0
DWIDTH 13 0
BBX 12 22 0 0
BITMAP
00C0
01C0
0380
0600
0400
0000
0820
0C60
0FC0
0780
0000
03B0
0E70
1860
3060
60C0
60C0
C0C0
C380
C580
F9A0
71C0
ENDCHAR
STARTCHAR uni1EB0
ENCODING 7856
SWIDTH 611 0
DWIDTH 15 0
BBX 16 29 -2 0
BITMAP
0180
01C0
00E0
0060
0010
0000
0082
00C6
00FC
0078
0000
000C
001C
001C
002C
006C
004C
00CC
018C
010C
030C
060C
07FC
0C0C
080C
180C
300C
700C
F83F
ENDCHAR
STARTCHAR uni1EB1
ENCODING 7857
SWIDTH 500 0
DWIDTH 13 0
BBX 12 22 0 0
BITMAP
0C00
0E00
0700
0300
0080
0000
0820
0C60
0FC0
0780
0000
03B0
0E70
1860
3060
60C0
60C0
C0C0
C380
C580
F9A0
71C0
ENDCHAR
STARTCHAR uni1EB4
ENCODING 7860
SWIDTH 611 0
DWIDTH 15 0
BBX 16 27 -2 0
BITMAP
00E2
01FC
0238
0000
0082
00C6
00FC
0078
0000
000C
001C
001C
002C
006C
004C
00CC
018C
010C
030C
060C
07FC
0C0C
080C
180C
300C
700C
F83F
ENDCHAR
STARTCHAR uni1EB5
ENCODING 7861
SWIDTH 500 0
DWIDTH 13 0
BBX 12 20 0 0
BITMAP
0E20
1FC0
2380
0000
0820
0C60
0FC0
0780
0000
03B0
0E70
1860
3060
60C0
60C0
C0C0
C380
C580
F9A0
71C0
ENDCHAR
STARTCHAR uni1EB6
ENCODING 7862
SWIDTH 611 0
DWIDTH 15 0
BBX 16 26 -2 -3
BITMAP
0082
00C6
00FC
0078
0000
000C
001C
001C
002C
006C
004C
00CC
018C
010C
030C
060C
07FC
0C0C
080C
180C
300C
700C
F83F
0000
0180
0180
ENDCHAR
STARTCHAR uni1EB7
ENCODING 7863
SWIDTH 500 0
DWIDTH 13 0
BBX 12 19 0 -3
BITMAP
0820
0C60
0FC0
0780
0000
03B0
0E70
1860
3060
60C0
60C0
C0C0
C380
C580
F9A0
71C0
0000
0C00
0C00
ENDCHAR
STARTCHAR uni1EB8
ENCODING 7864
SWIDTH 611 0
DWIDTH 15 0
BBX 16 20 -1 -3
BITMAP
0FFF
0303
0301
0701
0600
0608
0E08
0C18
0FF0
0C30
1C10
1810
1800
3802
3006
300C
FFFC
0000
0300
0300
ENDCHAR
STARTCHAR uni1EB9
ENCODING 7865
SWIDTH 444 0
DWIDTH 10 0
BBX 9 14 0 -3
BITMAP
0700
1D80
3180
6300
6600
F800
C000
C100
C300
E600
7C00
0000
1800
1800
ENDCHAR
STARTCHAR uni1EBC
ENCODING 7868
SWIDTH 611 0
DWIDTH 15 0
BBX 16 21 -1 0
BITMAP
01C4
03F8
0470
0000
0FFF
0303
0301
0701
0600
0608
0E08
0C18
0FF0
0C30
1C10
1810
1800
3802
3006
300C
FFFC
ENDCHAR
STARTCHAR uni1EBD
ENCODING 7869
SWIDTH 444 0
DWIDTH 10 0
BBX 10 15 0 0
BITMAP
1C40
3F80
4700
0000
0700
1D80
3180
6300
6600
F800
C000
C100
C300
E600
7C00
ENDCHAR
STARTCHAR uni1EBE
ENCODING 7870
SWIDTH 611 0
DWIDTH 15 0
BBX 16 28 -1 0
BITMAP
0018
0038
0070
00C0
0080
0000
0030
0078
00CC
0104
0000
0FFF
0303
0301
0701
0600
0608
0E08
0C18
0FF0
0C30
1C10
1810
1800
3802
3006
300C
FFFC
ENDCHAR
STARTCHAR uni1EBF
ENCODING 7871
SWIDTH 444 0
DWIDTH 10 0
BBX 10 22 0 0
BITMAP
00C0
01C0
0380
0600
0400
0000
0380
0780
0CC0
1040
0000
0700
1D80
3180
6300
6600
F800
C000
C100
C300
E600
7C00
ENDCHAR
STARTCHAR uni1EC0
ENCODING 7872
SWIDTH 611 0
DWIDTH 15 0
BBX 16 28 -1 0
BITMAP
0300
0380
01C0
00C0
0020
0000
0030
0078
00CC
0104
0000
0FFF
0303
0301
0701
0600
0608
0E08
0C18
0FF0
0C30
1C10
1810
1800
3802
3006
300C
FFFC
ENDCHAR
STARTCHAR uni1EC1
ENCODING 7873
SWIDTH 444 0
DWIDTH 10 0
BBX 10 22 0 0
BITMAP
1800
1C00
0E00
0600
0100
0000
0380
0780
0CC0
1040
0000
0700
1D80
3180
6300
6600
F800
C000
C100
C300
E600
7C00
ENDCHAR
STARTCHAR uni1EC4
ENCODING 7876
SWIDTH 611 0
DWIDTH 15 0
BBX 16 26 -1 0
BITMAP
01C4
03F8
0470
0000
0030
0078
00CC
0104
0000
0FFF
0303
0301
0701
0600
0608
0E08
0C18
0FF0
0C30
1C10
1810
1800
3802
3006
300C
FFFC
ENDCHAR
STARTCHAR uni1EC5
ENCODING 7877
SWIDTH 444 0
DWIDTH 10 0
BBX 11 20 0 0
BITMAP
0E20
1FC0
2380
0000
0380
0780
0CC0
1040
0000
0700
1D80
3180
6300
6600
F800
C000
C100
C300
E600
7C00
ENDCHAR
STARTCHAR uni1EC6
ENCODING 7878
SWIDTH 611 0
DWIDTH 15 0
BBX 16 25 -1 -3
BITMAP
00E0
01E0
0330
0410
0000
0FFF
0303
0301
0701
0600
0608
0E08
0C18
0FF0
0C30
1C10
1810
1800
3802
3006
300C
FFFC
0000
0300
0300
ENDCHAR
STARTCHAR uni1EC7
ENCODING 7879
SWIDTH 444 0
DWIDTH 10 0
BBX 9 19 0 -3
BITMAP
0E00
1E00
3300
4100
0000
0700
1D80
3180
6300
6600
F800
C000
C100
C300
E600
7C00
0000
1800
1800
ENDCHAR
STARTCHAR uni1ECA
ENCODING 7882
SWIDTH 333 0
DWIDTH 8 0
BBX 10 20 -1 -3
BITMAP
0FC0
0300
0300
0700
0600
0600
0E00
0C00
0C00
0C00
1C00
1800
1800
3800
3000
3000
FC00
0000
1800
1800
ENDCHAR
STARTCHAR uni1ECB
ENCODING 7883
SWIDTH 278 0
DWIDTH 7 0
BBX 6 19 0 -3
BITMAP
0C
0C
00
00
00
38
18
18
30
30
70
60
60
C0
D0
60
00
60
60
ENDCHAR
STARTCHAR uni1ECC
ENCODING 7884
SWIDTH 722 0
DWIDTH 18 0
BBX 16 20 1 -3
BITMAP
00F0
079C
060E
1C06
1807
3807
3007
7006
6006
600E
E00C
E01C
E018
6038
7060
39E0
0F80
0000
0300
0300
ENDCHAR
STARTCHAR uni1ECD
ENCODING 7885
SWIDTH 500 0
DWIDTH 12 0
BBX 11 14 0 -3
BITMAP
0780
1CC0
3860
7060
6060
E0E0
C0C0
C1C0
C180
6700
3C00
0000
0C00
0C00
ENDCHAR
STARTCHAR uni1ED0
ENCODING 7888
SWIDTH 722 0
DWIDTH 18 0
BBX 16 28 1 0
BITMAP
0018
0038
0070
00C0
0080
0000
0038
0078
00CC
0104
0000
00F0
079C
060E
1C06
1807
3807
3007
7006
6006
600E
E00C
E01C
E018
6038
7060
39E0
0F80
ENDCHAR
STARTCHAR uni1ED1
ENCODING 7889
SWIDTH 500 0
DWIDTH 12 0
BBX 11 22 0 0
BITMAP
00C0
01C0
0380
0600
0400
0000
0380
0780
0CC0
1040
0000
0780
1CC0
3860
7060
6060
E0E0
C0C0
C1C0
C180
6700
3C00
ENDCHAR
STARTCHAR uni1ED2
ENCODING 7890
SWIDTH 722 0
DWIDTH 18 0
BBX 16 28 1 0
BITMAP
0180
01C0
00E0
0060
0010
0000
0038
0078
00CC
0104
0000
00F0
079C
060E
1C06
1807
3807
3007
7006
6006
600E
E00C
E01C
E018
6038
7060
39E0
0F80
ENDCHAR
STARTCHAR uni1ED3
ENCODING 7891
SWIDTH 500 0
DWIDTH 12 0
BBX 11 22 0 0
BITMAP
1800
1C00
0E00
0600
0100
0000
0380
0780
0CC0
1040
0000
0780
1CC0
3860
7060
6060
E0E0
C0C0
C1C0
C180
6700
3C00
ENDCHAR
STARTCHAR uni1ED6
ENCODING 7894
SWIDTH 722 0
DWIDTH 18 0
BBX 16 26 1 0
BITMAP
00E2
01FC
0238
0000
0038
0078
00CC
0104
0000
00F0
079C
060E
1C06
1807
3807
3007
7006
6006
600E
E00C
E01C
E018
6038
7060
39E0
0F80
ENDCHAR
STARTCHAR uni1ED7
ENCODING 7895
SWIDTH 500 0
DWIDTH 12 0
BBX 11 20 0 0
BITMAP
0E20
1FC0
2380
0000
0380
0780
0CC0
1040
0000
0780
1CC0
3860
7060
6060
E0E0
C0C0
C1C0
C180
6700
3C00
ENDCHAR
STARTCHAR uni1ED8
ENCODING 7896
SWIDTH 722 0
DWIDTH 18 0
BBX 16 25 1 -3
BITMAP
00E0
01E0
0330
0410
0000
00F0
079C
060E
1C06
1807
3807
3007
7006
6006
600E
E00C
E01C
E018
6038
7060
39E0
0F80
0000
0300
0300
ENDCHAR
STARTCHAR uni1ED9
ENCODING 7897
SWIDTH 500 0
DWIDTH 12 0
BBX 11 19 0 -3
BITMAP
0700
0F00
1980
2080
0000
0780
1CC0
3860
7060
6060
E0E0
C0C0
C1C0
C180
6700
3C00
0000
0C00
0C00
ENDCHAR
STARTCHAR uni1EDA
ENCODING 7898
SWIDTH 722 0
DWIDTH 18 0
BBX 19 23 1 0
BITMAP
000600
000E00
001C00
003000
002000
000000
00F0E0
079CE0
060E60
1C0640
1807C0
380780
300700
700600
600600
600E00
E00C00
E01C00
E01800
603800
706000
39E000
0F8000
ENDCHAR
STARTCHAR uni1EDB
ENCODING 7899
SWIDTH 500 0
DWIDTH 12 0
BBX 14 17 0 0
BITMAP
0030
0070
00E0
0180
0100
0000
079C
1CDC
386C
7068
6078
E0F0
C0C0
C1C0
C180
6700
3C00
ENDCHAR
STARTCHAR uni1EDC
ENCODING 7900
SWIDTH 722 0
DWIDTH 18 0
BBX 19 23 1 0
BITMAP
00C000
00E000
007000
003000
000800
000000
00F0E0
079CE0
060E60
1C0640
1807C0
380780
300700
700600
600600
600E00
E00C00
E01C00
E01800
603800
706000
39E000
0F8000
ENDCHAR
STARTCHAR uni1EDD
ENCODING 7901
SWIDTH 500 0
DWIDTH 12 0
BBX 14 17 0 0
BITMAP
0600
0700
0380
0180
0040
0000
079C
1CDC
386C
7068
6078
E0F0
C0C0
C1C0
C180
6700
3C00
ENDCHAR
STARTCHAR uni1EE0
ENCODING 7904
SWIDTH 722 0
DWIDTH 18 0
BBX 19 21 1 0
BITMAP
007100
00FE00
011C00
000000
00F0E0
079CE0
060E60
1C0640
1807C0
380780
300700
700600
600600
600E00
E00C00
E01C00
E01800
603800
706000
39E000
0F8000
ENDCHAR
STARTCHAR uni1EE1
ENCODING 7905
SWIDTH 500 0
DWIDTH 12 0
BBX 14 15 0 0
BITMAP
0388
07F0
08E0
0000
079C
1CDC
386C
7068
6078
E0F0
C0C0
C1C0
C180
6700
3C00
ENDCHAR
STARTCHAR uni1EE2
ENCODING 7906
SWIDTH 722 0
DWIDTH 18 0
BBX 19 20 1 -3
BITMAP
00F0E0
079CE0
060E60
1C0640
1807C0
380780
300700
700600
600600
600E00
E00C00
E01C00
E01800
603800
706000
39E000
0F8000
000000
030000
030000
ENDCHAR
STARTCHAR uni1EE3
ENCODING 7907
SWIDTH 500 0
DWIDTH 12 0
BBX 14 14 0 -3
BITMAP
079C
1CDC
386C
7068
6078
E0F0
C0C0
C1C0
C180
6700
3C00
0000
0C00
0C00
ENDCHAR
STARTCHAR uni1EE4
ENCODING 7908
SWIDTH 722 0
DWIDTH 18 0
BBX 17 20 2 -3
BITMAP
7E1F80
180600
180600
380400
300400
300C00
700C00
600800
601800
601800
C01000
C01000
C03000
C02000
E06000
79C000
3F0000
000000
060000
060000
ENDCHAR
STARTCHAR uni1EE5
ENCODING 7909
SWIDTH 500 0
DWIDTH 12 0
BBX 11 14 0 -3
BITMAP
7860
3060
3060
60C0
60C0
61C0
C180
C380
C700
FB00
6380
0000
0C00
0C00
ENDCHAR
STARTCHAR uni1EE8
ENCODING 7912
SWIDTH 722 0
DWIDTH 18 0
BBX 19 23 2 0
BITMAP
000C00
001C00
003800
006000
004000
000000
7E1FE0
1806E0
180660
380440
3004C0
300D80
700C00
600800
601800
601800
C01000
C01000
C03000
C02000
E06000
79C000
3F0000
ENDCHAR
STARTCHAR uni1EE9
ENCODING 7913
SWIDTH 500 0
DWIDTH 12 0
BBX 14 17 0 0
BITMAP
0030
0070
00E0
0180
0100
0000
787C
307C
306C
60C8
60D8
61F0
C180
C380
C700
FB00
6380
ENDCHAR
STARTCHAR uni1EEA
ENCODING 7914
SWIDTH 722 0
DWIDTH 18 0
BBX 19 23 2 0
BITMAP
018000
01C000
00E000
006000
001000
000000
7E1FE0
1806E0
180660
380440
3004C0
300D80
700C00
600800
601800
601800
C01000
C01000
C03000
C02000
E06000
79C000
3F0000
ENDCHAR
STARTCHAR uni1EEB
ENCODING 7915
SWIDTH 500 0
DWIDTH 12 0
BBX 14 17 0 0
BITMAP
0600
0700
0380
0180
0040
0000
787C
307C
306C
60C8
60D8
61F0
C180
C380
C700
FB00
6380
ENDCHAR
STARTCHAR uni1EEE
ENCODING 7918
SWIDTH 722 0
DWIDTH 18 0
BBX 19 21 2 0
BITMAP
00E200
01FC00
023800
000000
7E1FE0
1806E0
180660
380440
3004C0
300D80
700C00
600800
601800
601800
C01000
C01000
C03000
C02000
E06000
79C000
3F0000
ENDCHAR
STARTCHAR uni1EEF
ENCODING 7919
SWIDTH 500 0
DWIDTH 12 0
BBX 14 15 0 0
BITMAP
0388
07F0
08E0
0000
787C
307C
306C
60C8
60D8
61F0
C180
C380
C700
FB00
6380
ENDCHAR
STARTCHAR uni1EF0
ENCODING 7920
SWIDTH 722 0
DWIDTH 18 0
BBX 19 20 2 -3
BITMAP
7E1FE0
1806E0
180660
380440
3004C0
300D80
700C00
600800
601800
601800
C01000
C01000
C03000
C02000
E06000
79C000
3F0000
000000
030000
030000
ENDCHAR
STARTCHAR uni1EF1
ENCODING 7921
SWIDTH 500 0
DWIDTH 12 0
BBX 14 14 0 -3
BITMAP
787C
307C
306C
60C8
60D8
61F0
C180
C380
C700
FB00
6380
0000
0C00
0C00
ENDCHAR
STARTCHAR Ygrave
ENCODING 7922
SWIDTH 556 0
DWIDTH 14 0
BBX 14 23 2 0
BITMAP
0C00
0E00
0700
0300
0080
0000
FC7C
7038
3030
3060
18C0
1980
1B00
0E00
0C00
0C00
1800
1800
1800
3000
3000
3000
FC00
ENDCHAR
STARTCHAR ygrave
ENCODING 7923
SWIDTH 444 0
DWIDTH 11 0
BBX 12 22 -1 -5
BITMAP
1800
1C00
0E00
0600
0100
0000
7870
1830
1830
1860
0C40
0CC0
0C80
0D80
0700
0600
0600
0C00
0800
1800
D000
E000
ENDCHAR
STARTCHAR uni1EF4
ENCODING 7924
SWIDTH 556 0
DWIDTH 14 0
BBX 14 20 2 -3
BITMAP
FC7C
7038
3030
3060
18C0
1980
1B00
0E00
0C00
0C00
1800
1800
1800
3000
3000
3000
FC00
0000
1800
1800
ENDCHAR
STARTCHAR uni1EF5
ENCODING 7925
SWIDTH 444 0
DWIDTH 11 0
BBX 12 19 -1 -8
BITMAP
7870
1830
1830
1860
0C40
0CC0
0C80
0D80
0700
0600
0600
0C00
0800
1800
D000
E000
0000
1800
1800
ENDCHAR
STARTCHAR uni1EF8
ENCODING 7928
SWIDTH 556 0
DWIDTH 14 0
BBX 14 21 2 0
BITMAP
0710
0FE0
11C0
0000
FC7C
7038
3030
3060
18C0
1980
1B00
0E00
0C00
0C00
1800
1800
1800
3000
3000
3000
FC00
ENDCHAR
STARTCHAR uni1EF9
ENCODING 7929
SWIDTH 444 0
DWIDTH 11 0
BBX 12 20 -1 -5
BITMAP
0E20
1FC0
2380
0000
7870
1830
1830
1860
0C40
0CC0
0C80
0D80
0700
0600
0600
0C00
0800
1800
D000
E000
ENDCHAR
STARTCHAR uni2000
ENCODING 8192
SWIDTH 500 0
DWIDTH 13 0
BBX 1 1 0 0
BITMAP
00
ENDCHAR
STARTCHAR uni2001
ENCODING 8193
SWIDTH 1000 0
DWIDTH 25 0
BBX 1 1 0 0
BITMAP
00
ENDCHAR
STARTCHAR uni2002
ENCODING 8194
SWIDTH 500 0
DWIDTH 13 0
BBX 1 1 0 0
BITMAP
00
ENDCHAR
STARTCHAR uni2003
ENCODING 8195
SWIDTH 1000 0
DWIDTH 25 0
BBX 1 1 0 0
BITMAP
00
ENDCHAR
STARTCHAR uni2004
ENCODING 8196
SWIDTH 333 0
DWIDTH 8 0
BBX 1 1 0 0
BITMAP
00
ENDCHAR
STARTCHAR uni2005
ENCODING 8197
SWIDTH 250 0
DWIDTH 6 0
BBX 1 1 0 0
BITMAP
00
ENDCHAR
STARTCHAR uni2006
ENCODING 8198
SWIDTH 167 0
DWIDTH 4 0
BBX 1 1 0 0
BITMAP
00
ENDCHAR
STARTCHAR uni2007
ENCODING 8199
SWIDTH 500 0
DWIDTH 12 0
BBX 1 1 0 0
BITMAP
00
ENDCHAR
STARTCHAR uni2008
ENCODING 8200
SWIDTH 250 0
DWIDTH 6 0
BBX 1 1 0 0
BITMAP
00
ENDCHAR
STARTCHAR uni2009
ENCODING 8201
SWIDTH 200 0
DWIDTH 5 0
BBX 1 1 0 0
BITMAP
00
ENDCHAR
STARTCHAR uni200A
ENCODING 8202
SWIDTH 100 0
DWIDTH 3 0
BBX 1 1 0 0
BITMAP
00
ENDCHAR
STARTCHAR uni200B
ENCODING 8203
SWIDTH 0 0
DWIDTH 0 0
BBX 1 1 0 0
BITMAP
00
ENDCHAR
STARTCHAR uni2010
ENCODING 8208
SWIDTH 333 0
DWIDTH 8 0
BBX 6 2 1 5
BITMAP
FC
FC
ENDCHAR
STARTCHAR uni2011
ENCODING 8209
SWIDTH 333 0
DWIDTH 8 0
BBX 6 2 1 5
BITMAP
FC
FC
ENDCHAR
STARTCHAR figuredash
ENCODING 8210
SWIDTH 500 0
DWIDTH 13 0
BBX 13 2 0 5
BITMAP
FFF8
FFF8
ENDCHAR
STARTCHAR endash
ENCODING 8211
SWIDTH 500 0
DWIDTH 13 0
BBX 13 2 0 5
BITMAP
FFF8
FFF8
ENDCHAR
STARTCHAR emdash
ENCODING 8212
SWIDTH 889 0
DWIDTH 22 0
BBX 22 2 0 5
BITMAP
FFFFFC
FFFFFC
ENDCHAR
STARTCHAR afii00208
ENCODING 8213
SWIDTH 889 0
DWIDTH 22 0
BBX 22 2 0 5
BITMAP
FFFFFC
FFFFFC
ENDCHAR
STARTCHAR quoteleft
ENCODING 8216
SWIDTH 333 0
DWIDTH 7 0
BBX 4 6 3 11
BITMAP
30
60
40
C0
E0
E0
ENDCHAR
STARTCHAR quoteright
ENCODING 8217
SWIDTH 333 0
DWIDTH 7 0
BBX 4 6 2 11
BITMAP
70
70
30
20
60
C0
ENDCHAR
STARTCHAR quotesinglbase
ENCODING 8218
SWIDTH 333 0
DWIDTH 6 0
BBX 4 6 -1 -4
BITMAP
70
70
30
20
60
C0
ENDCHAR
STARTCHAR quotereversed
ENCODING 8219
SWIDTH 333 0
DWIDTH 7 0
BBX 4 6 2 11
BITMAP
E0
E0
C0
40
60
30
ENDCHAR
STARTCHAR quotedblleft
ENCODING 8220
SWIDTH 556 0
DWIDTH 12 0
BBX 9 6 3 11
BITMAP
3180
6300
4200
C600
E700
E700
ENDCHAR
STARTCHAR quotedblright
ENCODING 8221
SWIDTH 556 0
DWIDTH 12 0
BBX 9 6 3 11
BITMAP
7380
7380
3180
2100
6300
C600
ENDCHAR
STARTCHAR quotedblbase
ENCODING 8222
SWIDTH 556 0
DWIDTH 11 0
BBX 9 6 -1 -4
BITMAP
7380
7380
3180
2100
6300
C600
ENDCHAR
STARTCHAR uni201F
ENCODING 8223
SWIDTH 556 0
DWIDTH 12 0
BBX 9 6 3 11
BITMAP
E700
E700
C600
4200
6300
3180
ENDCHAR
STARTCHAR dagger
ENCODING 8224
SWIDTH 500 0
DWIDTH 11 0
BBX 10 21 1 -3
BITMAP
0600
0600
0600
0C00
0C00
FFC0
FFC0
0C00
0C00
1800
1800
1800
1800
3000
3000
3000
3000
6000
6000
6000
6000
ENDCHAR
STARTCHAR daggerdbl
ENCODING 8225
SWIDTH 500 0
DWIDTH 13 0
BBX 12 21 0 -3
BITMAP
0180
0180
0180
0300
0300
3FF0
3FF0
0300
0600
0600
0600
0600
0C00
0C00
FFC0
FFC0
0C00
1800
1800
1800
1800
ENDCHAR
STARTCHAR bullet
ENCODING 8226
SWIDTH 350 0
DWIDTH 9 0
BBX 6 6 1 5
BITMAP
78
FC
FC
FC
FC
78
ENDCHAR
STARTCHAR ellipsis
ENCODING 8230
SWIDTH 889 0
DWIDTH 20 0
BBX 16 3 1 0
BITMAP
C183
C183
C183
ENDCHAR
STARTCHAR perthousand
ENCODING 8240
SWIDTH 1000 0
DWIDTH 25 0
BBX 25 18 0 -1
BITMAP
1E0C0000
3BFC0000
71180000
E1100000
E3300000
C3600000
C6400000
66C00000
399E0F00
013B1D80
03713880
06E17080
04E37180
0CC36180
18C66300
10663300
30381C00
20000000
ENDCHAR
STARTCHAR guilsinglleft
ENCODING 8249
SWIDTH 333 0
DWIDTH 8 0
BBX 7 9 1 2
BITMAP
06
0C
18
30
60
C0
60
30
18
ENDCHAR
STARTCHAR guilsinglright
ENCODING 8250
SWIDTH 333 0
DWIDTH 8 0
BBX 7 9 0 2
BITMAP
30
18
0C
06
0C
18
30
60
C0
ENDCHAR
STARTCHAR fraction
ENCODING 8260
SWIDTH 167 0
DWIDTH 4 0
BBX 12 17 -4 0
BITMAP
0010
0030
0060
00C0
00C0
0180
0300
0300
0600
0C00
0800
1800
3000
6000
6000
C000
8000
ENDCHAR
STARTCHAR oneinferior
ENCODING 8321
SWIDTH 300 0
DWIDTH 7 0
BBX 6 10 0 -5
BITMAP
0C
1C
3C
08
18
18
10
30
30
FC
ENDCHAR
STARTCHAR twoinferior
ENCODING 8322
SWIDTH 300 0
DWIDTH 7 0
BBX 7 10 0 -5
BITMAP
1C
26
06
06
0C
08
10
22
7C
F8
ENDCHAR
STARTCHAR threeinferior
ENCODING 8323
SWIDTH 300 0
DWIDTH 7 0
BBX 7 10 0 -5
BITMAP
1C
26
06
04
38
0C
0C
0C
98
70
ENDCHAR
STARTCHAR uni20A5
ENCODING 8357
SWIDTH 722 0
DWIDTH 20 0
BBX 18 17 0 -3
BITMAP
001800
001800
001000
38F380
1BFFC0
1C70C0
3860C0
3060C0
70C180
60C180
60C180
C18300
C18340
C18380
010000
030000
030000
ENDCHAR
STARTCHAR uni20A6
ENCODING 8358
SWIDTH 667 0
DWIDTH 16 0
BBX 19 17 -1 0
BITMAP
1F03E0
0700C0
070180
058180
0D8100
1FFF00
1FFF00
08C200
18E200
1FFF00
1FFF00
303400
303400
203C00
201C00
601800
F80800
ENDCHAR
STARTCHAR uni20A9
ENCODING 8361
SWIDTH 833 0
DWIDTH 21 0
BBX 21 17 1 0
BITMAP
F9F8F8
306060
306040
3060C0
30E080
3FFF80
3FFF80
316300
336200
3FFF80
3FFF80
3C6C00
386800
387000
307000
306000
204000
ENDCHAR
STARTCHAR Euro
ENCODING 8364
SWIDTH 667 0
DWIDTH 16 0
BBX 19 17 -2 0
BITMAP
001F20
00E1E0
00C0C0
038040
030040
FFF800
FFF800
0E0000
0C0000
FFF800
FFF800
1C0000
1C0000
0C0180
0E0300
070E00
01F800
ENDCHAR
STARTCHAR uni20AD
ENCODING 8365
SWIDTH 667 0
DWIDTH 16 0
BBX 18 17 -1 0
BITMAP
0FCFC0
030300
030600
060C00
063000
066000
0EC000
FFFFC0
FFFFC0
0CC000
1CE000
186000
187000
383000
303800
301C00
FCFF00
ENDCHAR
STARTCHAR uni2103
ENCODING 8451
SWIDTH 1047 0
DWIDTH 25 0
BBX 25 17 1 0
BITMAP
3C007C80
66038780
C3030300
C30E0100
C30C0100
66180000
3C180000
00380000
00300000
00700000
00700000
00700000
00700000
00300600
00380C00
001C3800
0007E000
ENDCHAR
STARTCHAR uni2109
ENCODING 8457
SWIDTH 991 0
DWIDTH 24 0
BBX 23 17 1 0
BITMAP
3C1FFE
660606
C30602
C30E02
C30C00
660C10
3C1C10
001830
001FE0
001860
003820
003020
003000
007000
006000
006000
01FC00
ENDCHAR
STARTCHAR trademark
ENCODING 8482
SWIDTH 980 0
DWIDTH 23 0
BBX 21 10 2 7
BITMAP
FFB018
889830
889830
081C70
081450
0816D0
081290
081390
081110
3E3938
ENDCHAR
STARTCHAR uni212A
ENCODING 8490
SWIDTH 667 0
DWIDTH 16 0
BBX 18 17 -1 0
BITMAP
0FCFC0
030300
030600
060C00
063000
066000
0EC000
0F8000
0DC000
0CC000
1CE000
186000
187000
383000
303800
301C00
FCFF00
ENDCHAR
STARTCHAR uni212B
ENCODING 8491
SWIDTH 611 0
DWIDTH 15 0
BBX 16 23 -2 0
BITMAP
000E
001B
0011
001B
000E
0000
000C
001C
002C
006C
004C
00CC
018C
010C
030C
060C
07FC
0C0C
080C
180C
300C
700C
F83F
ENDCHAR
STARTCHAR uni2132
ENCODING 8498
SWIDTH 611 0
DWIDTH 15 0
BBX 16 17 -1 0
BITMAP
007F
000C
000C
001C
0018
0818
0838
0C30
0FF0
1830
1070
1060
0060
80E0
80C0
C0C0
FFF0
ENDCHAR
STARTCHAR minus
ENCODING 8722
SWIDTH 675 0
DWIDTH 17 0
BBX 13 2 2 6
BITMAP
FFF8
FFF8
ENDCHAR
STARTCHAR fraction
ENCODING 8725
SWIDTH 167 0
DWIDTH 4 0
BBX 12 17 -4 0
BITMAP
0010
0030
0060
00C0
00C0
0180
0300
0300
0600
0C00
0800
1800
3000
6000
6000
C000
8000
ENDCHAR
STARTCHAR periodcentered
ENCODING 8729
SWIDTH 250 0
DWIDTH 6 0
BBX 2 2 2 6
BITMAP
C0
C0
ENDCHAR
STARTCHAR uni2236
ENCODING 8758
SWIDTH 333 0
DWIDTH 8 0
BBX 5 11 1 0
BITMAP
18
18
18
00
00
00
00
00
C0
C0
C0
ENDCHAR
STARTCHAR uni2259
ENCODING 8793
SWIDTH 675 0
DWIDTH 17 0
BBX 13 11 2 4
BITMAP
0380
0780
0CC0
1040
0000
FFF8
FFF8
0000
0000
FFF8
FFF8
ENDCHAR
STARTCHAR uni225A
ENCODING 8794
SWIDTH 675 0
DWIDTH 17 0
BBX 13 11 2 4
BITMAP
1040
1980
0F00
0E00
0000
FFF8
FFF8
0000
0000
FFF8
FFF8
ENDCHAR
STARTCHAR notequal
ENCODING 8800
SWIDTH 675 0
DWIDTH 17 0
BBX 13 17 2 -1
BITMAP
00C0
00C0
0080
0180
0180
0100
FFF8
FFF8
0200
0600
FFF8
FFF8
0C00
0C00
0800
1800
1800
ENDCHAR
STARTCHAR equivalence
ENCODING 8801
SWIDTH 675 0
DWIDTH 17 0
BBX 13 8 0 3
BITMAP
FFF8
FFF8
0000
FFF8
FFF8
0000
FFF8
FFF8
ENDCHAR
STARTCHAR uni2262
ENCODING 8802
SWIDTH 675 0
DWIDTH 17 0
BBX 13 17 0 -1
BITMAP
00C0
00C0
0080
0180
0180
FFF8
FFF8
0300
FFF8
FFF8
0600
FFF8
FFF8
0C00
0800
1800
1800
ENDCHAR
STARTCHAR lessequal
ENCODING 8804
SWIDTH 675 0
DWIDTH 17 0
BBX 14 15 1 -2
BITMAP
001C
007C
03E0
0F80
3C00
F000
F000
3C00
0F80
03E0
00FC
001C
0000
FFFC
FFFC
ENDCHAR
STARTCHAR greaterequal
ENCODING 8805
SWIDTH 675 0
DWIDTH 17 0
BBX 14 15 2 -2
BITMAP
E000
FC00
1F00
07C0
00F0
003C
003C
00F0
07C0
1F00
F800
E000
0000
FFFC
FFFC
ENDCHAR
STARTCHAR uni226E
ENCODING 8814
SWIDTH 675 0
DWIDTH 17 0
BBX 14 17 1 -1
BITMAP
0060
0060
0040
00DC
00FC
03E0
0F80
3D80
F100
F300
3F00
0F80
07E0
06FC
041C
0C00
0C00
ENDCHAR
STARTCHAR uni226F
ENCODING 8815
SWIDTH 675 0
DWIDTH 17 0
BBX 14 17 2 -1
BITMAP
0060
0060
0040
E0C0
FCC0
1F80
07C0
01F0
013C
033C
03F0
07C0
1F00
FE00
E400
0C00
0C00
ENDCHAR
STARTCHAR uni2270
ENCODING 8816
SWIDTH 675 0
DWIDTH 17 0
BBX 14 17 1 -3
BITMAP
0060
007C
007C
03E0
0FC0
3C80
F180
F180
3D00
0F80
03E0
02FC
061C
0600
FFFC
FFFC
0C00
ENDCHAR
STARTCHAR uni2271
ENCODING 8817
SWIDTH 675 0
DWIDTH 17 0
BBX 14 17 2 -3
BITMAP
0060
E060
FC40
1FC0
07C0
00F0
01BC
01BC
01F0
07C0
1F00
FA00
E600
0600
FFFC
FFFC
0C00
ENDCHAR
STARTCHAR fi
ENCODING -1
SWIDTH 500 0
DWIDTH 12 0
BBX 16 22 -5 -5
BITMAP
001C
0066
0066
00C0
00C0
00C0
07FE
0186
0186
018E
038C
030C
030C
031C
0718
0619
060E
0600
0600
CC00
CC00
7000
ENDCHAR
STARTCHAR fl
ENCODING -1
SWIDTH 500 0
DWIDTH 13 0
BBX 17 22 -4 -5
BITMAP
001C80
006780
006780
00C300
00C300
00C300
07FE00
018600
018600
018E00
038C00
030C00
030C00
031C00
071900
061A00
060C00
060000
060000
CC0000
CC0000
700000
ENDCHAR
ENDFONT
